<?xml version="1.0" encoding="UTF-8" standalone="no"?>
<!-- Created with Inkscape (http://www.inkscape.org/) -->

<svg
   xmlns:dc="http://purl.org/dc/elements/1.1/"
   xmlns:cc="http://creativecommons.org/ns#"
   xmlns:rdf="http://www.w3.org/1999/02/22-rdf-syntax-ns#"
   xmlns:svg="http://www.w3.org/2000/svg"
   xmlns="http://www.w3.org/2000/svg"
   xmlns:sodipodi="http://sodipodi.sourceforge.net/DTD/sodipodi-0.dtd"
   xmlns:inkscape="http://www.inkscape.org/namespaces/inkscape"
   width="177.8mm"
   height="101.6mm"
   viewBox="0 0 630.00001 359.99999"
   id="svg10447"
   version="1.1"
   inkscape:version="0.91 r13725"
   sodipodi:docname="Crisis-Stock-scenarios.svg">
  <defs
     id="defs10449">
    <clipPath
       id="clipPath10471"
       clipPathUnits="userSpaceOnUse">
      <path
         inkscape:connector-curvature="0"
         id="path10473"
         d="M 0,0 504,0 504,288 0,288 0,0 Z" />
    </clipPath>
    <clipPath
       id="clipPath10491"
       clipPathUnits="userSpaceOnUse">
      <path
         inkscape:connector-curvature="0"
         id="path10493"
         d="m 38.53,77.4 223.74,0 0,184.54 -223.74,0 0,-184.54 z" />
    </clipPath>
    <clipPath
       id="clipPath10531"
       clipPathUnits="userSpaceOnUse">
      <path
         inkscape:connector-curvature="0"
         id="path10533"
         d="m 265.86,77.4 223.74,0 0,184.54 -223.74,0 0,-184.54 z" />
    </clipPath>
  </defs>
  <sodipodi:namedview
     id="base"
     pagecolor="#ffffff"
     bordercolor="#666666"
     borderopacity="1.0"
     inkscape:pageopacity="0.0"
     inkscape:pageshadow="2"
     inkscape:zoom="1.6454263"
     inkscape:cx="265.77263"
     inkscape:cy="179.99999"
     inkscape:document-units="px"
     inkscape:current-layer="layer1"
     showgrid="false"
     fit-margin-top="0"
     fit-margin-left="0"
     fit-margin-right="0"
     fit-margin-bottom="0"
     inkscape:window-width="1920"
     inkscape:window-height="1018"
     inkscape:window-x="892"
     inkscape:window-y="512"
     inkscape:window-maximized="1" />
  <metadata
     id="metadata10452">
    <rdf:RDF>
      <cc:Work
         rdf:about="">
        <dc:format>image/svg+xml</dc:format>
        <dc:type
           rdf:resource="http://purl.org/dc/dcmitype/StillImage" />
        <dc:title></dc:title>
      </cc:Work>
    </rdf:RDF>
  </metadata>
  <g
     inkscape:label="Layer 1"
     inkscape:groupmode="layer"
     id="layer1"
     transform="translate(-1719.2857,-1463.7908)">
    <path
       inkscape:connector-curvature="0"
       id="path10497"
       style="fill:none;stroke:#ffffff;stroke-width:1.32499993;stroke-linecap:butt;stroke-linejoin:round;stroke-miterlimit:10;stroke-dasharray:none;stroke-opacity:1"
       d="m 1767.4482,1716.5533 279.6625,0" />
    <path
       inkscape:connector-curvature="0"
       id="path10499"
       style="fill:none;stroke:#ffffff;stroke-width:1.32499993;stroke-linecap:butt;stroke-linejoin:round;stroke-miterlimit:10;stroke-dasharray:none;stroke-opacity:1"
       d="m 1767.4482,1673.1408 279.6625,0" />
    <path
       inkscape:connector-curvature="0"
       id="path10501"
       style="fill:none;stroke:#ffffff;stroke-width:1.32499993;stroke-linecap:butt;stroke-linejoin:round;stroke-miterlimit:10;stroke-dasharray:none;stroke-opacity:1"
       d="m 1767.4482,1629.7408 279.6625,0" />
    <path
       inkscape:connector-curvature="0"
       id="path10503"
       style="fill:none;stroke:#ffffff;stroke-width:1.32499993;stroke-linecap:butt;stroke-linejoin:round;stroke-miterlimit:10;stroke-dasharray:none;stroke-opacity:1"
       d="m 1767.4482,1586.3408 279.6625,0" />
    <path
       inkscape:connector-curvature="0"
       id="path10505"
       style="fill:none;stroke:#ffffff;stroke-width:1.32499993;stroke-linecap:butt;stroke-linejoin:round;stroke-miterlimit:10;stroke-dasharray:none;stroke-opacity:1"
       d="m 1767.4482,1542.9283 279.6625,0" />
    <path
       inkscape:connector-curvature="0"
       id="path10507"
       style="fill:none;stroke:#ffffff;stroke-width:1.32499993;stroke-linecap:butt;stroke-linejoin:round;stroke-miterlimit:10;stroke-dasharray:none;stroke-opacity:1"
       d="m 1767.4482,1499.5283 279.6625,0" />
    <path
       inkscape:connector-curvature="0"
       id="path10509"
       style="fill:none;stroke:#ffffff;stroke-width:1.32499993;stroke-linecap:butt;stroke-linejoin:round;stroke-miterlimit:10;stroke-dasharray:none;stroke-opacity:1"
       d="m 1780.1607,1727.0408 0,-230.675" />
    <path
       inkscape:connector-curvature="0"
       id="path10511"
       style="fill:none;stroke:#ffffff;stroke-width:1.32499993;stroke-linecap:butt;stroke-linejoin:round;stroke-miterlimit:10;stroke-dasharray:none;stroke-opacity:1"
       d="m 1874.3857,1727.0408 0,-230.675" />
    <path
       inkscape:connector-curvature="0"
       id="path10513"
       style="fill:none;stroke:#ffffff;stroke-width:1.32499993;stroke-linecap:butt;stroke-linejoin:round;stroke-miterlimit:10;stroke-dasharray:none;stroke-opacity:1"
       d="m 1968.5982,1727.0408 0,-230.675" />
    <path
       inkscape:connector-curvature="0"
       id="path10515"
       style="fill:none;stroke:#1b9e77;stroke-width:2.66250014;stroke-linecap:butt;stroke-linejoin:round;stroke-miterlimit:1;stroke-dasharray:none;stroke-opacity:1"
       d="m 1780.1607,1676.7283 0.925,0.013 0.925,0.037 0.9375,0.038 0.925,0.037 0.925,0.062 0.925,0.062 0.9375,0.1 0.925,0.1125 0.925,0.1375 0.925,0.175 0.925,0.225 0.9375,0.2625 0.925,0.3125 0.925,0.375 0.925,0.4375 0.9375,0.525 0.925,0.5875 0.925,0.675 0.925,0.75 0.9375,0.8375 0.925,0.925 0.925,1 0.925,1.0625 0.9375,1.1375 0.925,1.1875 0.925,1.225 0.925,1.25 0.925,1.2625 0.9375,1.275 0.925,1.2625 0.925,1.2375 0.925,1.2 0.9375,1.1625 0.925,1.1125 0.925,1.05 0.925,0.9875 0.9375,0.925 0.925,0.85 0.925,0.7875 0.925,0.7 0.925,0.6375 0.9375,0.575 0.925,0.5 0.925,0.4375 0.925,0.375 0.9375,0.3125 0.925,0.25 0.925,0.2125 0.925,0.1625 0.9375,0.125 0.925,0.075 0.925,0.05 0.925,0.025 0.925,-0.012 0.9375,-0.025 0.925,-0.037 0.925,-0.062 0.925,-0.062 0.9375,-0.075 0.925,-0.075 0.925,-0.075 0.925,-0.075 0.9375,-0.062 0.925,-0.062 0.925,-0.05 0.925,-0.037 0.925,-0.038 0.9375,-0.012 0.925,0 0.925,0 0.925,0.025 0.9375,0.038 0.925,0.05 0.925,0.062 0.925,0.075 0.9375,0.075 0.925,0.088 0.925,0.1 0.925,0.1 0.925,0.1 0.9375,0.088 0.925,0.1 0.925,0.075 0.925,0.075 0.9375,0.062 0.925,0.05 0.925,0.025 0.925,0.012 0.9375,0 0.925,-0.025 0.925,-0.038 0.925,-0.05 0.9375,-0.062 0.925,-0.087 0.925,-0.075 0.925,-0.088 0.925,-0.075 0.9375,-0.087 0.925,-0.062 0.925,-0.05 0.925,-0.038 0.9375,-0.025 0.925,0 0.925,0.025 0.925,0.05 0.9375,0.075 0.925,0.1 0.925,0.1125 0.925,0.125 0.925,0.15 0.9375,0.1625 0.925,0.175 0.925,0.175 0.925,0.1875 0.9375,0.1875 0.925,0.1875 0.925,0.2 0.925,0.1875 0.9375,0.1875 0.925,0.1875 0.925,0.175 0.925,0.1875 0.925,0.1875 0.9375,0.1875 0.925,0.1875 0.925,0.2 0.925,0.2 0.9375,0.2125 0.925,0.2125 0.925,0.2125 0.925,0.2125 0.9375,0.225 0.925,0.225 0.925,0.2125 0.925,0.225 0.925,0.2 0.9375,0.2 0.925,0.1875 0.925,0.175 0.925,0.1625 0.9375,0.1375 0.925,0.125 0.925,0.088 0.925,0.075 0.9375,0.062 0.925,0.025 0.925,0.025 0.925,-0.013 0.9375,-0.025 0.925,-0.037 0.925,-0.05 0.925,-0.062 0.925,-0.062 0.9375,-0.075 0.925,-0.075 0.925,-0.075 0.925,-0.062 0.9375,-0.062 0.925,-0.05 0.925,-0.037 0.925,-0.025 0.9375,-0.013 0.925,0 0.925,0.025 0.925,0.05 0.925,0.05 0.9375,0.075 0.925,0.1 0.925,0.1 0.925,0.1125 0.9375,0.125 0.925,0.1375 0.925,0.1375 0.925,0.15 0.9375,0.1375 0.925,0.15 0.925,0.1375 0.925,0.1375 0.925,0.125 0.9375,0.125 0.925,0.1125 0.925,0.1 0.925,0.087 0.9375,0.088 0.925,0.075 0.925,0.075 0.925,0.062 0.9375,0.05 0.925,0.037 0.925,0.038 0.925,0.037 0.925,0.025 0.9375,0.025 0.925,0.013 0.925,0.013 0.925,0.013 0.9375,0.012 0.925,0.013 0.925,0 0.925,0.013 0.9375,0 0.925,0 0.925,0 0.925,0 0.925,0.013 0.9375,0 0.925,0 0.925,0 0.925,0 0.9375,0 0.925,0 0.925,0 0.925,0 0.9375,0 0.925,0 0.925,0 0.925,0 0.9375,0 0.925,0 0.925,0 0.925,0 0.925,0 0.9375,0 0.925,0 0.925,0 0.925,0 0.9375,0 0.925,0 0.925,0 0.925,0 0.9375,0 0.925,0 0.925,0 0.925,0 0.925,0 0.9375,0 0.925,0 0.925,0 0.925,0 0.9375,0 0.925,0 0.925,0 0.925,0 0.9375,0 0.925,0 0.925,0 0.925,0 0.925,0 0.9375,0 0.925,0 0.925,0 0.925,0 0.9375,0 0.925,0 0.925,0 0.925,0 0.9375,0 0.925,0 0.925,0 0.925,0 0.925,0 0.9375,0 0.925,0 0.925,0 0.925,0 0.9375,0 0.925,0 0.925,0 0.925,0 0.9375,0 0.925,0 0.925,0 0.925,0 0.9375,0" />
    <path
       inkscape:connector-curvature="0"
       id="path10517"
       style="fill:none;stroke:#d95f02;stroke-width:2.66250014;stroke-linecap:butt;stroke-linejoin:round;stroke-miterlimit:1;stroke-dasharray:none;stroke-opacity:1"
       d="m 1780.1607,1649.9658 0.925,-0.3 0.925,-0.3125 0.9375,-0.3125 0.925,-0.3125 0.925,-0.3125 0.925,-0.3125 0.9375,-0.2875 0.925,-0.2875 0.925,-0.25 0.925,-0.2375 0.925,-0.2 0.9375,-0.15 0.925,-0.1125 0.925,-0.05 0.925,0.013 0.9375,0.088 0.925,0.1625 0.925,0.25 0.925,0.325 0.9375,0.425 0.925,0.4875 0.925,0.575 0.925,0.65 0.9375,0.7125 0.925,0.775 0.925,0.8125 0.925,0.8625 0.925,0.875 0.9375,0.9 0.925,0.925 0.925,0.925 0.925,0.925 0.9375,0.95 0.925,0.9375 0.925,0.95 0.925,0.975 0.9375,0.975 0.925,1 0.925,1.0125 0.925,1.05 0.925,1.075 0.9375,1.1 0.925,1.1375 0.925,1.175 0.925,1.1875 0.9375,1.2375 0.925,1.25 0.925,1.275 0.925,1.2875 0.9375,1.3125 0.925,1.3125 0.925,1.3125 0.925,1.3125 0.925,1.3 0.9375,1.3 0.925,1.2625 0.925,1.25 0.925,1.225 0.9375,1.1875 0.925,1.15 0.925,1.1125 0.925,1.075 0.9375,1.025 0.925,0.9875 0.925,0.95 0.925,0.8875 0.925,0.85 0.9375,0.8125 0.925,0.75 0.925,0.7125 0.925,0.675 0.9375,0.625 0.925,0.575 0.925,0.55 0.925,0.5125 0.9375,0.475 0.925,0.4375 0.925,0.4125 0.925,0.3875 0.925,0.375 0.9375,0.3375 0.925,0.3375 0.925,0.3125 0.925,0.3 0.9375,0.3 0.925,0.275 0.925,0.2875 0.925,0.275 0.9375,0.275 0.925,0.2625 0.925,0.2625 0.925,0.2625 0.9375,0.25 0.925,0.25 0.925,0.2375 0.925,0.2375 0.925,0.2125 0.9375,0.2125 0.925,0.1875 0.925,0.1875 0.925,0.1625 0.9375,0.15 0.925,0.1375 0.925,0.1125 0.925,0.1125 0.9375,0.1 0.925,0.087 0.925,0.075 0.925,0.075 0.925,0.075 0.9375,0.075 0.925,0.075 0.925,0.088 0.925,0.087 0.9375,0.1 0.925,0.1125 0.925,0.125 0.925,0.125 0.9375,0.1375 0.925,0.15 0.925,0.1625 0.925,0.1625 0.925,0.1625 0.9375,0.1625 0.925,0.1625 0.925,0.1625 0.925,0.15 0.9375,0.1375 0.925,0.125 0.925,0.1125 0.925,0.088 0.9375,0.075 0.925,0.05 0.925,0.037 0.925,0.013 0.925,-0.013 0.9375,-0.025 0.925,-0.038 0.925,-0.062 0.925,-0.062 0.9375,-0.075 0.925,-0.088 0.925,-0.088 0.925,-0.075 0.9375,-0.088 0.925,-0.075 0.925,-0.062 0.925,-0.05 0.9375,-0.05 0.925,-0.025 0.925,0 0.925,0 0.925,0.025 0.9375,0.037 0.925,0.05 0.925,0.05 0.925,0.075 0.9375,0.075 0.925,0.088 0.925,0.075 0.925,0.087 0.9375,0.088 0.925,0.075 0.925,0.075 0.925,0.062 0.925,0.05 0.9375,0.05 0.925,0.025 0.925,0.038 0.925,0.013 0.9375,0.012 0.925,0.013 0.925,0 0.925,0 0.9375,0.013 0.925,0 0.925,0.013 0.925,0.013 0.925,0.025 0.9375,0.038 0.925,0.05 0.925,0.062 0.925,0.062 0.9375,0.087 0.925,0.1 0.925,0.1 0.925,0.1125 0.9375,0.125 0.925,0.1375 0.925,0.1375 0.925,0.15 0.925,0.1375 0.9375,0.15 0.925,0.1375 0.925,0.15 0.925,0.1375 0.9375,0.125 0.925,0.125 0.925,0.125 0.925,0.1125 0.9375,0.1 0.925,0.1 0.925,0.088 0.925,0.075 0.925,0.062 0.9375,0.062 0.925,0.062 0.925,0.05 0.925,0.037 0.9375,0.038 0.925,0.025 0.925,0.025 0.925,0.025 0.9375,0.025 0.925,0.013 0.925,0.013 0.925,0.012 0.9375,0 0.925,0.013 0.925,0 0.925,0.013 0.925,0 0.9375,0 0.925,0 0.925,0 0.925,0.013 0.9375,0 0.925,0 0.925,0 0.925,0 0.9375,0 0.925,0 0.925,0 0.925,0 0.925,0 0.9375,0 0.925,0 0.925,0 0.925,0 0.9375,0 0.925,0 0.925,0 0.925,0 0.9375,0 0.925,0 0.925,0 0.925,0 0.925,0 0.9375,0 0.925,0 0.925,0 0.925,0 0.9375,0 0.925,0 0.925,0 0.925,0 0.9375,0 0.925,0 0.925,0 0.925,0 0.925,0 0.9375,0 0.925,0 0.925,0 0.925,0 0.9375,0 0.925,0 0.925,0 0.925,0 0.9375,0 0.925,0 0.925,0 0.925,0 0.9375,0" />
    <path
       inkscape:connector-curvature="0"
       id="path10519"
       style="fill:none;stroke:#7570b3;stroke-width:2.66250014;stroke-linecap:butt;stroke-linejoin:round;stroke-miterlimit:1;stroke-dasharray:none;stroke-opacity:1"
       d="m 1780.1607,1653.4658 0.925,0 0.925,0.013 0.9375,0.037 0.925,0.062 0.925,0.088 0.925,0.1125 0.9375,0.1625 0.925,0.1875 0.925,0.2375 0.925,0.2875 0.925,0.3375 0.9375,0.4 0.925,0.45 0.925,0.5 0.925,0.5625 0.9375,0.625 0.925,0.6625 0.925,0.7125 0.925,0.7375 0.9375,0.775 0.925,0.8 0.925,0.8125 0.925,0.825 0.9375,0.825 0.925,0.85 0.925,0.8375 0.925,0.8625 0.925,0.8625 0.9375,0.875 0.925,0.8875 0.925,0.9125 0.925,0.9125 0.9375,0.925 0.925,0.9375 0.925,0.9375 0.925,0.9375 0.9375,0.925 0.925,0.925 0.925,0.9125 0.925,0.9 0.925,0.875 0.9375,0.875 0.925,0.8625 0.925,0.85 0.925,0.85 0.9375,0.8375 0.925,0.85 0.925,0.85 0.925,0.85 0.9375,0.875 0.925,0.875 0.925,0.9 0.925,0.9 0.925,0.9 0.9375,0.9 0.925,0.9 0.925,0.8875 0.925,0.8625 0.9375,0.85 0.925,0.8125 0.925,0.775 0.925,0.725 0.9375,0.6875 0.925,0.65 0.925,0.5875 0.925,0.5375 0.925,0.4875 0.9375,0.4375 0.925,0.4 0.925,0.35 0.925,0.3125 0.9375,0.275 0.925,0.25 0.925,0.225 0.925,0.2 0.9375,0.2 0.925,0.1875 0.925,0.2 0.925,0.1875 0.925,0.2125 0.9375,0.225 0.925,0.2375 0.925,0.2625 0.925,0.2875 0.9375,0.3125 0.925,0.3375 0.925,0.3625 0.925,0.3875 0.9375,0.4 0.925,0.425 0.925,0.4375 0.925,0.4375 0.9375,0.45 0.925,0.45 0.925,0.4375 0.925,0.4375 0.925,0.4125 0.9375,0.3875 0.925,0.3875 0.925,0.35 0.925,0.325 0.9375,0.2875 0.925,0.275 0.925,0.2375 0.925,0.2125 0.9375,0.1875 0.925,0.1625 0.925,0.1375 0.925,0.125 0.925,0.1 0.9375,0.087 0.925,0.088 0.925,0.062 0.925,0.075 0.9375,0.062 0.925,0.062 0.925,0.075 0.925,0.075 0.9375,0.088 0.925,0.088 0.925,0.1 0.925,0.1 0.925,0.1125 0.9375,0.1125 0.925,0.1 0.925,0.1125 0.925,0.1 0.9375,0.087 0.925,0.088 0.925,0.05 0.925,0.05 0.9375,0.013 0.925,0 0.925,-0.037 0.925,-0.05 0.925,-0.088 0.9375,-0.1 0.925,-0.125 0.925,-0.15 0.925,-0.1625 0.9375,-0.1625 0.925,-0.175 0.925,-0.175 0.925,-0.1625 0.9375,-0.15 0.925,-0.125 0.925,-0.1125 0.925,-0.075 0.9375,-0.038 0.925,-0.012 0.925,0.037 0.925,0.062 0.925,0.088 0.9375,0.1375 0.925,0.15 0.925,0.1875 0.925,0.1875 0.9375,0.2125 0.925,0.225 0.925,0.225 0.925,0.225 0.9375,0.225 0.925,0.2125 0.925,0.2 0.925,0.1875 0.925,0.175 0.9375,0.1625 0.925,0.1375 0.925,0.125 0.925,0.1125 0.9375,0.1 0.925,0.087 0.925,0.075 0.925,0.062 0.9375,0.05 0.925,0.038 0.925,0.037 0.925,0.025 0.925,0.025 0.9375,0.025 0.925,0.013 0.925,0.012 0.925,0.013 0.9375,0 0.925,0.013 0.925,0 0.925,0 0.9375,0 0.925,0 0.925,0.013 0.925,0 0.925,0 0.9375,0 0.925,0 0.925,0 0.925,0 0.9375,0 0.925,0 0.925,0 0.925,0 0.9375,0 0.925,0 0.925,0 0.925,0 0.925,0 0.9375,0 0.925,0 0.925,0 0.925,0 0.9375,0 0.925,0 0.925,0 0.925,0 0.9375,0 0.925,0 0.925,0 0.925,0 0.9375,0 0.925,0 0.925,0 0.925,0 0.925,0 0.9375,0 0.925,0 0.925,0 0.925,0 0.9375,0 0.925,0 0.925,0 0.925,0 0.9375,0 0.925,0 0.925,0 0.925,0 0.925,0 0.9375,0 0.925,0 0.925,0 0.925,0 0.9375,0 0.925,0 0.925,0 0.925,0 0.9375,0 0.925,0 0.925,0 0.925,0 0.925,0 0.9375,0 0.925,0 0.925,0 0.925,0 0.9375,0 0.925,0 0.925,0 0.925,0 0.9375,0 0.925,0 0.925,0 0.925,0 0.925,0 0.9375,0 0.925,0 0.925,0 0.925,0 0.9375,0 0.925,0 0.925,0 0.925,0 0.9375,0 0.925,0 0.925,0 0.925,0 0.9375,0" />
    <path
       inkscape:connector-curvature="0"
       id="path10521"
       style="fill:none;stroke:#e7298a;stroke-width:2.66250014;stroke-linecap:butt;stroke-linejoin:round;stroke-miterlimit:1;stroke-dasharray:none;stroke-opacity:1"
       d="m 1780.1607,1627.5908 0.925,0.025 0.925,0.037 0.9375,0.062 0.925,0.075 0.925,0.1125 0.925,0.125 0.9375,0.175 0.925,0.225 0.925,0.2625 0.925,0.3375 0.925,0.4 0.9375,0.4875 0.925,0.575 0.925,0.6875 0.925,0.8 0.9375,0.9125 0.925,1.0375 0.925,1.1625 0.925,1.3 0.9375,1.4 0.925,1.5125 0.925,1.6 0.925,1.675 0.9375,1.725 0.925,1.75 0.925,1.7625 0.925,1.7375 0.925,1.7125 0.9375,1.6625 0.925,1.6125 0.925,1.525 0.925,1.4625 0.9375,1.3625 0.925,1.3 0.925,1.2 0.925,1.1125 0.9375,1.0375 0.925,0.9625 0.925,0.8875 0.925,0.825 0.925,0.7625 0.9375,0.725 0.925,0.675 0.925,0.65 0.925,0.6375 0.9375,0.6125 0.925,0.625 0.925,0.625 0.925,0.65 0.9375,0.6625 0.925,0.7 0.925,0.7375 0.925,0.775 0.925,0.8125 0.9375,0.85 0.925,0.9 0.925,0.9375 0.925,0.9625 0.9375,1.0125 0.925,1.0375 0.925,1.0625 0.925,1.0875 0.9375,1.1 0.925,1.1125 0.925,1.1125 0.925,1.125 0.925,1.1125 0.9375,1.1 0.925,1.1 0.925,1.0625 0.925,1.0375 0.9375,1 0.925,0.9625 0.925,0.9 0.925,0.8375 0.9375,0.7875 0.925,0.7 0.925,0.625 0.925,0.5375 0.925,0.4375 0.9375,0.35 0.925,0.2625 0.925,0.1625 0.925,0.075 0.9375,-0.013 0.925,-0.087 0.925,-0.15 0.925,-0.2125 0.9375,-0.2375 0.925,-0.275 0.925,-0.275 0.925,-0.275 0.9375,-0.25 0.925,-0.2 0.925,-0.1625 0.925,-0.087 0.925,-0.013 0.9375,0.062 0.925,0.1625 0.925,0.2375 0.925,0.3375 0.9375,0.4125 0.925,0.5 0.925,0.5625 0.925,0.6375 0.9375,0.675 0.925,0.7125 0.925,0.7375 0.925,0.75 0.925,0.7375 0.9375,0.725 0.925,0.7125 0.925,0.6625 0.925,0.625 0.9375,0.5625 0.925,0.525 0.925,0.4625 0.925,0.4 0.9375,0.35 0.925,0.3 0.925,0.25 0.925,0.2125 0.925,0.175 0.9375,0.1375 0.925,0.125 0.925,0.1125 0.925,0.088 0.9375,0.087 0.925,0.088 0.925,0.1 0.925,0.1 0.9375,0.1 0.925,0.1125 0.925,0.1125 0.925,0.1375 0.925,0.125 0.9375,0.125 0.925,0.1375 0.925,0.125 0.925,0.1125 0.9375,0.1 0.925,0.087 0.925,0.062 0.925,0.05 0.9375,0.012 0.925,0 0.925,-0.037 0.925,-0.062 0.9375,-0.088 0.925,-0.1 0.925,-0.1125 0.925,-0.1375 0.925,-0.1375 0.9375,-0.1375 0.925,-0.125 0.925,-0.125 0.925,-0.1125 0.9375,-0.075 0.925,-0.062 0.925,-0.037 0.925,0 0.9375,0.025 0.925,0.062 0.925,0.087 0.925,0.1125 0.925,0.15 0.9375,0.1625 0.925,0.1875 0.925,0.2 0.925,0.2125 0.9375,0.225 0.925,0.225 0.925,0.225 0.925,0.225 0.9375,0.2125 0.925,0.2125 0.925,0.2 0.925,0.1875 0.925,0.1625 0.9375,0.1625 0.925,0.1375 0.925,0.1375 0.925,0.1125 0.9375,0.1 0.925,0.075 0.925,0.075 0.925,0.062 0.9375,0.05 0.925,0.05 0.925,0.038 0.925,0.025 0.925,0.025 0.9375,0.013 0.925,0.013 0.925,0.012 0.925,0.013 0.9375,0 0.925,0.013 0.925,0 0.925,0 0.9375,0 0.925,0.013 0.925,0 0.925,0 0.925,0 0.9375,0 0.925,0 0.925,0 0.925,0 0.9375,0 0.925,0 0.925,0 0.925,0 0.9375,0 0.925,0 0.925,0 0.925,0 0.9375,0 0.925,0 0.925,0 0.925,0 0.925,0 0.9375,0 0.925,0 0.925,0 0.925,0 0.9375,0 0.925,0 0.925,0 0.925,0 0.9375,0 0.925,0 0.925,0 0.925,0 0.925,0 0.9375,0 0.925,0 0.925,0 0.925,0 0.9375,0 0.925,0 0.925,0 0.925,0 0.9375,0 0.925,0 0.925,0 0.925,0 0.925,0 0.9375,0 0.925,0 0.925,0 0.925,0 0.9375,0 0.925,0 0.925,0 0.925,0 0.9375,0 0.925,0 0.925,0 0.925,0 0.925,0 0.9375,0 0.925,0 0.925,0 0.925,0 0.9375,0 0.925,0 0.925,0 0.925,0 0.9375,0 0.925,0 0.925,0 0.925,0 0.9375,0" />
    <path
       inkscape:connector-curvature="0"
       id="path10523"
       style="fill:none;stroke:#66a61e;stroke-width:2.66250014;stroke-linecap:butt;stroke-linejoin:round;stroke-miterlimit:1;stroke-dasharray:none;stroke-opacity:1"
       d="m 1780.1607,1506.8533 0.925,0.2875 0.925,0.2875 0.9375,0.3 0.925,0.3125 0.925,0.3125 0.925,0.325 0.9375,0.325 0.925,0.325 0.925,0.3375 0.925,0.3375 0.925,0.3625 0.9375,0.3625 0.925,0.375 0.925,0.3875 0.925,0.4125 0.9375,0.4375 0.925,0.4625 0.925,0.5125 0.925,0.5375 0.9375,0.6 0.925,0.6625 0.925,0.7125 0.925,0.8 0.9375,0.8625 0.925,0.95 0.925,1.0375 0.925,1.1375 0.925,1.2125 0.9375,1.3 0.925,1.4 0.925,1.475 0.925,1.5625 0.9375,1.65 0.925,1.725 0.925,1.7875 0.925,1.85 0.9375,1.9125 0.925,1.975 0.925,2.025 0.925,2.0625 0.925,2.1 0.9375,2.1375 0.925,2.175 0.925,2.1875 0.925,2.2125 0.9375,2.225 0.925,2.225 0.925,2.2375 0.925,2.2375 0.9375,2.225 0.925,2.2 0.925,2.2 0.925,2.175 0.925,2.1375 0.9375,2.1125 0.925,2.075 0.925,2.0375 0.925,2 0.9375,1.95 0.925,1.9125 0.925,1.8625 0.925,1.8125 0.9375,1.775 0.925,1.7375 0.925,1.7 0.925,1.6625 0.925,1.6375 0.9375,1.6125 0.925,1.5875 0.925,1.575 0.925,1.575 0.9375,1.5625 0.925,1.5625 0.925,1.5625 0.925,1.5875 0.9375,1.5875 0.925,1.6 0.925,1.625 0.925,1.65 0.925,1.6625 0.9375,1.675 0.925,1.6875 0.925,1.7 0.925,1.7 0.9375,1.7 0.925,1.7 0.925,1.6875 0.925,1.6625 0.9375,1.6375 0.925,1.6 0.925,1.5625 0.925,1.5125 0.9375,1.45 0.925,1.3875 0.925,1.3125 0.925,1.2375 0.925,1.15 0.9375,1.075 0.925,0.9875 0.925,0.8875 0.925,0.8 0.9375,0.7 0.925,0.625 0.925,0.5375 0.925,0.45 0.9375,0.375 0.925,0.3125 0.925,0.2375 0.925,0.2 0.925,0.15 0.9375,0.1125 0.925,0.1 0.925,0.088 0.925,0.075 0.9375,0.088 0.925,0.1125 0.925,0.1375 0.925,0.1625 0.9375,0.2125 0.925,0.2625 0.925,0.3 0.925,0.3625 0.925,0.4 0.9375,0.4625 0.925,0.5125 0.925,0.55 0.925,0.5875 0.9375,0.6375 0.925,0.65 0.925,0.675 0.925,0.7 0.9375,0.7 0.925,0.7125 0.925,0.7 0.925,0.7125 0.925,0.6875 0.9375,0.6875 0.925,0.675 0.925,0.675 0.925,0.65 0.9375,0.65 0.925,0.6375 0.925,0.6375 0.925,0.6375 0.9375,0.6375 0.925,0.6375 0.925,0.6625 0.925,0.6625 0.9375,0.6875 0.925,0.7 0.925,0.7125 0.925,0.75 0.925,0.775 0.9375,0.7875 0.925,0.825 0.925,0.85 0.925,0.875 0.9375,0.8875 0.925,0.925 0.925,0.9375 0.925,0.9625 0.9375,0.975 0.925,1 0.925,1.0125 0.925,1.0125 0.925,1.025 0.9375,1.0375 0.925,1.025 0.925,1.0375 0.925,1.0375 0.9375,1.0375 0.925,1.025 0.925,1.025 0.925,1 0.9375,1.0125 0.925,0.9875 0.925,0.975 0.925,0.9625 0.925,0.9375 0.9375,0.925 0.925,0.9125 0.925,0.8875 0.925,0.8625 0.9375,0.85 0.925,0.8125 0.925,0.8 0.925,0.775 0.9375,0.7375 0.925,0.7125 0.925,0.6875 0.925,0.65 0.925,0.6375 0.9375,0.5875 0.925,0.5625 0.925,0.5375 0.925,0.5 0.9375,0.4625 0.925,0.4375 0.925,0.4 0.925,0.375 0.9375,0.3375 0.925,0.3125 0.925,0.275 0.925,0.25 0.925,0.225 0.9375,0.1875 0.925,0.1625 0.925,0.1375 0.925,0.125 0.9375,0.087 0.925,0.062 0.925,0.038 0.925,0.013 0.9375,0 0.925,-0.025 0.925,-0.062 0.925,-0.075 0.9375,-0.087 0.925,-0.125 0.925,-0.1375 0.925,-0.1625 0.925,-0.1875 0.9375,-0.2 0.925,-0.2125 0.925,-0.2375 0.925,-0.25 0.9375,-0.275 0.925,-0.275 0.925,-0.275 0.925,-0.2875 0.9375,-0.2875 0.925,-0.2875 0.925,-0.2875 0.925,-0.2625 0.925,-0.25 0.9375,-0.225 0.925,-0.2 0.925,-0.175 0.925,-0.1375 0.9375,-0.087 0.925,-0.062 0.925,-0.013 0.925,0.037 0.9375,0.075 0.925,0.125 0.925,0.1625 0.925,0.2125 0.925,0.2375 0.9375,0.275 0.925,0.2875 0.925,0.3125 0.925,0.3375 0.9375,0.325 0.925,0.3375 0.925,0.325 0.925,0.3125 0.9375,0.2875 0.925,0.2875 0.925,0.25 0.925,0.2375 0.925,0.225 0.9375,0.1875 0.925,0.175 0.925,0.15 0.925,0.1375 0.9375,0.1125 0.925,0.1 0.925,0.087 0.925,0.075 0.9375,0.062 0.925,0.05 0.925,0.05 0.925,0.037 0.9375,0.025" />
    <path
       inkscape:connector-curvature="0"
       id="path10537"
       style="fill:none;stroke:#ffffff;stroke-width:1.32499993;stroke-linecap:butt;stroke-linejoin:round;stroke-miterlimit:10;stroke-dasharray:none;stroke-opacity:1"
       d="m 2051.6107,1716.5533 279.675,0" />
    <path
       inkscape:connector-curvature="0"
       id="path10539"
       style="fill:none;stroke:#ffffff;stroke-width:1.32499993;stroke-linecap:butt;stroke-linejoin:round;stroke-miterlimit:10;stroke-dasharray:none;stroke-opacity:1"
       d="m 2051.6107,1673.1408 279.675,0" />
    <path
       inkscape:connector-curvature="0"
       id="path10541"
       style="fill:none;stroke:#ffffff;stroke-width:1.32499993;stroke-linecap:butt;stroke-linejoin:round;stroke-miterlimit:10;stroke-dasharray:none;stroke-opacity:1"
       d="m 2051.6107,1629.7408 279.675,0" />
    <path
       inkscape:connector-curvature="0"
       id="path10543"
       style="fill:none;stroke:#ffffff;stroke-width:1.32499993;stroke-linecap:butt;stroke-linejoin:round;stroke-miterlimit:10;stroke-dasharray:none;stroke-opacity:1"
       d="m 2051.6107,1586.3408 279.675,0" />
    <path
       inkscape:connector-curvature="0"
       id="path10545"
       style="fill:none;stroke:#ffffff;stroke-width:1.32499993;stroke-linecap:butt;stroke-linejoin:round;stroke-miterlimit:10;stroke-dasharray:none;stroke-opacity:1"
       d="m 2051.6107,1542.9283 279.675,0" />
    <path
       inkscape:connector-curvature="0"
       id="path10547"
       style="fill:none;stroke:#ffffff;stroke-width:1.32499993;stroke-linecap:butt;stroke-linejoin:round;stroke-miterlimit:10;stroke-dasharray:none;stroke-opacity:1"
       d="m 2051.6107,1499.5283 279.675,0" />
    <path
       inkscape:connector-curvature="0"
       id="path10549"
       style="fill:none;stroke:#ffffff;stroke-width:1.32499993;stroke-linecap:butt;stroke-linejoin:round;stroke-miterlimit:10;stroke-dasharray:none;stroke-opacity:1"
       d="m 2064.3232,1727.0408 0,-230.675" />
    <path
       inkscape:connector-curvature="0"
       id="path10551"
       style="fill:none;stroke:#ffffff;stroke-width:1.32499993;stroke-linecap:butt;stroke-linejoin:round;stroke-miterlimit:10;stroke-dasharray:none;stroke-opacity:1"
       d="m 2129.1732,1727.0408 0,-230.675" />
    <path
       inkscape:connector-curvature="0"
       id="path10553"
       style="fill:none;stroke:#ffffff;stroke-width:1.32499993;stroke-linecap:butt;stroke-linejoin:round;stroke-miterlimit:10;stroke-dasharray:none;stroke-opacity:1"
       d="m 2194.0232,1727.0408 0,-230.675" />
    <path
       inkscape:connector-curvature="0"
       id="path10555"
       style="fill:none;stroke:#ffffff;stroke-width:1.32499993;stroke-linecap:butt;stroke-linejoin:round;stroke-miterlimit:10;stroke-dasharray:none;stroke-opacity:1"
       d="m 2258.8607,1727.0408 0,-230.675" />
    <path
       inkscape:connector-curvature="0"
       id="path10557"
       style="fill:none;stroke:#ffffff;stroke-width:1.32499993;stroke-linecap:butt;stroke-linejoin:round;stroke-miterlimit:10;stroke-dasharray:none;stroke-opacity:1"
       d="m 2323.7107,1727.0408 0,-230.675" />
    <path
       inkscape:connector-curvature="0"
       id="path10559"
       style="fill:none;stroke:#1b9e77;stroke-width:2.66250014;stroke-linecap:butt;stroke-linejoin:round;stroke-miterlimit:1;stroke-dasharray:none;stroke-opacity:1"
       d="m 2064.3232,1606.4783 0.5375,0.475 0.525,0.5125 0.525,0.5625 0.525,0.6375 0.525,0.7 0.5375,0.775 0.525,0.8625 0.525,0.9625 0.525,1.05 0.525,1.175 0.525,1.2875 0.5375,1.4 0.525,1.55 0.525,1.675 0.525,1.8125 0.525,1.9625 0.525,2.0875 0.5375,2.2125 0.525,2.325 0.525,2.4125 0.525,2.5 0.525,2.55 0.5375,2.575 0.525,2.575 0.525,2.5375 0.525,2.4875 0.525,2.4 0.525,2.2875 0.5375,2.175 0.525,2.025 0.525,1.8875 0.525,1.75 0.525,1.5875 0.5375,1.4625 0.525,1.3125 0.525,1.1875 0.525,1.0875 0.525,0.975 0.525,0.8875 0.5375,0.8125 0.525,0.75 0.525,0.7 0.525,0.675 0.525,0.6375 0.525,0.625 0.5375,0.625 0.525,0.6125 0.525,0.625 0.525,0.65 0.525,0.65 0.5375,0.6625 0.525,0.6875 0.525,0.7 0.525,0.725 0.525,0.725 0.525,0.7375 0.5375,0.7375 0.525,0.7375 0.525,0.725 0.525,0.725 0.525,0.7 0.5375,0.675 0.525,0.65 0.525,0.625 0.525,0.5875 0.525,0.55 0.525,0.5 0.5375,0.475 0.525,0.425 0.525,0.3875 0.525,0.3375 0.525,0.3125 0.525,0.275 0.5375,0.2375 0.525,0.2 0.525,0.1875 0.525,0.1625 0.525,0.1375 0.5375,0.125 0.525,0.125 0.525,0.1125 0.525,0.1 0.525,0.1 0.525,0.1 0.5375,0.1 0.525,0.1 0.525,0.1125 0.525,0.1125 0.525,0.1125 0.5375,0.1125 0.525,0.1125 0.525,0.125 0.525,0.1125 0.525,0.125 0.525,0.1125 0.5375,0.1125 0.525,0.1125 0.525,0.1125 0.525,0.1125 0.525,0.1 0.525,0.1125 0.5375,0.1 0.525,0.1125 0.525,0.1 0.525,0.1125 0.525,0.125 0.5375,0.125 0.525,0.15 0.525,0.15 0.525,0.175 0.525,0.1875 0.525,0.2 0.5375,0.2375 0.525,0.25 0.525,0.2875 0.525,0.3 0.525,0.3375 0.5375,0.3625 0.525,0.375 0.525,0.4125 0.525,0.4375 0.525,0.4625 0.525,0.4875 0.5375,0.5 0.525,0.5125 0.525,0.525 0.525,0.5375 0.525,0.55 0.525,0.55 0.5375,0.55 0.525,0.5375 0.525,0.5375 0.525,0.5375 0.525,0.5125 0.5375,0.5 0.525,0.475 0.525,0.4625 0.525,0.4375 0.525,0.4125 0.525,0.4 0.5375,0.375 0.525,0.35 0.525,0.3375 0.525,0.3125 0.525,0.3 0.5375,0.275 0.525,0.275 0.525,0.25 0.525,0.25 0.525,0.25 0.525,0.2375 0.5375,0.2375 0.525,0.2375 0.525,0.2375 0.525,0.225 0.525,0.2375 0.525,0.2375 0.5375,0.2375 0.525,0.2375 0.525,0.2375 0.525,0.2375 0.525,0.225 0.5375,0.225 0.525,0.225 0.525,0.2125 0.525,0.2125 0.525,0.2 0.525,0.1875 0.5375,0.175 0.525,0.1625 0.525,0.1625 0.525,0.1375 0.525,0.125 0.5375,0.1125 0.525,0.1125 0.525,0.087 0.525,0.088 0.525,0.075 0.525,0.062 0.5375,0.05 0.525,0.05 0.525,0.037 0.525,0.038 0.525,0.025 0.525,0.025 0.5375,0.013 0.525,0.013 0.525,0.012 0.525,0 0.525,0.013 0.5375,0 0.525,0 0.525,0 0.525,-0.013 0.525,0 0.525,-0.012 0.5375,-0.013 0.525,-0.013 0.525,-0.013 0.525,-0.013 0.525,-0.012 0.5375,-0.013 0.525,-0.013 0.525,-0.025 0.525,-0.012 0.525,-0.013 0.525,-0.013 0.5375,-0.013 0.525,-0.013 0.525,-0.012 0.525,-0.013 0.525,-0.013 0.525,0 0.5375,0 0.525,0 0.525,0 0.525,0.013 0.525,0 0.5375,0.013 0.525,0.012 0.525,0.013 0.525,0.025 0.525,0.013 0.525,0.025 0.5375,0.013 0.525,0.025 0.525,0.025 0.525,0.025 0.525,0.013 0.5375,0.025 0.525,0.025 0.525,0.013 0.525,0.025 0.525,0.013 0.525,0.013 0.5375,0.025 0.525,0.013 0.525,0.013 0.525,0.013 0.525,0 0.525,0.013 0.5375,0.012 0.525,0 0.525,0.013 0.525,0 0.525,0 0.5375,0.013 0.525,0 0.525,0 0.525,0 0.525,0 0.525,0 0.5375,0.013 0.525,0 0.525,0 0.525,0 0.525,0 0.5375,0 0.525,0 0.525,0 0.525,0 0.525,0 0.525,0 0.5375,0 0.525,0 0.525,0 0.525,0 0.525,0 0.525,0 0.5375,0 0.525,0 0.525,0 0.525,0 0.525,0" />
    <path
       inkscape:connector-curvature="0"
       id="path10561"
       style="fill:none;stroke:#d95f02;stroke-width:2.66250014;stroke-linecap:butt;stroke-linejoin:round;stroke-miterlimit:1;stroke-dasharray:none;stroke-opacity:1"
       d="m 2064.3232,1525.4033 0.5375,0.1625 0.525,0.175 0.525,0.2 0.525,0.2375 0.525,0.275 0.5375,0.3125 0.525,0.35 0.525,0.425 0.525,0.475 0.525,0.55 0.525,0.6375 0.5375,0.725 0.525,0.825 0.525,0.925 0.525,1.0625 0.525,1.1875 0.525,1.325 0.5375,1.4625 0.525,1.6125 0.525,1.7625 0.525,1.9125 0.525,2.0625 0.5375,2.1875 0.525,2.3125 0.525,2.425 0.525,2.5125 0.525,2.6 0.525,2.65 0.5375,2.6875 0.525,2.7 0.525,2.7 0.525,2.675 0.525,2.6375 0.5375,2.6 0.525,2.525 0.525,2.4625 0.525,2.375 0.525,2.2875 0.525,2.2125 0.5375,2.1 0.525,2.025 0.525,1.925 0.525,1.825 0.525,1.7375 0.525,1.6625 0.5375,1.5625 0.525,1.4875 0.525,1.425 0.525,1.3375 0.525,1.275 0.5375,1.2125 0.525,1.1625 0.525,1.1 0.525,1.0625 0.525,1.025 0.525,0.9875 0.5375,0.9625 0.525,0.95 0.525,0.925 0.525,0.9125 0.525,0.9125 0.5375,0.9 0.525,0.925 0.525,0.925 0.525,0.925 0.525,0.9625 0.525,0.9625 0.5375,0.9875 0.525,1.025 0.525,1.025 0.525,1.0625 0.525,1.075 0.525,1.1 0.5375,1.125 0.525,1.125 0.525,1.15 0.525,1.15 0.525,1.1625 0.5375,1.1625 0.525,1.15 0.525,1.15 0.525,1.15 0.525,1.125 0.525,1.1 0.5375,1.0875 0.525,1.0625 0.525,1.0375 0.525,1.0125 0.525,0.975 0.5375,0.95 0.525,0.925 0.525,0.8875 0.525,0.8625 0.525,0.85 0.525,0.8125 0.5375,0.7875 0.525,0.775 0.525,0.7625 0.525,0.7375 0.525,0.725 0.525,0.725 0.5375,0.7125 0.525,0.7 0.525,0.7 0.525,0.7 0.525,0.7 0.5375,0.7 0.525,0.7 0.525,0.7125 0.525,0.7 0.525,0.7125 0.525,0.725 0.5375,0.7125 0.525,0.725 0.525,0.725 0.525,0.725 0.525,0.725 0.5375,0.7125 0.525,0.7125 0.525,0.7 0.525,0.6875 0.525,0.6625 0.525,0.6625 0.5375,0.625 0.525,0.6125 0.525,0.575 0.525,0.5625 0.525,0.525 0.525,0.4875 0.5375,0.475 0.525,0.4375 0.525,0.4125 0.525,0.3875 0.525,0.375 0.5375,0.35 0.525,0.3375 0.525,0.3375 0.525,0.3375 0.525,0.325 0.525,0.35 0.5375,0.35 0.525,0.375 0.525,0.4 0.525,0.4375 0.525,0.4625 0.5375,0.4875 0.525,0.5375 0.525,0.575 0.525,0.6 0.525,0.65 0.525,0.6875 0.5375,0.7125 0.525,0.7375 0.525,0.775 0.525,0.7875 0.525,0.8 0.525,0.8125 0.5375,0.825 0.525,0.8125 0.525,0.8125 0.525,0.8 0.525,0.7875 0.5375,0.7625 0.525,0.7375 0.525,0.7125 0.525,0.6875 0.525,0.65 0.525,0.6125 0.5375,0.575 0.525,0.5375 0.525,0.5125 0.525,0.475 0.525,0.4375 0.5375,0.4 0.525,0.375 0.525,0.35 0.525,0.3125 0.525,0.3 0.525,0.2875 0.5375,0.25 0.525,0.25 0.525,0.2375 0.525,0.225 0.525,0.2125 0.525,0.2125 0.5375,0.2 0.525,0.2 0.525,0.2 0.525,0.2 0.525,0.2 0.5375,0.1875 0.525,0.2 0.525,0.1875 0.525,0.175 0.525,0.175 0.525,0.1625 0.5375,0.1625 0.525,0.1375 0.525,0.1375 0.525,0.1125 0.525,0.1 0.5375,0.087 0.525,0.062 0.525,0.05 0.525,0.025 0.525,0.013 0.525,0 0.5375,-0.025 0.525,-0.05 0.525,-0.05 0.525,-0.062 0.525,-0.075 0.525,-0.075 0.5375,-0.087 0.525,-0.088 0.525,-0.075 0.525,-0.075 0.525,-0.062 0.5375,-0.05 0.525,-0.025 0.525,-0.013 0.525,0.013 0.525,0.037 0.525,0.075 0.5375,0.1 0.525,0.125 0.525,0.1625 0.525,0.2 0.525,0.225 0.5375,0.2625 0.525,0.2875 0.525,0.325 0.525,0.35 0.525,0.375 0.525,0.4 0.5375,0.425 0.525,0.425 0.525,0.45 0.525,0.45 0.525,0.4625 0.525,0.4625 0.5375,0.4625 0.525,0.45 0.525,0.4375 0.525,0.425 0.525,0.4125 0.5375,0.3875 0.525,0.3625 0.525,0.3375 0.525,0.325 0.525,0.2875 0.525,0.2625 0.5375,0.2375 0.525,0.2125 0.525,0.1875 0.525,0.1625 0.525,0.1375 0.5375,0.125 0.525,0.1 0.525,0.088 0.525,0.075 0.525,0.062 0.525,0.062 0.5375,0.038 0.525,0.037 0.525,0.025 0.525,0.025 0.525,0.025 0.525,0.013 0.5375,0.013 0.525,0.012 0.525,0 0.525,0.013 0.525,0" />
    <path
       inkscape:connector-curvature="0"
       id="path10563"
       style="fill:none;stroke:#7570b3;stroke-width:2.66250014;stroke-linecap:butt;stroke-linejoin:round;stroke-miterlimit:1;stroke-dasharray:none;stroke-opacity:1"
       d="m 2064.3232,1664.9533 0.9375,0.6375 0.925,0.6875 0.925,0.7125 0.925,0.7625 0.9375,0.775 0.925,0.825 0.925,0.85 0.925,0.8875 0.9375,0.9375 0.925,0.9625 0.925,1.0375 0.925,1.0875 0.925,1.15 0.9375,1.2375 0.925,1.3125 0.925,1.375 0.925,1.4625 0.9375,1.5375 0.925,1.6 0.925,1.65 0.925,1.7 0.9375,1.7 0.925,1.7125 0.925,1.675 0.925,1.6375 0.925,1.5625 0.9375,1.475 0.925,1.4 0.925,1.3 0.925,1.2125 0.9375,1.1375 0.925,1.0625 0.925,1.0125 0.925,0.95 0.9375,0.9 0.925,0.8625 0.925,0.8 0.925,0.7375 0.9375,0.675 0.925,0.6125 0.925,0.5375 0.925,0.475 0.925,0.4125 0.9375,0.3375 0.925,0.3 0.925,0.25 0.925,0.225 0.9375,0.2 0.925,0.175 0.925,0.175 0.925,0.175 0.9375,0.175 0.925,0.175 0.925,0.1875 0.925,0.1875 0.925,0.2 0.9375,0.2 0.925,0.2 0.925,0.1875 0.925,0.1875 0.9375,0.175 0.925,0.1625 0.925,0.1375 0.925,0.125 0.9375,0.1 0.925,0.088 0.925,0.062 0.925,0.05 0.925,0.037 0.9375,0.038 0.925,0.012 0.925,0.013 0.925,0.013 0.9375,0 0.925,0 0.925,0.013 0.925,0 0.9375,0 0.925,0 0.925,0 0.925,0 0.925,0 0.9375,0 0.925,0 0.925,0 0.925,0 0.9375,0 0.925,0 0.925,0 0.925,0 0.9375,0 0.925,0 0.925,0 0.925,0 0.925,0 0.9375,0 0.925,0 0.925,0 0.925,0 0.9375,0 0.925,0 0.925,0 0.925,0 0.9375,0 0.925,0 0.925,0 0.925,0 0.9375,0 0.925,0 0.925,0 0.925,0 0.925,0 0.9375,0 0.925,0 0.925,0 0.925,0 0.9375,0 0.925,0 0.925,0 0.925,0 0.9375,0 0.925,0 0.925,0 0.925,0 0.925,0 0.9375,0 0.925,0 0.925,0 0.925,0 0.9375,0 0.925,0 0.925,0 0.925,0 0.9375,0 0.925,0 0.925,0 0.925,0 0.925,0 0.9375,0 0.925,0 0.925,0 0.925,0 0.9375,0 0.925,0 0.925,0 0.925,0 0.9375,0 0.925,0 0.925,0 0.925,0 0.925,0 0.9375,0 0.925,0 0.925,0 0.925,0 0.9375,0 0.925,0 0.925,0 0.925,0 0.9375,0 0.925,0 0.925,0 0.925,0 0.9375,0 0.925,0 0.925,0 0.925,0 0.925,0 0.9375,0 0.925,0 0.925,0 0.925,0 0.9375,0 0.925,0 0.925,0 0.925,0 0.9375,0 0.925,0 0.925,0 0.925,0 0.925,0 0.9375,0 0.925,0 0.925,0 0.925,0 0.9375,0 0.925,0 0.925,0 0.925,0 0.9375,0 0.925,0 0.925,0 0.925,0 0.925,0 0.9375,0 0.925,0 0.925,0 0.925,0 0.9375,0 0.925,0 0.925,0 0.925,0 0.9375,0 0.925,0 0.925,0 0.925,0 0.925,0 0.9375,0 0.925,0 0.925,0 0.925,0 0.9375,0 0.925,0 0.925,0 0.925,0 0.9375,0 0.925,0 0.925,0 0.925,0 0.925,0 0.9375,0 0.925,0 0.925,0 0.925,0 0.9375,0 0.925,0 0.925,0 0.925,0 0.9375,0 0.925,0 0.925,0 0.925,0 0.9375,0 0.925,0 0.925,0 0.925,0 0.925,0 0.9375,0 0.925,0 0.925,0 0.925,0 0.9375,0 0.925,0 0.925,0 0.925,0 0.9375,0 0.925,0 0.925,0 0.925,0 0.925,0 0.9375,0 0.925,0 0.925,0 0.925,0 0.9375,0 0.925,0 0.925,0 0.925,0 0.9375,0 0.925,0 0.925,0 0.925,0 0.925,0 0.9375,0 0.925,0 0.925,0 0.925,0 0.9375,0 0.925,0 0.925,0 0.925,0 0.9375,0 0.925,0 0.925,0" />
    <path
       inkscape:connector-curvature="0"
       id="path10565"
       style="fill:none;stroke:#e7298a;stroke-width:2.66250014;stroke-linecap:butt;stroke-linejoin:round;stroke-miterlimit:1;stroke-dasharray:none;stroke-opacity:1"
       d="m 2064.3232,1535.5908 0.9125,3.3875 0.9125,4.025 0.9,4.675 0.9125,5.3 0.9125,5.8125 0.9,6.0875 0.9125,6.05 0.9,5.6375 0.9125,4.95 0.9125,4.175 0.9,3.55 0.9125,3.3 0.9,3.5 0.9125,4.0875 0.9125,4.875 0.9,5.7125 0.9125,6.4 0.9125,6.825 0.9,6.9625 0.9125,6.8 0.9,6.425 0.9125,5.8625 0.9125,5.2375 0.9,4.5625 0.9125,3.925 0.9,3.3125 0.9125,2.7625 0.9125,2.225 0.9,1.7375 0.9125,1.2625 0.9,0.825 0.9125,0.425 0.9125,0.075 0.9,-0.1875 0.9125,-0.3875 0.9125,-0.475 0.9,-0.475 0.9125,-0.3875 0.9,-0.2 0.9125,0.075 0.9125,0.4125 0.9,0.8 0.9125,1.2 0.9,1.6 0.9125,1.9375 0.9125,2.2 0.9,2.3375 0.9125,2.3625 0.9125,2.2625 0.9,2.075 0.9125,1.8375 0.9,1.6 0.9125,1.375 0.9125,1.2 0.9,1.0875 0.9125,1.0375 0.9,1.025 0.9125,1.05 0.9125,1.075 0.9,1.1 0.9125,1.1 0.9125,1.075 0.9,1.0125 0.9125,0.9375 0.9,0.8375 0.9125,0.75 0.9125,0.65 0.9,0.55 0.9125,0.4625 0.9,0.375 0.9125,0.3 0.9125,0.2375 0.9,0.1875 0.9125,0.15 0.9125,0.1375 0.9,0.1375 0.9125,0.175 0.9,0.2 0.9125,0.25 0.9125,0.275 0.9,0.3125 0.9125,0.3125 0.9,0.3125 0.9125,0.2875 0.9125,0.275 0.9,0.2375 0.9125,0.2125 0.9125,0.175 0.9,0.1625 0.9125,0.125 0.9,0.1 0.9125,0.087 0.9125,0.062 0.9,0.05 0.9125,0.038 0.9,0.013 0.9125,-0.013 0.9125,-0.05 0.9,-0.075 0.9125,-0.125 0.9,-0.1625 0.9125,-0.225 0.9125,-0.275 0.9,-0.325 0.9125,-0.3625 0.9125,-0.375 0.9,-0.35 0.9125,-0.325 0.9,-0.25 0.9125,-0.15 0.9125,-0.038 0.9,0.088 0.9125,0.1875 0.9,0.2875 0.9125,0.3375 0.9125,0.3625 0.9,0.375 0.9125,0.3375 0.9125,0.3 0.9,0.25 0.9125,0.2 0.9,0.15 0.9125,0.1125 0.9125,0.088 0.9,0.05 0.9125,0.038 0.9,0.012 0.9125,0.025 0.9125,0 0.9,0 0.9125,0.013 0.9125,0 0.9,0 0.9125,0 0.9,0 0.9125,0 0.9125,0 0.9,0 0.9125,0 0.9,0 0.9125,0 0.9125,0 0.9,0 0.9125,0 0.9125,0 0.9,0 0.9125,0 0.9,0 0.9125,0 0.9125,0 0.9,0 0.9125,0 0.9,0 0.9125,0 0.9125,0 0.9,0 0.9125,0 0.9,0 0.9125,0 0.9125,0 0.9,0 0.9125,0 0.9125,0 0.9,0 0.9125,0 0.9,0 0.9125,0 0.9125,0 0.9,0 0.9125,0 0.9,0 0.9125,0 0.9125,0 0.9,0 0.9125,0 0.9125,0 0.9,0 0.9125,0 0.9,0 0.9125,0 0.9125,0 0.9,0 0.9125,0 0.9,0 0.9125,0 0.9125,0 0.9,0 0.9125,0 0.9125,0 0.9,0 0.9125,0 0.9,0 0.9125,0 0.9125,0 0.9,0 0.9125,0 0.9,0 0.9125,0 0.9125,0 0.9,0 0.9125,0 0.9125,0 0.9,0 0.9125,0 0.9,0 0.9125,0 0.9125,0 0.9,0 0.9125,0 0.9,0 0.9125,0 0.9125,0 0.9,0 0.9125,0 0.9125,0 0.9,0 0.9125,0 0.9,0 0.9125,0 0.9125,0 0.9,0 0.9125,0 0.9,0 0.9125,0 0.9125,0 0.9,0 0.9125,0 0.9,0 0.9125,0 0.9125,0 0.9,0 0.9125,0 0.9125,0 0.9,0 0.9125,0 0.9,0 0.9125,0 0.9125,0 0.9,0 0.9125,0 0.9,0 0.9125,0 0.9125,0 0.9,0 0.9125,0 0.9125,0 0.9,0 0.9125,0 0.9,0 0.9125,0 0.9125,0 0.9,0 0.9125,0 0.9,0 0.9125,0 0.9125,0 0.9,0 0.9125,0 0.9125,0 0.9,0 0.9125,0 0.9,0 0.9125,0 0.9125,0 0.9,0 0.9125,0 0.9,0 0.9125,0 0.9125,0 0.9,0 0.9125,0 0.9125,0 0.9,0 0.9125,0" />
    <path
       inkscape:connector-curvature="0"
       id="path10567"
       style="fill:none;stroke:#66a61e;stroke-width:2.66250014;stroke-linecap:butt;stroke-linejoin:round;stroke-miterlimit:1;stroke-dasharray:none;stroke-opacity:1"
       d="m 2064.3232,1512.0408 0.5375,-0.037 0.525,0 0.525,0.025 0.525,0.075 0.525,0.125 0.5375,0.175 0.525,0.25 0.525,0.325 0.525,0.425 0.525,0.525 0.525,0.6375 0.5375,0.775 0.525,0.925 0.525,1.0875 0.525,1.2625 0.525,1.4375 0.525,1.6375 0.5375,1.8375 0.525,2.0375 0.525,2.2375 0.525,2.4375 0.525,2.6125 0.5375,2.7875 0.525,2.925 0.525,3.0375 0.525,3.1375 0.525,3.1875 0.525,3.2125 0.5375,3.2 0.525,3.1625 0.525,3.1 0.525,3.0125 0.525,2.8875 0.5375,2.75 0.525,2.6125 0.525,2.4625 0.525,2.3 0.525,2.15 0.525,1.9875 0.5375,1.85 0.525,1.7 0.525,1.575 0.525,1.4625 0.525,1.35 0.525,1.275 0.5375,1.1875 0.525,1.1375 0.525,1.0875 0.525,1.0625 0.525,1.05 0.5375,1.0375 0.525,1.0375 0.525,1.0625 0.525,1.075 0.525,1.1125 0.525,1.15 0.5375,1.1875 0.525,1.225 0.525,1.275 0.525,1.3125 0.525,1.3625 0.5375,1.4 0.525,1.4375 0.525,1.475 0.525,1.5125 0.525,1.5375 0.525,1.55 0.5375,1.5875 0.525,1.5875 0.525,1.6 0.525,1.6125 0.525,1.6 0.525,1.6125 0.5375,1.5875 0.525,1.5875 0.525,1.5625 0.525,1.55 0.525,1.5375 0.5375,1.5 0.525,1.4875 0.525,1.45 0.525,1.425 0.525,1.4125 0.525,1.3625 0.5375,1.35 0.525,1.3125 0.525,1.2875 0.525,1.2625 0.525,1.225 0.5375,1.2 0.525,1.175 0.525,1.15 0.525,1.1125 0.525,1.1 0.525,1.0625 0.5375,1.05 0.525,1.0125 0.525,1 0.525,0.975 0.525,0.95 0.525,0.925 0.5375,0.9 0.525,0.8875 0.525,0.8625 0.525,0.85 0.525,0.825 0.5375,0.8125 0.525,0.7875 0.525,0.775 0.525,0.7625 0.525,0.7375 0.525,0.7125 0.5375,0.7125 0.525,0.6875 0.525,0.675 0.525,0.65 0.525,0.6375 0.5375,0.625 0.525,0.6 0.525,0.6 0.525,0.575 0.525,0.55 0.525,0.55 0.5375,0.5375 0.525,0.525 0.525,0.5 0.525,0.5125 0.525,0.4875 0.525,0.5 0.5375,0.4875 0.525,0.4875 0.525,0.475 0.525,0.4875 0.525,0.5 0.5375,0.5 0.525,0.5 0.525,0.5125 0.525,0.5125 0.525,0.5375 0.525,0.5375 0.5375,0.55 0.525,0.55 0.525,0.575 0.525,0.575 0.525,0.575 0.5375,0.5875 0.525,0.6 0.525,0.5875 0.525,0.6 0.525,0.6 0.525,0.5875 0.5375,0.6 0.525,0.5875 0.525,0.5875 0.525,0.5875 0.525,0.575 0.525,0.575 0.5375,0.5625 0.525,0.55 0.525,0.55 0.525,0.55 0.525,0.525 0.5375,0.525 0.525,0.525 0.525,0.5 0.525,0.5 0.525,0.4875 0.525,0.475 0.5375,0.4625 0.525,0.45 0.525,0.4375 0.525,0.425 0.525,0.4125 0.5375,0.3875 0.525,0.375 0.525,0.35 0.525,0.3375 0.525,0.3125 0.525,0.3 0.5375,0.275 0.525,0.25 0.525,0.225 0.525,0.2125 0.525,0.1875 0.525,0.1625 0.5375,0.15 0.525,0.125 0.525,0.1125 0.525,0.1 0.525,0.075 0.5375,0.075 0.525,0.062 0.525,0.05 0.525,0.037 0.525,0.038 0.525,0.037 0.5375,0.037 0.525,0.025 0.525,0.037 0.525,0.038 0.525,0.05 0.5375,0.037 0.525,0.062 0.525,0.05 0.525,0.075 0.525,0.075 0.525,0.075 0.5375,0.088 0.525,0.1 0.525,0.1 0.525,0.1125 0.525,0.1125 0.525,0.1125 0.5375,0.1125 0.525,0.125 0.525,0.125 0.525,0.1125 0.525,0.1125 0.5375,0.1125 0.525,0.1 0.525,0.088 0.525,0.087 0.525,0.075 0.525,0.062 0.5375,0.05 0.525,0.05 0.525,0.025 0.525,0.013 0.525,0.013 0.5375,0 0.525,-0.013 0.525,-0.025 0.525,-0.025 0.525,-0.025 0.525,-0.025 0.5375,-0.025 0.525,-0.025 0.525,-0.025 0.525,-0.013 0.525,-0.013 0.525,0.013 0.5375,0.013 0.525,0.025 0.525,0.038 0.525,0.062 0.525,0.075 0.5375,0.087 0.525,0.1 0.525,0.1125 0.525,0.125 0.525,0.15 0.525,0.15 0.5375,0.1625 0.525,0.175 0.525,0.175 0.525,0.175 0.525,0.1875 0.5375,0.175 0.525,0.1875 0.525,0.175 0.525,0.175 0.525,0.175 0.525,0.1625 0.5375,0.1625 0.525,0.1625 0.525,0.1375 0.525,0.1375 0.525,0.1375 0.525,0.125 0.5375,0.1125 0.525,0.1125 0.525,0.1 0.525,0.1 0.525,0.1" />
    <path
       d="m 1767.4482,1496.3658 279.675,0 0,-14.575 -279.675,0 0,14.575 z"
       style="fill:#666666;fill-opacity:1;fill-rule:nonzero;stroke:none"
       id="path10573"
       inkscape:connector-curvature="0" />
    <text
       style="font-variant:normal;font-weight:bold;font-size:8.75px;font-family:Garamond;-inkscape-font-specification:Garamond-Bold;writing-mode:lr-tb;fill:#ffffff;fill-opacity:1;fill-rule:nonzero;stroke:none"
       id="text10575"
       x="1897.9357"
       y="1491.8658">
      <tspan
         x="1897.9357 1903.8595 1908.4182 1911.787"
         y="1491.8658"
         sodipodi:role="line"
         id="tspan10577">Corn</tspan>
    </text>
    <path
       d="m 2051.6107,1496.3658 279.675,0 0,-14.575 -279.675,0 0,14.575 z"
       style="fill:#666666;fill-opacity:1;fill-rule:nonzero;stroke:none"
       id="path10583"
       inkscape:connector-curvature="0" />
    <text
       style="font-variant:normal;font-weight:bold;font-size:8.75px;font-family:Garamond;-inkscape-font-specification:Garamond-Bold;writing-mode:lr-tb;fill:#ffffff;fill-opacity:1;fill-rule:nonzero;stroke:none"
       id="text10585"
       x="2179.5232"
       y="1491.8658">
      <tspan
         x="2179.5232 2187.5208 2192.3506 2196.4543 2200.6458"
         y="1491.8658"
         sodipodi:role="line"
         id="tspan10587">Wheat</tspan>
    </text>
    <text
       style="font-variant:normal;font-weight:normal;font-size:8.75px;font-family:Garamond;-inkscape-font-specification:Garamond;writing-mode:lr-tb;fill:#7f7f7f;fill-opacity:1;fill-rule:nonzero;stroke:none"
       id="text10595"
       x="1748.4607"
       y="1719.3033">
      <tspan
         x="1748.4607 1752.5645 1754.4807"
         y="1719.3033"
         sodipodi:role="line"
         id="tspan10597">0.0</tspan>
    </text>
    <text
       style="font-variant:normal;font-weight:normal;font-size:8.75px;font-family:Garamond;-inkscape-font-specification:Garamond;writing-mode:lr-tb;fill:#7f7f7f;fill-opacity:1;fill-rule:nonzero;stroke:none"
       id="text10599"
       x="1748.4607"
       y="1675.9033">
      <tspan
         x="1748.4607 1752.5645 1754.4807"
         y="1675.9033"
         sodipodi:role="line"
         id="tspan10601">2.5</tspan>
    </text>
    <text
       style="font-variant:normal;font-weight:normal;font-size:8.75px;font-family:Garamond;-inkscape-font-specification:Garamond;writing-mode:lr-tb;fill:#7f7f7f;fill-opacity:1;fill-rule:nonzero;stroke:none"
       id="text10603"
       x="1748.4607"
       y="1632.4908">
      <tspan
         x="1748.4607 1752.5645 1754.4807"
         y="1632.4908"
         sodipodi:role="line"
         id="tspan10605">5.0</tspan>
    </text>
    <text
       style="font-variant:normal;font-weight:normal;font-size:8.75px;font-family:Garamond;-inkscape-font-specification:Garamond;writing-mode:lr-tb;fill:#7f7f7f;fill-opacity:1;fill-rule:nonzero;stroke:none"
       id="text10607"
       x="1748.4607"
       y="1589.0908">
      <tspan
         x="1748.4607 1752.5645 1754.4807"
         y="1589.0908"
         sodipodi:role="line"
         id="tspan10609">7.5</tspan>
    </text>
    <text
       style="font-variant:normal;font-weight:normal;font-size:8.75px;font-family:Garamond;-inkscape-font-specification:Garamond;writing-mode:lr-tb;fill:#7f7f7f;fill-opacity:1;fill-rule:nonzero;stroke:none"
       id="text10611"
       x="1744.3607"
       y="1545.6783">
      <tspan
         x="1744.3607 1748.4645 1752.5682 1754.4845"
         y="1545.6783"
         sodipodi:role="line"
         id="tspan10613">10.0</tspan>
    </text>
    <text
       style="font-variant:normal;font-weight:normal;font-size:8.75px;font-family:Garamond;-inkscape-font-specification:Garamond;writing-mode:lr-tb;fill:#7f7f7f;fill-opacity:1;fill-rule:nonzero;stroke:none"
       id="text10615"
       x="1744.3607"
       y="1502.2783">
      <tspan
         x="1744.3607 1748.4645 1752.5682 1754.4845"
         y="1502.2783"
         sodipodi:role="line"
         id="tspan10617">12.5</tspan>
    </text>
    <path
       d="m 1762.1357,1716.5533 5.3125,0"
       style="fill:none;stroke:#7f7f7f;stroke-width:1.32499993;stroke-linecap:butt;stroke-linejoin:round;stroke-miterlimit:10;stroke-dasharray:none;stroke-opacity:1"
       id="path10623"
       inkscape:connector-curvature="0" />
    <path
       d="m 1762.1357,1673.1408 5.3125,0"
       style="fill:none;stroke:#7f7f7f;stroke-width:1.32499993;stroke-linecap:butt;stroke-linejoin:round;stroke-miterlimit:10;stroke-dasharray:none;stroke-opacity:1"
       id="path10625"
       inkscape:connector-curvature="0" />
    <path
       d="m 1762.1357,1629.7408 5.3125,0"
       style="fill:none;stroke:#7f7f7f;stroke-width:1.32499993;stroke-linecap:butt;stroke-linejoin:round;stroke-miterlimit:10;stroke-dasharray:none;stroke-opacity:1"
       id="path10627"
       inkscape:connector-curvature="0" />
    <path
       d="m 1762.1357,1586.3408 5.3125,0"
       style="fill:none;stroke:#7f7f7f;stroke-width:1.32499993;stroke-linecap:butt;stroke-linejoin:round;stroke-miterlimit:10;stroke-dasharray:none;stroke-opacity:1"
       id="path10629"
       inkscape:connector-curvature="0" />
    <path
       d="m 1762.1357,1542.9283 5.3125,0"
       style="fill:none;stroke:#7f7f7f;stroke-width:1.32499993;stroke-linecap:butt;stroke-linejoin:round;stroke-miterlimit:10;stroke-dasharray:none;stroke-opacity:1"
       id="path10631"
       inkscape:connector-curvature="0" />
    <path
       d="m 1762.1357,1499.5283 5.3125,0"
       style="fill:none;stroke:#7f7f7f;stroke-width:1.32499993;stroke-linecap:butt;stroke-linejoin:round;stroke-miterlimit:10;stroke-dasharray:none;stroke-opacity:1"
       id="path10633"
       inkscape:connector-curvature="0" />
    <path
       d="m 1780.1607,1732.3533 0,-5.3125"
       style="fill:none;stroke:#7f7f7f;stroke-width:1.32499993;stroke-linecap:butt;stroke-linejoin:round;stroke-miterlimit:10;stroke-dasharray:none;stroke-opacity:1"
       id="path10651"
       inkscape:connector-curvature="0" />
    <path
       d="m 1874.3857,1732.3533 0,-5.3125"
       style="fill:none;stroke:#7f7f7f;stroke-width:1.32499993;stroke-linecap:butt;stroke-linejoin:round;stroke-miterlimit:10;stroke-dasharray:none;stroke-opacity:1"
       id="path10653"
       inkscape:connector-curvature="0" />
    <path
       d="m 1968.5982,1732.3533 0,-5.3125"
       style="fill:none;stroke:#7f7f7f;stroke-width:1.32499993;stroke-linecap:butt;stroke-linejoin:round;stroke-miterlimit:10;stroke-dasharray:none;stroke-opacity:1"
       id="path10655"
       inkscape:connector-curvature="0" />
    <text
       style="font-variant:normal;font-weight:normal;font-size:8.75px;font-family:Garamond;-inkscape-font-specification:Garamond;writing-mode:lr-tb;fill:#7f7f7f;fill-opacity:1;fill-rule:nonzero;stroke:none"
       id="text10661"
       x="1778.1107"
       y="1741.4033">
      <tspan
         x="1778.1107"
         y="1741.4033"
         id="tspan10663">0</tspan>
    </text>
    <text
       style="font-variant:normal;font-weight:normal;font-size:8.75px;font-family:Garamond;-inkscape-font-specification:Garamond;writing-mode:lr-tb;fill:#7f7f7f;fill-opacity:1;fill-rule:nonzero;stroke:none"
       id="text10665"
       x="1872.3357"
       y="1741.4033">
      <tspan
         x="1872.3357"
         y="1741.4033"
         id="tspan10667">5</tspan>
    </text>
    <text
       style="font-variant:normal;font-weight:normal;font-size:8.75px;font-family:Garamond;-inkscape-font-specification:Garamond;writing-mode:lr-tb;fill:#7f7f7f;fill-opacity:1;fill-rule:nonzero;stroke:none"
       id="text10669"
       x="1964.4982"
       y="1741.4033">
      <tspan
         x="1964.4982 1968.6019"
         y="1741.4033"
         sodipodi:role="line"
         id="tspan10671">10</tspan>
    </text>
    <path
       d="m 2064.3232,1732.3533 0,-5.3125"
       style="fill:none;stroke:#7f7f7f;stroke-width:1.32499993;stroke-linecap:butt;stroke-linejoin:round;stroke-miterlimit:10;stroke-dasharray:none;stroke-opacity:1"
       id="path10685"
       inkscape:connector-curvature="0" />
    <path
       d="m 2129.1732,1732.3533 0,-5.3125"
       style="fill:none;stroke:#7f7f7f;stroke-width:1.32499993;stroke-linecap:butt;stroke-linejoin:round;stroke-miterlimit:10;stroke-dasharray:none;stroke-opacity:1"
       id="path10687"
       inkscape:connector-curvature="0" />
    <path
       d="m 2194.0232,1732.3533 0,-5.3125"
       style="fill:none;stroke:#7f7f7f;stroke-width:1.32499993;stroke-linecap:butt;stroke-linejoin:round;stroke-miterlimit:10;stroke-dasharray:none;stroke-opacity:1"
       id="path10689"
       inkscape:connector-curvature="0" />
    <path
       d="m 2258.8607,1732.3533 0,-5.3125"
       style="fill:none;stroke:#7f7f7f;stroke-width:1.32499993;stroke-linecap:butt;stroke-linejoin:round;stroke-miterlimit:10;stroke-dasharray:none;stroke-opacity:1"
       id="path10691"
       inkscape:connector-curvature="0" />
    <path
       d="m 2323.7107,1732.3533 0,-5.3125"
       style="fill:none;stroke:#7f7f7f;stroke-width:1.32499993;stroke-linecap:butt;stroke-linejoin:round;stroke-miterlimit:10;stroke-dasharray:none;stroke-opacity:1"
       id="path10693"
       inkscape:connector-curvature="0" />
    <text
       style="font-variant:normal;font-weight:normal;font-size:8.75px;font-family:Garamond;-inkscape-font-specification:Garamond;writing-mode:lr-tb;fill:#7f7f7f;fill-opacity:1;fill-rule:nonzero;stroke:none"
       id="text10699"
       x="2062.2732"
       y="1741.4033">
      <tspan
         x="2062.2732"
         y="1741.4033"
         id="tspan10701">0</tspan>
    </text>
    <text
       style="font-variant:normal;font-weight:normal;font-size:8.75px;font-family:Garamond;-inkscape-font-specification:Garamond;writing-mode:lr-tb;fill:#7f7f7f;fill-opacity:1;fill-rule:nonzero;stroke:none"
       id="text10703"
       x="2125.0732"
       y="1741.4033">
      <tspan
         x="2125.0732 2129.177"
         y="1741.4033"
         sodipodi:role="line"
         id="tspan10705">10</tspan>
    </text>
    <text
       style="font-variant:normal;font-weight:normal;font-size:8.75px;font-family:Garamond;-inkscape-font-specification:Garamond;writing-mode:lr-tb;fill:#7f7f7f;fill-opacity:1;fill-rule:nonzero;stroke:none"
       id="text10707"
       x="2189.9106"
       y="1741.4033">
      <tspan
         x="2189.9106 2194.0144"
         y="1741.4033"
         sodipodi:role="line"
         id="tspan10709">20</tspan>
    </text>
    <text
       style="font-variant:normal;font-weight:normal;font-size:8.75px;font-family:Garamond;-inkscape-font-specification:Garamond;writing-mode:lr-tb;fill:#7f7f7f;fill-opacity:1;fill-rule:nonzero;stroke:none"
       id="text10711"
       x="2254.7607"
       y="1741.4033">
      <tspan
         x="2254.7607 2258.8645"
         y="1741.4033"
         sodipodi:role="line"
         id="tspan10713">30</tspan>
    </text>
    <text
       style="font-variant:normal;font-weight:normal;font-size:8.75px;font-family:Garamond;-inkscape-font-specification:Garamond;writing-mode:lr-tb;fill:#7f7f7f;fill-opacity:1;fill-rule:nonzero;stroke:none"
       id="text10715"
       x="2319.5981"
       y="1741.4033">
      <tspan
         x="2319.5981 2323.7019"
         y="1741.4033"
         sodipodi:role="line"
         id="tspan10717">40</tspan>
    </text>
    <text
       style="font-variant:normal;font-weight:normal;font-size:11.25px;font-family:Garamond;-inkscape-font-specification:Garamond;writing-mode:lr-tb;fill:#000000;fill-opacity:1;fill-rule:nonzero;stroke:none"
       id="text10729"
       x="1947.1232"
       y="1752.9783">
      <tspan
         x="1947.1232 1955.797 1958.3732 1964.1107 1969.8481 1974.4156 1976.9919 1979.8044 1983.787 1989.5244 1992.1007 1995.3857 1997.9619 2002.5294 2005.1057 2007.9182 2013.307 2016.5919 2022.3295 2026.0757 2030.6432 2035.8519 2040.5432 2043.3557 2046.6407 2055.8994 2058.7119 2064.4495 2068.0833 2070.8958 2075.9358 2078.512 2084.2495 2089.9871 2094.5544 2097.1306 2099.9431 2105.6807 2109.427 2115.1646 2120.7896 2126.302 2130.9932 2134.2783 2136.8545 2142.592 2148.3293"
         y="1752.9783"
         sodipodi:role="line"
         id="tspan10731">Global Initial Storage (% of global production)</tspan>
    </text>
    <text
       transform="matrix(0,-1,1,0,0,0)"
       style="font-variant:normal;font-weight:normal;font-size:11.25px;font-family:Garamond;-inkscape-font-specification:Garamond;writing-mode:lr-tb;fill:#000000;fill-opacity:1;fill-rule:nonzero;stroke:none"
       id="text10737"
       x="-1677.3282"
       y="1739.8607">
      <tspan
         x="-1677.3282 -1668.0696 -1665.2571 -1658.9233 -1655.177 -1649.4396 -1643.702 -1639.1345 -1633.3971 -1630.8208 -1628.2445 -1625.6683 -1622.3833 -1617.692 -1612.067 -1606.3296 -1602.6958 -1597.0708 -1590.7371 -1586.9908 -1584.4146 -1579.7233 -1575.0321 -1572.2196 -1564.7158 -1561.9033 -1556.6271 -1551.3508"
         y="1739.8607"
         sodipodi:role="line"
         id="tspan10739">% Probability of Price &gt; 150</tspan>
    </text>
    <path
       d="m 1856.8607,1786.1283 17.2875,0"
       style="fill:none;stroke:#1b9e77;stroke-width:2.66250014;stroke-linecap:butt;stroke-linejoin:round;stroke-miterlimit:10;stroke-dasharray:none;stroke-opacity:1"
       id="path10769"
       inkscape:connector-curvature="0" />
    <path
       d="m 1919.9732,1786.1283 17.275,0"
       style="fill:none;stroke:#d95f02;stroke-width:2.66250014;stroke-linecap:butt;stroke-linejoin:round;stroke-miterlimit:10;stroke-dasharray:none;stroke-opacity:1"
       id="path10781"
       inkscape:connector-curvature="0" />
    <path
       d="m 1996.1982,1786.1283 17.275,0"
       style="fill:none;stroke:#7570b3;stroke-width:2.66250014;stroke-linecap:butt;stroke-linejoin:round;stroke-miterlimit:10;stroke-dasharray:none;stroke-opacity:1"
       id="path10793"
       inkscape:connector-curvature="0" />
    <path
       d="m 2079.2982,1786.1283 17.2875,0"
       style="fill:none;stroke:#e7298a;stroke-width:2.66250014;stroke-linecap:butt;stroke-linejoin:round;stroke-miterlimit:10;stroke-dasharray:none;stroke-opacity:1"
       id="path10805"
       inkscape:connector-curvature="0" />
    <path
       d="m 2172.6982,1786.1283 17.275,0"
       style="fill:none;stroke:#66a61e;stroke-width:2.66250014;stroke-linecap:butt;stroke-linejoin:round;stroke-miterlimit:10;stroke-dasharray:none;stroke-opacity:1"
       id="path10817"
       inkscape:connector-curvature="0" />
    <text
       style="font-variant:normal;font-weight:normal;font-size:8.75px;font-family:Garamond;-inkscape-font-specification:Garamond;writing-mode:lr-tb;fill:#000000;fill-opacity:1;fill-rule:nonzero;stroke:none"
       id="text10823"
       x="1879.0107"
       y="1788.8783">
      <tspan
         x="1879.0107 1883.1145 1885.0306 1887.2181 1892.5995 1896.152 1899.3457 1902.9945 1904.9982 1907.002 1911.4645"
         y="1788.8783"
         sodipodi:role="line"
         id="tspan10825">0: Baseline</tspan>
    </text>
    <text
       style="font-variant:normal;font-weight:normal;font-size:8.75px;font-family:Garamond;-inkscape-font-specification:Garamond;writing-mode:lr-tb;fill:#000000;fill-opacity:1;fill-rule:nonzero;stroke:none"
       id="text10831"
       x="1942.1107"
       y="1788.8783">
      <tspan
         x="1942.1107 1946.2145 1948.1307 1950.3182 1955.2445 1958.1582 1960.162 1963.8107 1967.4595 1969.647 1973.2957 1976.9445 1978.9482 1980.9519 1982.9557 1987.4182"
         y="1788.8783"
         sodipodi:role="line"
         id="tspan10833">1: Price ceiling</tspan>
    </text>
    <text
       style="font-variant:normal;font-weight:normal;font-size:8.75px;font-family:Garamond;-inkscape-font-specification:Garamond;writing-mode:lr-tb;fill:#000000;fill-opacity:1;fill-rule:nonzero;stroke:none"
       id="text10839"
       x="2018.3357"
       y="1788.8783">
      <tspan
         x="2018.3357 2022.4395 2024.3557 2026.5432 2031.4695 2035.757 2040.2195 2042.2231 2044.2269 2047.8757 2050.0632 2053.2568 2055.812 2060.2744 2063.1882 2066.7407 2070.792"
         y="1788.8783"
         sodipodi:role="line"
         id="tspan10841">2: Public storage</tspan>
    </text>
    <text
       style="font-variant:normal;font-weight:normal;font-size:8.75px;font-family:Garamond;-inkscape-font-specification:Garamond;writing-mode:lr-tb;fill:#000000;fill-opacity:1;fill-rule:nonzero;stroke:none"
       id="text10847"
       x="2101.4358"
       y="1788.8783">
      <tspan
         x="2101.4358 2105.5396 2107.4558 2109.6433 2115.1995 2118.8481 2120.8521 2122.8557 2124.8594 2129.322 2133.2419 2135.4294 2141.2656 2143.4531 2146.647 2149.2019 2153.6646 2156.5781 2160.1306 2164.1819"
         y="1788.8783"
         sodipodi:role="line"
         id="tspan10849">3: Ceiling + storage</tspan>
    </text>
    <text
       style="font-variant:normal;font-weight:normal;font-size:8.75px;font-family:Garamond;-inkscape-font-specification:Garamond;writing-mode:lr-tb;fill:#000000;fill-opacity:1;fill-rule:nonzero;stroke:none"
       id="text10855"
       x="2194.8357"
       y="1788.8783">
      <tspan
         x="2194.8357 2198.9395 2200.8557 2203.0432 2209.6931 2211.697 2215.6169 2220.0793 2222.2668 2226.6418 2230.2908 2237.0369 2240.5894 2245.052"
         y="1788.8783"
         sodipodi:role="line"
         id="tspan10857">4: High demand</tspan>
    </text>
  </g>
</svg>
