<?xml version="1.0" encoding="UTF-8" standalone="no"?>
<!-- Created with Inkscape (http://www.inkscape.org/) -->

<svg
   xmlns:dc="http://purl.org/dc/elements/1.1/"
   xmlns:cc="http://creativecommons.org/ns#"
   xmlns:rdf="http://www.w3.org/1999/02/22-rdf-syntax-ns#"
   xmlns:svg="http://www.w3.org/2000/svg"
   xmlns="http://www.w3.org/2000/svg"
   xmlns:sodipodi="http://sodipodi.sourceforge.net/DTD/sodipodi-0.dtd"
   xmlns:inkscape="http://www.inkscape.org/namespaces/inkscape"
   width="149.93056mm"
   height="74.788887mm"
   viewBox="0 0 531.25001 264.99999"
   id="svg4326"
   version="1.1"
   inkscape:version="0.91 r13725"
   sodipodi:docname="fig-Food-Distribution.svg">
  <sodipodi:namedview
     id="base"
     pagecolor="#ffffff"
     bordercolor="#666666"
     borderopacity="1.0"
     inkscape:pageopacity="0.0"
     inkscape:pageshadow="2"
     inkscape:zoom="1.8756036"
     inkscape:cx="265.625"
     inkscape:cy="132.5"
     inkscape:document-units="px"
     inkscape:current-layer="layer1"
     showgrid="false"
     fit-margin-top="0"
     fit-margin-left="0"
     fit-margin-right="0"
     fit-margin-bottom="0"
     inkscape:window-width="1920"
     inkscape:window-height="1018"
     inkscape:window-x="892"
     inkscape:window-y="512"
     inkscape:window-maximized="1" />
  <defs
     id="defs4328">
    <clipPath
       clipPathUnits="userSpaceOnUse"
       id="clipPath4350">
      <path
         d="M 0,0 425,0 425,212 0,212 0,0 Z"
         id="path4352"
         inkscape:connector-curvature="0" />
    </clipPath>
    <clipPath
       clipPathUnits="userSpaceOnUse"
       id="clipPath4374">
      <path
         d="m 26.52,30.29 384.28,0 0,167.91 -384.28,0 0,-167.91 z"
         id="path4376"
         inkscape:connector-curvature="0" />
    </clipPath>
  </defs>
  <metadata
     id="metadata4331">
    <rdf:RDF>
      <cc:Work
         rdf:about="">
        <dc:format>image/svg+xml</dc:format>
        <dc:type
           rdf:resource="http://purl.org/dc/dcmitype/StillImage" />
        <dc:title></dc:title>
      </cc:Work>
    </rdf:RDF>
  </metadata>
  <g
     transform="translate(-109.375,-399.8622)"
     id="layer1"
     inkscape:groupmode="layer"
     inkscape:label="Layer 1">
    <g
       transform="matrix(1.25,0,0,-1.25,109.375,664.8622)"
       clip-path="url(#clipPath4350)"
       id="g4348">
      <g
         id="g4354" />
      <g
         id="g4356" />
      <g
         id="g4358" />
      <g
         id="g4360">
        <path
           inkscape:connector-curvature="0"
           id="path4362"
           style="fill:#f0f1eb;fill-opacity:0;fill-rule:nonzero;stroke:#f0f1eb;stroke-width:1.05999994;stroke-linecap:round;stroke-linejoin:round;stroke-miterlimit:10;stroke-dasharray:none;stroke-opacity:1"
           d="m 0,0 425.2,0 0,212.6 L 0,212.6 0,0 Z" />
      </g>
      <g
         id="g4364" />
      <g
         id="g4366" />
      <g
         id="g4368" />
      <g
         id="g4370">
        <g
           clip-path="url(#clipPath4374)"
           id="g4372">
          <path
             inkscape:connector-curvature="0"
             id="path4378"
             style="fill:#f0f1eb;fill-opacity:0;fill-rule:nonzero;stroke:none"
             d="m 26.52,30.29 384.28,0 0,167.91 -384.28,0 0,-167.91 z" />
          <path
             inkscape:connector-curvature="0"
             id="path4380"
             style="fill:#b22222;fill-opacity:0.50199998;fill-rule:nonzero;stroke:none"
             d="m 43.99,30.29 0.35,0.1 0.34,0.19 0.35,0.26 0.35,0.31 0.35,0.37 0.35,0.42 0.35,0.46 0.35,0.51 0.35,0.54 0.35,0.58 0.35,0.61 0.35,0.65 0.35,0.69 0.35,0.71 0.35,0.75 0.35,0.77 0.34,0.81 0.35,0.83 0.35,0.86 0.35,0.89 0.35,0.92 0.35,0.94 0.35,0.96 0.35,0.99 0.35,1.01 0.35,1.03 0.35,1.06 0.35,1.08 0.35,1.1 0.35,1.12 0.35,1.14 0.34,1.16 0.35,1.17 0.35,1.2 0.35,1.21 0.35,1.24 0.35,1.24 0.35,1.27 0.35,1.28 0.35,1.29 0.35,1.31 0.35,1.33 0.35,1.34 0.35,1.35 0.35,1.36 0.35,1.38 0.34,1.38 0.35,1.4 0.35,1.41 0.35,1.42 0.35,1.42 0.35,1.44 0.35,1.45 0.35,1.45 0.35,1.46 0.35,1.46 0.35,1.48 0.35,1.47 0.35,1.49 0.35,1.48 0.35,1.49 0.35,1.5 0.34,1.5 0.35,1.5 0.35,1.5 0.35,1.5 0.35,1.5 0.35,1.51 0.35,1.5 0.35,1.5 0.35,1.5 0.35,1.5 0.35,1.5 0.35,1.49 0.35,1.49 0.35,1.49 0.35,1.48 0.34,1.48 0.35,1.47 0.35,1.46 0.35,1.46 0.35,1.45 0.35,1.44 0.35,1.44 0.35,1.43 0.35,1.41 0.35,1.41 0.35,1.4 0.35,1.39 0.35,1.38 0.35,1.36 0.35,1.36 0.34,1.34 0.35,1.33 0.35,1.32 0.35,1.3 0.35,1.29 0.35,1.28 0.35,1.26 0.35,1.25 0.35,1.23 0.35,1.22 0.35,1.2 0.35,1.19 0.35,1.17 0.35,1.15 0.35,1.14 0.34,1.11 0.35,1.11 0.35,1.08 0.35,1.06 0.35,1.05 0.35,1.03 0.35,1.01 0.35,0.99 0.35,0.98 0.35,0.95 0.35,0.93 0.35,0.92 0.35,0.89 0.35,0.88 0.35,0.85 0.35,0.83 0.34,0.82 0.35,0.79 0.35,0.78 0.35,0.75 0.35,0.73 0.35,0.72 0.35,0.69 0.35,0.67 0.35,0.65 0.35,0.63 0.35,0.61 0.35,0.59 0.35,0.56 0.35,0.55 0.35,0.53 0.34,0.5 0.35,0.49 0.35,0.46 0.35,0.45 0.35,0.42 0.35,0.4 0.35,0.38 0.35,0.37 0.35,0.34 0.35,0.32 0.35,0.31 0.35,0.28 0.35,0.26 0.35,0.25 0.35,0.22 0.34,0.21 0.35,0.19 0.35,0.17 0.35,0.15 0.35,0.13 0.35,0.11 0.35,0.09 0.35,0.08 0.35,0.06 0.35,0.04 0.35,0.03 0.35,0 0.35,-0.01 0.35,-0.02 0.35,-0.05 0.34,-0.06 0.35,-0.07 0.35,-0.09 0.35,-0.11 0.35,-0.12 0.35,-0.14 0.35,-0.15 0.35,-0.17 0.35,-0.18 0.35,-0.2 0.35,-0.21 0.35,-0.23 0.35,-0.23 0.35,-0.25 0.35,-0.27 0.35,-0.28 0.34,-0.29 0.35,-0.3 0.35,-0.31 0.35,-0.33 0.35,-0.34 0.35,-0.35 0.35,-0.36 0.35,-0.37 0.35,-0.38 0.35,-0.39 0.35,-0.41 0.35,-0.41 0.35,-0.42 0.35,-0.43 0.35,-0.45 0.34,-0.45 0.35,-0.46 0.35,-0.46 0.35,-0.48 0.35,-0.49 0.35,-0.49 0.35,-0.5 0.35,-0.51 0.35,-0.51 0.35,-0.52 0.35,-0.53 0.35,-0.54 0.35,-0.54 0.35,-0.55 0.35,-0.55 0.34,-0.56 0.35,-0.57 0.35,-0.57 0.35,-0.58 0.35,-0.58 0.35,-0.59 0.35,-0.59 0.35,-0.59 0.35,-0.6 0.35,-0.61 0.35,-0.61 0.35,-0.61 0.35,-0.61 0.35,-0.62 0.35,-0.62 0.34,-0.63 0.35,-0.63 0.35,-0.63 0.35,-0.63 0.35,-0.64 0.35,-0.64 0.35,-0.64 0.35,-0.64 0.35,-0.65 0.35,-0.64 0.35,-0.65 0.35,-0.65 0.35,-0.65 0.35,-0.65 0.35,-0.66 0.35,-0.65 0.34,-0.66 0.35,-0.65 0.35,-0.66 0.35,-0.65 0,-122.14 -0.35,0 -0.35,0 -0.35,0 -0.34,0 -0.35,0 -0.35,0 -0.35,0 -0.35,0 -0.35,0 -0.35,0 -0.35,0 -0.35,0 -0.35,0 -0.35,0 -0.35,0 -0.35,0 -0.35,0 -0.35,0 -0.35,0 -0.34,0 -0.35,0 -0.35,0 -0.35,0 -0.35,0 -0.35,0 -0.35,0 -0.35,0 -0.35,0 -0.35,0 -0.35,0 -0.35,0 -0.35,0 -0.35,0 -0.35,0 -0.34,0 -0.35,0 -0.35,0 -0.35,0 -0.35,0 -0.35,0 -0.35,0 -0.35,0 -0.35,0 -0.35,0 -0.35,0 -0.35,0 -0.35,0 -0.35,0 -0.35,0 -0.34,0 -0.35,0 -0.35,0 -0.35,0 -0.35,0 -0.35,0 -0.35,0 -0.35,0 -0.35,0 -0.35,0 -0.35,0 -0.35,0 -0.35,0 -0.35,0 -0.35,0 -0.34,0 -0.35,0 -0.35,0 -0.35,0 -0.35,0 -0.35,0 -0.35,0 -0.35,0 -0.35,0 -0.35,0 -0.35,0 -0.35,0 -0.35,0 -0.35,0 -0.35,0 -0.35,0 -0.34,0 -0.35,0 -0.35,0 -0.35,0 -0.35,0 -0.35,0 -0.35,0 -0.35,0 -0.35,0 -0.35,0 -0.35,0 -0.35,0 -0.35,0 -0.35,0 -0.35,0 -0.34,0 -0.35,0 -0.35,0 -0.35,0 -0.35,0 -0.35,0 -0.35,0 -0.35,0 -0.35,0 -0.35,0 -0.35,0 -0.35,0 -0.35,0 -0.35,0 -0.35,0 -0.34,0 -0.35,0 -0.35,0 -0.35,0 -0.35,0 -0.35,0 -0.35,0 -0.35,0 -0.35,0 -0.35,0 -0.35,0 -0.35,0 -0.35,0 -0.35,0 -0.35,0 -0.34,0 -0.35,0 -0.35,0 -0.35,0 -0.35,0 -0.35,0 -0.35,0 -0.35,0 -0.35,0 -0.35,0 -0.35,0 -0.35,0 -0.35,0 -0.35,0 -0.35,0 -0.35,0 -0.34,0 -0.35,0 -0.35,0 -0.35,0 -0.35,0 -0.35,0 -0.35,0 -0.35,0 -0.35,0 -0.35,0 -0.35,0 -0.35,0 -0.35,0 -0.35,0 -0.35,0 -0.34,0 -0.35,0 -0.35,0 -0.35,0 -0.35,0 -0.35,0 -0.35,0 -0.35,0 -0.35,0 -0.35,0 -0.35,0 -0.35,0 -0.35,0 -0.35,0 -0.35,0 -0.34,0 -0.35,0 -0.35,0 -0.35,0 -0.35,0 -0.35,0 -0.35,0 -0.35,0 -0.35,0 -0.35,0 -0.35,0 -0.35,0 -0.35,0 -0.35,0 -0.35,0 -0.34,0 -0.35,0 -0.35,0 -0.35,0 -0.35,0 -0.35,0 -0.35,0 -0.35,0 -0.35,0 -0.35,0 -0.35,0 -0.35,0 -0.35,0 -0.35,0 -0.35,0 -0.35,0 -0.34,0 -0.35,0 -0.35,0 -0.35,0 -0.35,0 -0.35,0 -0.35,0 -0.35,0 -0.35,0 -0.35,0 -0.35,0 -0.35,0 -0.35,0 -0.35,0 -0.35,0 -0.34,0 -0.35,0 -0.35,0 -0.35,0 -0.35,0 -0.35,0 -0.35,0 -0.35,0 -0.35,0 -0.35,0 -0.35,0 -0.35,0 -0.35,0 -0.35,0 -0.35,0 -0.34,0 -0.35,0 -0.35,0 -0.35,0 -0.35,0 -0.35,0 -0.35,0 -0.35,0 -0.35,0 -0.35,0 -0.35,0 -0.35,0 -0.35,0 -0.35,0 -0.35,0 -0.34,0 -0.35,0 z" />
          <path
             inkscape:connector-curvature="0"
             id="path4382"
             style="fill:#f0f1eb;fill-opacity:0;fill-rule:nonzero;stroke:none"
             d="m 43.99,30.29 0.35,0.54 0.34,0.61 0.35,0.63 0.35,0.65 0.35,0.67 0.35,0.67 0.35,0.68 0.35,0.69 0.35,0.7 0.35,0.7 0.35,0.71 0.35,0.72 0.35,0.71 0.35,0.73 0.35,0.72 0.35,0.73 0.34,0.73 0.35,0.73 0.35,0.74 0.35,0.74 0.35,0.73 0.35,0.75 0.35,0.74 0.35,0.74 0.35,0.74 0.35,0.75 0.35,0.75 0.35,0.74 0.35,0.75 0.35,0.75 0.35,0.74 0.34,0.75 0.35,0.75 0.35,0.74 0.35,0.75 0.35,0.74 0.35,0.75 0.35,0.74 0.35,0.74 0.35,0.74 0.35,0.75 0.35,0.73 0.35,0.74 0.35,0.74 0.35,0.73 0.35,0.74 0.34,0.73 0.35,0.73 0.35,0.72 0.35,0.73 0.35,0.72 0.35,0.72 0.35,0.72 0.35,0.71 0.35,0.72 0.35,0.71 0.35,0.71 0.35,0.7 0.35,0.7 0.35,0.7 0.35,0.7 0.35,0.69 0.34,0.69 0.35,0.69 0.35,0.68 0.35,0.68 0.35,0.68 0.35,0.67 0.35,0.67 0.35,0.66 0.35,0.66 0.35,0.66 0.35,0.65 0.35,0.65 0.35,0.65 0.35,0.64 0.35,0.64 0.34,0.63 0.35,0.63 0.35,0.62 0.35,0.62 0.35,0.62 0.35,0.61 0.35,0.61 0.35,0.6 0.35,0.6 0.35,0.59 0.35,0.59 0.35,0.58 0.35,0.58 0.35,0.57 0.35,0.57 0.34,0.56 0.35,0.56 0.35,0.55 0.35,0.55 0.35,0.55 0.35,0.53 0.35,0.54 0.35,0.53 0.35,0.52 0.35,0.52 0.35,0.51 0.35,0.5 0.35,0.51 0.35,0.49 0.35,0.49 0.34,0.49 0.35,0.48 0.35,0.47 0.35,0.47 0.35,0.46 0.35,0.46 0.35,0.46 0.35,0.44 0.35,0.44 0.35,0.44 0.35,0.43 0.35,0.42 0.35,0.42 0.35,0.42 0.35,0.41 0.35,0.4 0.34,0.39 0.35,0.4 0.35,0.38 0.35,0.38 0.35,0.38 0.35,0.36 0.35,0.37 0.35,0.36 0.35,0.35 0.35,0.34 0.35,0.34 0.35,0.34 0.35,0.33 0.35,0.32 0.35,0.32 0.34,0.31 0.35,0.31 0.35,0.3 0.35,0.3 0.35,0.29 0.35,0.28 0.35,0.28 0.35,0.28 0.35,0.27 0.35,0.26 0.35,0.26 0.35,0.25 0.35,0.25 0.35,0.24 0.35,0.23 0.34,0.24 0.35,0.22 0.35,0.22 0.35,0.22 0.35,0.21 0.35,0.2 0.35,0.2 0.35,0.19 0.35,0.19 0.35,0.19 0.35,0.18 0.35,0.17 0.35,0.17 0.35,0.16 0.35,0.16 0.34,0.15 0.35,0.15 0.35,0.15 0.35,0.13 0.35,0.14 0.35,0.13 0.35,0.12 0.35,0.12 0.35,0.12 0.35,0.11 0.35,0.1 0.35,0.1 0.35,0.1 0.35,0.09 0.35,0.09 0.35,0.08 0.34,0.08 0.35,0.07 0.35,0.07 0.35,0.07 0.35,0.06 0.35,0.06 0.35,0.05 0.35,0.05 0.35,0.04 0.35,0.04 0.35,0.03 0.35,0.04 0.35,0.02 0.35,0.03 0.35,0.02 0.34,0.01 0.35,0.01 0.35,0.01 0.35,0 0.35,0 0.35,0 0.35,-0.01 0.35,-0.01 0.35,-0.01 0.35,-0.02 0.35,-0.02 0.35,-0.03 0.35,-0.03 0.35,-0.03 0.35,-0.04 0.34,-0.03 0.35,-0.05 0.35,-0.04 0.35,-0.05 0.35,-0.05 0.35,-0.06 0.35,-0.06 0.35,-0.06 0.35,-0.06 0.35,-0.07 0.35,-0.07 0.35,-0.08 0.35,-0.07 0.35,-0.08 0.35,-0.09 0.34,-0.08 0.35,-0.09 0.35,-0.09 0.35,-0.09 0.35,-0.1 0.35,-0.1 0.35,-0.1 0.35,-0.11 0.35,-0.1 0.35,-0.11 0.35,-0.11 0.35,-0.12 0.35,-0.11 0.35,-0.12 0.35,-0.12 0.35,-0.13 0.34,-0.12 0.35,-0.13 0.35,-0.13 0.35,-0.13 0,-90.25 -0.35,0 -0.35,0 -0.35,0 -0.34,0 -0.35,0 -0.35,0 -0.35,0 -0.35,0 -0.35,0 -0.35,0 -0.35,0 -0.35,0 -0.35,0 -0.35,0 -0.35,0 -0.35,0 -0.35,0 -0.35,0 -0.35,0 -0.34,0 -0.35,0 -0.35,0 -0.35,0 -0.35,0 -0.35,0 -0.35,0 -0.35,0 -0.35,0 -0.35,0 -0.35,0 -0.35,0 -0.35,0 -0.35,0 -0.35,0 -0.34,0 -0.35,0 -0.35,0 -0.35,0 -0.35,0 -0.35,0 -0.35,0 -0.35,0 -0.35,0 -0.35,0 -0.35,0 -0.35,0 -0.35,0 -0.35,0 -0.35,0 -0.34,0 -0.35,0 -0.35,0 -0.35,0 -0.35,0 -0.35,0 -0.35,0 -0.35,0 -0.35,0 -0.35,0 -0.35,0 -0.35,0 -0.35,0 -0.35,0 -0.35,0 -0.34,0 -0.35,0 -0.35,0 -0.35,0 -0.35,0 -0.35,0 -0.35,0 -0.35,0 -0.35,0 -0.35,0 -0.35,0 -0.35,0 -0.35,0 -0.35,0 -0.35,0 -0.35,0 -0.34,0 -0.35,0 -0.35,0 -0.35,0 -0.35,0 -0.35,0 -0.35,0 -0.35,0 -0.35,0 -0.35,0 -0.35,0 -0.35,0 -0.35,0 -0.35,0 -0.35,0 -0.34,0 -0.35,0 -0.35,0 -0.35,0 -0.35,0 -0.35,0 -0.35,0 -0.35,0 -0.35,0 -0.35,0 -0.35,0 -0.35,0 -0.35,0 -0.35,0 -0.35,0 -0.34,0 -0.35,0 -0.35,0 -0.35,0 -0.35,0 -0.35,0 -0.35,0 -0.35,0 -0.35,0 -0.35,0 -0.35,0 -0.35,0 -0.35,0 -0.35,0 -0.35,0 -0.34,0 -0.35,0 -0.35,0 -0.35,0 -0.35,0 -0.35,0 -0.35,0 -0.35,0 -0.35,0 -0.35,0 -0.35,0 -0.35,0 -0.35,0 -0.35,0 -0.35,0 -0.35,0 -0.34,0 -0.35,0 -0.35,0 -0.35,0 -0.35,0 -0.35,0 -0.35,0 -0.35,0 -0.35,0 -0.35,0 -0.35,0 -0.35,0 -0.35,0 -0.35,0 -0.35,0 -0.34,0 -0.35,0 -0.35,0 -0.35,0 -0.35,0 -0.35,0 -0.35,0 -0.35,0 -0.35,0 -0.35,0 -0.35,0 -0.35,0 -0.35,0 -0.35,0 -0.35,0 -0.34,0 -0.35,0 -0.35,0 -0.35,0 -0.35,0 -0.35,0 -0.35,0 -0.35,0 -0.35,0 -0.35,0 -0.35,0 -0.35,0 -0.35,0 -0.35,0 -0.35,0 -0.34,0 -0.35,0 -0.35,0 -0.35,0 -0.35,0 -0.35,0 -0.35,0 -0.35,0 -0.35,0 -0.35,0 -0.35,0 -0.35,0 -0.35,0 -0.35,0 -0.35,0 -0.35,0 -0.34,0 -0.35,0 -0.35,0 -0.35,0 -0.35,0 -0.35,0 -0.35,0 -0.35,0 -0.35,0 -0.35,0 -0.35,0 -0.35,0 -0.35,0 -0.35,0 -0.35,0 -0.34,0 -0.35,0 -0.35,0 -0.35,0 -0.35,0 -0.35,0 -0.35,0 -0.35,0 -0.35,0 -0.35,0 -0.35,0 -0.35,0 -0.35,0 -0.35,0 -0.35,0 -0.34,0 -0.35,0 -0.35,0 -0.35,0 -0.35,0 -0.35,0 -0.35,0 -0.35,0 -0.35,0 -0.35,0 -0.35,0 -0.35,0 -0.35,0 -0.35,0 -0.35,0 -0.34,0 -0.35,0 z" />
          <path
             inkscape:connector-curvature="0"
             id="path4384"
             style="fill:#104e8b;fill-opacity:0.50199998;fill-rule:nonzero;stroke:none"
             d="m 43.99,30.29 0.35,0.54 0.34,0.61 0.35,0.63 0.35,0.65 0.35,0.67 0.35,0.67 0.35,0.68 0.35,0.69 0.35,0.7 0.35,0.7 0.35,0.71 0.35,0.72 0.35,0.71 0.35,0.73 0.35,0.72 0.35,0.73 0.34,0.73 0.35,0.73 0.35,0.74 0.35,0.74 0.35,0.73 0.35,0.75 0.35,0.74 0.35,0.74 0.35,0.74 0.35,0.75 0.35,0.75 0.35,0.74 0.35,0.75 0.35,0.75 0.35,0.74 0.34,0.75 0.35,0.75 0.35,0.74 0.35,0.75 0.35,0.74 0.35,0.75 0.35,0.74 0.35,0.74 0.35,0.74 0.35,0.75 0.35,0.73 0.35,0.74 0.35,0.74 0.35,0.73 0.35,0.74 0.34,0.73 0.35,0.73 0.35,0.72 0.35,0.73 0.35,0.72 0.35,0.72 0.35,0.72 0.35,0.71 0.35,0.72 0.35,0.71 0.35,0.71 0.35,0.7 0.35,0.7 0.35,0.7 0.35,0.7 0.35,0.69 0.34,0.69 0.35,0.69 0.35,0.68 0.35,0.68 0.35,0.68 0.35,0.67 0.35,0.67 0.35,0.66 0.35,0.66 0.35,0.66 0.35,0.65 0.35,0.65 0.35,0.65 0.35,0.64 0.35,0.64 0.34,0.63 0.35,0.63 0.35,0.62 0.35,0.62 0.35,0.62 0.35,0.61 0.35,0.61 0.35,0.6 0.35,0.6 0.35,0.59 0.35,0.59 0.35,0.58 0.35,0.58 0.35,0.57 0.35,0.57 0.34,0.56 0.35,0.56 0.35,0.55 0.35,0.55 0.35,0.55 0.35,0.53 0.35,0.54 0.35,0.53 0.35,0.52 0.35,0.52 0.35,0.51 0.35,0.5 0.35,0.51 0.35,0.49 0.35,0.49 0.34,0.49 0.35,0.48 0.35,0.47 0.35,0.47 0.35,0.46 0.35,0.46 0.35,0.46 0.35,0.44 0.35,0.44 0.35,0.44 0.35,0.43 0.35,0.42 0.35,0.42 0.35,0.42 0.35,0.41 0.35,0.4 0.34,0.39 0.35,0.4 0.35,0.38 0.35,0.38 0.35,0.38 0.35,0.36 0.35,0.37 0.35,0.36 0.35,0.35 0.35,0.34 0.35,0.34 0.35,0.34 0.35,0.33 0.35,0.32 0.35,0.32 0.34,0.31 0.35,0.31 0.35,0.3 0.35,0.3 0.35,0.29 0.35,0.28 0.35,0.28 0.35,0.28 0.35,0.27 0.35,0.26 0.35,0.26 0.35,0.25 0.35,0.25 0.35,0.24 0.35,0.23 0.34,0.24 0.35,0.22 0.35,0.22 0.35,0.22 0.35,0.21 0.35,0.2 0.35,0.2 0.35,0.19 0.35,0.19 0.35,0.19 0.35,0.18 0.35,0.17 0.35,0.17 0.35,0.16 0.35,0.16 0.34,0.15 0.35,0.15 0.35,0.15 0.35,0.13 0.35,0.14 0.35,0.13 0.35,0.12 0.35,0.12 0.35,0.12 0.35,0.11 0.35,0.1 0.35,0.1 0.35,0.1 0.35,0.09 0.35,0.09 0.35,0.08 0.34,0.08 0.35,0.07 0.35,0.07 0.35,0.07 0.35,0.06 0.35,0.06 0.35,0.05 0.35,0.05 0.35,0.04 0.35,0.04 0.35,0.03 0.35,0.04 0.35,0.02 0.35,0.03 0.35,0.02 0.34,0.01 0.35,0.01 0.35,0.01 0.35,0 0.35,0 0.35,0 0.35,-0.01 0.35,-0.01 0.35,-0.01 0.35,-0.02 0.35,-0.02 0.35,-0.03 0.35,-0.03 0.35,-0.03 0.35,-0.04 0.34,-0.03 0.35,-0.05 0.35,-0.04 0.35,-0.05 0.35,-0.05 0.35,-0.06 0.35,-0.06 0.35,-0.06 0.35,-0.06 0.35,-0.07 0.35,-0.07 0.35,-0.08 0.35,-0.07 0.35,-0.08 0.35,-0.09 0.34,-0.08 0.35,-0.09 0.35,-0.09 0.35,-0.09 0.35,-0.1 0.35,-0.1 0.35,-0.1 0.35,-0.11 0.35,-0.1 0.35,-0.11 0.35,-0.11 0.35,-0.12 0.35,-0.11 0.35,-0.12 0.35,-0.12 0.35,-0.13 0.34,-0.12 0.35,-0.13 0.35,-0.13 0.35,-0.13 0,-90.25 -0.35,0 -0.35,0 -0.35,0 -0.34,0 -0.35,0 -0.35,0 -0.35,0 -0.35,0 -0.35,0 -0.35,0 -0.35,0 -0.35,0 -0.35,0 -0.35,0 -0.35,0 -0.35,0 -0.35,0 -0.35,0 -0.35,0 -0.34,0 -0.35,0 -0.35,0 -0.35,0 -0.35,0 -0.35,0 -0.35,0 -0.35,0 -0.35,0 -0.35,0 -0.35,0 -0.35,0 -0.35,0 -0.35,0 -0.35,0 -0.34,0 -0.35,0 -0.35,0 -0.35,0 -0.35,0 -0.35,0 -0.35,0 -0.35,0 -0.35,0 -0.35,0 -0.35,0 -0.35,0 -0.35,0 -0.35,0 -0.35,0 -0.34,0 -0.35,0 -0.35,0 -0.35,0 -0.35,0 -0.35,0 -0.35,0 -0.35,0 -0.35,0 -0.35,0 -0.35,0 -0.35,0 -0.35,0 -0.35,0 -0.35,0 -0.34,0 -0.35,0 -0.35,0 -0.35,0 -0.35,0 -0.35,0 -0.35,0 -0.35,0 -0.35,0 -0.35,0 -0.35,0 -0.35,0 -0.35,0 -0.35,0 -0.35,0 -0.35,0 -0.34,0 -0.35,0 -0.35,0 -0.35,0 -0.35,0 -0.35,0 -0.35,0 -0.35,0 -0.35,0 -0.35,0 -0.35,0 -0.35,0 -0.35,0 -0.35,0 -0.35,0 -0.34,0 -0.35,0 -0.35,0 -0.35,0 -0.35,0 -0.35,0 -0.35,0 -0.35,0 -0.35,0 -0.35,0 -0.35,0 -0.35,0 -0.35,0 -0.35,0 -0.35,0 -0.34,0 -0.35,0 -0.35,0 -0.35,0 -0.35,0 -0.35,0 -0.35,0 -0.35,0 -0.35,0 -0.35,0 -0.35,0 -0.35,0 -0.35,0 -0.35,0 -0.35,0 -0.34,0 -0.35,0 -0.35,0 -0.35,0 -0.35,0 -0.35,0 -0.35,0 -0.35,0 -0.35,0 -0.35,0 -0.35,0 -0.35,0 -0.35,0 -0.35,0 -0.35,0 -0.35,0 -0.34,0 -0.35,0 -0.35,0 -0.35,0 -0.35,0 -0.35,0 -0.35,0 -0.35,0 -0.35,0 -0.35,0 -0.35,0 -0.35,0 -0.35,0 -0.35,0 -0.35,0 -0.34,0 -0.35,0 -0.35,0 -0.35,0 -0.35,0 -0.35,0 -0.35,0 -0.35,0 -0.35,0 -0.35,0 -0.35,0 -0.35,0 -0.35,0 -0.35,0 -0.35,0 -0.34,0 -0.35,0 -0.35,0 -0.35,0 -0.35,0 -0.35,0 -0.35,0 -0.35,0 -0.35,0 -0.35,0 -0.35,0 -0.35,0 -0.35,0 -0.35,0 -0.35,0 -0.34,0 -0.35,0 -0.35,0 -0.35,0 -0.35,0 -0.35,0 -0.35,0 -0.35,0 -0.35,0 -0.35,0 -0.35,0 -0.35,0 -0.35,0 -0.35,0 -0.35,0 -0.35,0 -0.34,0 -0.35,0 -0.35,0 -0.35,0 -0.35,0 -0.35,0 -0.35,0 -0.35,0 -0.35,0 -0.35,0 -0.35,0 -0.35,0 -0.35,0 -0.35,0 -0.35,0 -0.34,0 -0.35,0 -0.35,0 -0.35,0 -0.35,0 -0.35,0 -0.35,0 -0.35,0 -0.35,0 -0.35,0 -0.35,0 -0.35,0 -0.35,0 -0.35,0 -0.35,0 -0.34,0 -0.35,0 -0.35,0 -0.35,0 -0.35,0 -0.35,0 -0.35,0 -0.35,0 -0.35,0 -0.35,0 -0.35,0 -0.35,0 -0.35,0 -0.35,0 -0.35,0 -0.34,0 -0.35,0 z" />
          <path
             inkscape:connector-curvature="0"
             id="path4386"
             style="fill:none;stroke:#104e8b;stroke-width:3.19000006;stroke-linecap:butt;stroke-linejoin:round;stroke-miterlimit:1;stroke-dasharray:none;stroke-opacity:1"
             d="m 43.99,30.29 0.35,0.54 0.34,0.61 0.35,0.63 0.35,0.65 0.35,0.67 0.35,0.67 0.35,0.68 0.35,0.69 0.35,0.7 0.35,0.7 0.35,0.71 0.35,0.72 0.35,0.71 0.35,0.73 0.35,0.72 0.35,0.73 0.34,0.73 0.35,0.73 0.35,0.74 0.35,0.74 0.35,0.73 0.35,0.75 0.35,0.74 0.35,0.74 0.35,0.74 0.35,0.75 0.35,0.75 0.35,0.74 0.35,0.75 0.35,0.75 0.35,0.74 0.34,0.75 0.35,0.75 0.35,0.74 0.35,0.75 0.35,0.74 0.35,0.75 0.35,0.74 0.35,0.74 0.35,0.74 0.35,0.75 0.35,0.73 0.35,0.74 0.35,0.74 0.35,0.73 0.35,0.74 0.34,0.73 0.35,0.73 0.35,0.72 0.35,0.73 0.35,0.72 0.35,0.72 0.35,0.72 0.35,0.71 0.35,0.72 0.35,0.71 0.35,0.71 0.35,0.7 0.35,0.7 0.35,0.7 0.35,0.7 0.35,0.69 0.34,0.69 0.35,0.69 0.35,0.68 0.35,0.68 0.35,0.68 0.35,0.67 0.35,0.67 0.35,0.66 0.35,0.66 0.35,0.66 0.35,0.65 0.35,0.65 0.35,0.65 0.35,0.64 0.35,0.64 0.34,0.63 0.35,0.63 0.35,0.62 0.35,0.62 0.35,0.62 0.35,0.61 0.35,0.61 0.35,0.6 0.35,0.6 0.35,0.59 0.35,0.59 0.35,0.58 0.35,0.58 0.35,0.57 0.35,0.57 0.34,0.56 0.35,0.56 0.35,0.55 0.35,0.55 0.35,0.55 0.35,0.53 0.35,0.54 0.35,0.53 0.35,0.52 0.35,0.52 0.35,0.51 0.35,0.5 0.35,0.51 0.35,0.49 0.35,0.49 0.34,0.49 0.35,0.48 0.35,0.47 0.35,0.47 0.35,0.46 0.35,0.46 0.35,0.46 0.35,0.44 0.35,0.44 0.35,0.44 0.35,0.43 0.35,0.42 0.35,0.42 0.35,0.42 0.35,0.41 0.35,0.4 0.34,0.39 0.35,0.4 0.35,0.38 0.35,0.38 0.35,0.38 0.35,0.36 0.35,0.37 0.35,0.36 0.35,0.35 0.35,0.34 0.35,0.34 0.35,0.34 0.35,0.33 0.35,0.32 0.35,0.32 0.34,0.31 0.35,0.31 0.35,0.3 0.35,0.3 0.35,0.29 0.35,0.28 0.35,0.28 0.35,0.28 0.35,0.27 0.35,0.26 0.35,0.26 0.35,0.25 0.35,0.25 0.35,0.24 0.35,0.23 0.34,0.24 0.35,0.22 0.35,0.22 0.35,0.22 0.35,0.21 0.35,0.2 0.35,0.2 0.35,0.19 0.35,0.19 0.35,0.19 0.35,0.18 0.35,0.17 0.35,0.17 0.35,0.16 0.35,0.16 0.34,0.15 0.35,0.15 0.35,0.15 0.35,0.13 0.35,0.14 0.35,0.13 0.35,0.12 0.35,0.12 0.35,0.12 0.35,0.11 0.35,0.1 0.35,0.1 0.35,0.1 0.35,0.09 0.35,0.09 0.35,0.08 0.34,0.08 0.35,0.07 0.35,0.07 0.35,0.07 0.35,0.06 0.35,0.06 0.35,0.05 0.35,0.05 0.35,0.04 0.35,0.04 0.35,0.03 0.35,0.04 0.35,0.02 0.35,0.03 0.35,0.02 0.34,0.01 0.35,0.01 0.35,0.01 0.35,0 0.35,0 0.35,0 0.35,-0.01 0.35,-0.01 0.35,-0.01 0.35,-0.02 0.35,-0.02 0.35,-0.03 0.35,-0.03 0.35,-0.03 0.35,-0.04 0.34,-0.03 0.35,-0.05 0.35,-0.04 0.35,-0.05 0.35,-0.05 0.35,-0.06 0.35,-0.06 0.35,-0.06 0.35,-0.06 0.35,-0.07 0.35,-0.07 0.35,-0.08 0.35,-0.07 0.35,-0.08 0.35,-0.09 0.34,-0.08 0.35,-0.09 0.35,-0.09 0.35,-0.09 0.35,-0.1 0.35,-0.1 0.35,-0.1 0.35,-0.11 0.35,-0.1 0.35,-0.11 0.35,-0.11 0.35,-0.12 0.35,-0.11 0.35,-0.12 0.35,-0.12 0.35,-0.13 0.34,-0.12 0.35,-0.13 0.35,-0.13 0.35,-0.13 0.35,-0.14 0.35,-0.13 0.35,-0.14 0.35,-0.14 0.35,-0.15 0.35,-0.14 0.35,-0.15 0.35,-0.15 0.35,-0.15 0.35,-0.15 0.35,-0.15 0.34,-0.16 0.35,-0.16 0.35,-0.15 0.35,-0.17 0.35,-0.16 0.35,-0.16 0.35,-0.17 0.35,-0.17 0.35,-0.16 0.35,-0.18 0.35,-0.17 0.35,-0.17 0.35,-0.18 0.35,-0.17 0.35,-0.18 0.34,-0.18 0.35,-0.18 0.35,-0.18 0.35,-0.18 0.35,-0.19 0.35,-0.18 0.35,-0.19 0.35,-0.19 0.35,-0.19 0.35,-0.19 0.35,-0.19 0.35,-0.19 0.35,-0.19 0.35,-0.2 0.35,-0.19 0.34,-0.2 0.35,-0.19 0.35,-0.2 0.35,-0.2 0.35,-0.2 0.35,-0.2 0.35,-0.2 0.35,-0.2 0.35,-0.21 0.35,-0.2 0.35,-0.21 0.35,-0.2 0.35,-0.21 0.35,-0.2 0.35,-0.21 0.35,-0.21 0.34,-0.21 0.35,-0.21 0.35,-0.2 0.35,-0.21 0.35,-0.22 0.35,-0.21 0.35,-0.21 0.35,-0.21 0.35,-0.21 0.35,-0.22 0.35,-0.21 0.35,-0.21 0.35,-0.22 0.35,-0.21 0.35,-0.22 0.34,-0.21 0.35,-0.22 0.35,-0.22 0.35,-0.21 0.35,-0.22 0.35,-0.21 0.35,-0.22 0.35,-0.22 0.35,-0.22 0.35,-0.21 0.35,-0.22 0.35,-0.22 0.35,-0.22 0.35,-0.22 0.35,-0.22 0.34,-0.21 0.35,-0.22 0.35,-0.22 0.35,-0.22 0.35,-0.22 0.35,-0.22 0.35,-0.22 0.35,-0.22 0.35,-0.22 0.35,-0.22 0.35,-0.21 0.35,-0.22 0.35,-0.22 0.35,-0.22 0.35,-0.22 0.34,-0.22 0.35,-0.22 0.35,-0.22 0.35,-0.22 0.35,-0.21 0.35,-0.22 0.35,-0.22 0.35,-0.22 0.35,-0.22 0.35,-0.21 0.35,-0.22 0.35,-0.22 0.35,-0.22 0.35,-0.21 0.35,-0.22 0.35,-0.22 0.34,-0.21 0.35,-0.22 0.35,-0.22 0.35,-0.21 0.35,-0.22 0.35,-0.21 0.35,-0.22 0.35,-0.21 0.35,-0.22 0.35,-0.21 0.35,-0.21 0.35,-0.22 0.35,-0.21 0.35,-0.21 0.35,-0.22 0.34,-0.21 0.35,-0.21 0.35,-0.21 0.35,-0.21 0.35,-0.21 0.35,-0.21 0.35,-0.21 0.35,-0.21 0.35,-0.21 0.35,-0.21 0.35,-0.21 0.35,-0.21 0.35,-0.21 0.35,-0.2 0.35,-0.21 0.34,-0.21 0.35,-0.2 0.35,-0.21 0.35,-0.2 0.35,-0.21 0.35,-0.2 0.35,-0.21 0.35,-0.2 0.35,-0.2 0.35,-0.2 0.35,-0.21 0.35,-0.2 0.35,-0.2 0.35,-0.2 0.35,-0.2 0.34,-0.2 0.35,-0.2 0.35,-0.2 0.35,-0.2 0.35,-0.19 0.35,-0.2 0.35,-0.2 0.35,-0.19 0.35,-0.2 0.35,-0.19 0.35,-0.2 0.35,-0.19 0.35,-0.2 0.35,-0.19 0.35,-0.19 0.34,-0.19 0.35,-0.2 0.35,-0.19 0.35,-0.19 0.35,-0.19 0.35,-0.19 0.35,-0.19 0.35,-0.18 0.35,-0.19 0.35,-0.19 0.35,-0.19 0.35,-0.18 0.35,-0.19 0.35,-0.18 0.35,-0.19 0.35,-0.18 0.34,-0.19 0.35,-0.18 0.35,-0.18 0.35,-0.18 0.35,-0.19 0.35,-0.18 0.35,-0.18 0.35,-0.18 0.35,-0.18 0.35,-0.17 0.35,-0.18 0.35,-0.18 0.35,-0.18 0.35,-0.17 0.35,-0.18 0.34,-0.17 0.35,-0.18 0.35,-0.17 0.35,-0.18 0.35,-0.17 0.35,-0.17 0.35,-0.17 0.35,-0.17 0.35,-0.18 0.35,-0.17 0.35,-0.17 0.35,-0.16 0.35,-0.17 0.35,-0.17 0.35,-0.17 0.34,-0.17 0.35,-0.16 0.35,-0.17 0.35,-0.16 0.35,-0.17 0.35,-0.16 0.35,-0.16 0.35,-0.17 0.35,-0.16 0.35,-0.16 0.35,-0.16 0.35,-0.16 0.35,-0.16 0.35,-0.16 0.35,-0.16 0.34,-0.16 0.35,-0.16 0.35,-0.16 0.35,-0.15 0.35,-0.16 0.35,-0.16 0.35,-0.15 0.35,-0.16 0.35,-0.15 0.35,-0.15 0.35,-0.16 0.35,-0.15 0.35,-0.15 0.35,-0.15 0.35,-0.15 0.35,-0.15 0.34,-0.15 0.35,-0.15 0.35,-0.15 0.35,-0.15 0.35,-0.14 0.35,-0.15 0.35,-0.15 0.35,-0.14 0.35,-0.15 0.35,-0.14 0.35,-0.15 0.35,-0.14 0.35,-0.15 0.35,-0.14 0.35,-0.14 0.34,-0.14 0.35,-0.14 0.35,-0.14 0.35,-0.14 0.35,-0.14 0.35,-0.14 0.35,-0.14 0.35,-0.14 0.35,-0.14 0.35,-0.13 0.35,-0.14 0.35,-0.14 0.35,-0.13 0.35,-0.14 0.35,-0.13 0.34,-0.13 0.35,-0.14 0.35,-0.13 0.35,-0.13 0.35,-0.13 0.35,-0.14 0.35,-0.13 0.35,-0.13 0.35,-0.13 0.35,-0.13 0.35,-0.12 0.35,-0.13 0.35,-0.13 0.35,-0.13 0.35,-0.12 0.34,-0.13 0.35,-0.13 0.35,-0.12 0.35,-0.13 0.35,-0.12 0.35,-0.13 0.35,-0.12 0.35,-0.12 0.35,-0.12 0.35,-0.13 0.35,-0.12 0.35,-0.12 0.35,-0.12 0.35,-0.12 0.35,-0.12 0.35,-0.12 0.34,-0.12 0.35,-0.12 0.35,-0.11 0.35,-0.12 0.35,-0.12 0.35,-0.11 0.35,-0.12 0.35,-0.12 0.35,-0.11 0.35,-0.12 0.35,-0.11 0.35,-0.11 0.35,-0.12 0.35,-0.11 0.35,-0.11 0.34,-0.11 0.35,-0.11 0.35,-0.12 0.35,-0.11 0.35,-0.11 0.35,-0.11 0.35,-0.11 0.35,-0.1 0.35,-0.11 0.35,-0.11 0.35,-0.11 0.35,-0.1 0.35,-0.11 0.35,-0.11 0.35,-0.1 0.34,-0.11 0.35,-0.1 0.35,-0.11 0.35,-0.1 0.35,-0.11 0.35,-0.1 0.35,-0.1 0.35,-0.11 0.35,-0.1 0.35,-0.1 0.35,-0.1 0.35,-0.1 0.35,-0.1 0.35,-0.1 0.35,-0.1 0.34,-0.1 0.35,-0.1 0.35,-0.1 0.35,-0.1 0.35,-0.09 0.35,-0.1 0.35,-0.1 0.35,-0.09 0.35,-0.1 0.35,-0.1 0.35,-0.09 0.35,-0.1 0.35,-0.09 0.35,-0.1 0.35,-0.09 0.35,-0.09 0.34,-0.1 0.35,-0.09 0.35,-0.09 0.35,-0.09 0.35,-0.1 0.35,-0.09 0.35,-0.09 0.35,-0.09 0.35,-0.09 0.35,-0.09 0.35,-0.09 0.35,-0.09 0.35,-0.08 0.35,-0.09 0.35,-0.09 0.34,-0.09 0.35,-0.09 0.35,-0.08 0.35,-0.09 0.35,-0.09 0.35,-0.08 0.35,-0.09 0.35,-0.08 0.35,-0.09 0.35,-0.08 0.35,-0.09 0.35,-0.08 0.35,-0.08 0.35,-0.09 0.35,-0.08 0.34,-0.08 0.35,-0.08 0.35,-0.09 0.35,-0.08 0.35,-0.08 0.35,-0.08 0.35,-0.08 0.35,-0.08 0.35,-0.08 0.35,-0.08 0.35,-0.08 0.35,-0.08 0.35,-0.08 0.35,-0.08 0.35,-0.07 0.34,-0.08 0.35,-0.08 0.35,-0.08 0.35,-0.07 0.35,-0.08 0.35,-0.08 0.35,-0.07 0.35,-0.08 0.35,-0.07 0.35,-0.08 0.35,-0.07 0.35,-0.08 0.35,-0.07 0.35,-0.07 0.35,-0.08 0.35,-0.07 0.34,-0.07 0.35,-0.08 0.35,-0.07 0.35,-0.07 0.35,-0.07 0.35,-0.07 0.35,-0.07 0.35,-0.08 0.35,-0.07 0.35,-0.07 0.35,-0.07 0.35,-0.07 0.35,-0.07 0.35,-0.06 0.35,-0.07 0.34,-0.07 0.35,-0.07 0.35,-0.07 0.35,-0.07 0.35,-0.06 0.35,-0.07 0.35,-0.07 0.35,-0.06 0.35,-0.07 0.35,-0.07 0.35,-0.06 0.35,-0.07 0.35,-0.06 0.35,-0.07 0.35,-0.06 0.34,-0.07 0.35,-0.06 0.35,-0.07 0.35,-0.06 0.35,-0.07 0.35,-0.06 0.35,-0.06 0.35,-0.06 0.35,-0.07 0.35,-0.06 0.35,-0.06 0.35,-0.06 0.35,-0.07 0.35,-0.06 0.35,-0.06 0.34,-0.06 0.35,-0.06 0.35,-0.06 0.35,-0.06 0.35,-0.06 0.35,-0.06 0.35,-0.06 0.35,-0.06 0.35,-0.06 0.35,-0.06 0.35,-0.06 0.35,-0.05 0.35,-0.06 0.35,-0.06 0.35,-0.06 0.35,-0.05 0.34,-0.06 0.35,-0.06 0.35,-0.06 0.35,-0.05 0.35,-0.06 0.35,-0.05 0.35,-0.06 0.35,-0.06 0.35,-0.05 0.35,-0.06 0.35,-0.05 0.35,-0.06 0.35,-0.05 0.35,-0.06 0.35,-0.05 0.34,-0.05 0.35,-0.06 0.35,-0.05 0.35,-0.05 0.35,-0.06 0.35,-0.05 0.35,-0.05 0.35,-0.06 0.35,-0.05 0.35,-0.05 0.35,-0.05 0.35,-0.05 0.35,-0.05 0.35,-0.06 0.35,-0.05 0.34,-0.05 0.35,-0.05 0.35,-0.05 0.35,-0.05 0.35,-0.05 0.35,-0.05 0.35,-0.05 0.35,-0.05 0.35,-0.05 0.35,-0.05 0.35,-0.05 0.35,-0.04 0.35,-0.05 0.35,-0.05 0.35,-0.05 0.34,-0.05 0.35,-0.05 0.35,-0.04 0.35,-0.05 0.35,-0.05 0.35,-0.04 0.35,-0.05 0.35,-0.05 0.35,-0.05 0.35,-0.04 0.35,-0.05 0.35,-0.04 0.35,-0.05 0.35,-0.05 0.35,-0.04 0.34,-0.05 0.35,-0.04 0.35,-0.05 0.35,-0.04 0.35,-0.05 0.35,-0.04 0.35,-0.04 0.35,-0.05 0.35,-0.04 0.35,-0.05 0.35,-0.04 0.35,-0.04 0.35,-0.05 0.35,-0.04 0.35,-0.04 0.35,-0.05 0.34,-0.04 0.35,-0.04 0.35,-0.04 0.35,-0.05 0.35,-0.04 0.35,-0.04 0.35,-0.04 0.35,-0.04 0.35,-0.04 0.35,-0.05 0.35,-0.04 0.35,-0.04 0.35,-0.04 0.35,-0.04 0.35,-0.04 0.34,-0.04 0.35,-0.04 0.35,-0.04 0.35,-0.04 0.35,-0.04 0.35,-0.04 0.35,-0.04 0.35,-0.04 0.35,-0.04 0.35,-0.04 0.35,-0.03 0.35,-0.04 0.35,-0.04 0.35,-0.04 0.35,-0.04 0.34,-0.04 0.35,-0.03 0.35,-0.04 0.35,-0.04 0.35,-0.04 0.35,-0.03 0.35,-0.04 0.35,-0.04 0.35,-0.04 0.35,-0.03 0.35,-0.04 0.35,-0.04 0.35,-0.03 0.35,-0.04 0.35,-0.03 0.34,-0.04 0.35,-0.04 0.35,-0.03 0.35,-0.04 0.35,-0.03 0.35,-0.04 0.35,-0.03 0.35,-0.04 0.35,-0.03 0.35,-0.04 0.35,-0.03 0.35,-0.04 0.35,-0.03 0.35,-0.04 0.35,-0.03 0.35,-0.04 0.34,-0.03 0.35,-0.03 0.35,-0.04 0.35,-0.03 0.35,-0.03 0.35,-0.04 0.35,-0.03 0.35,-0.03 0.35,-0.04 0.35,-0.03 0.35,-0.03 0.35,-0.04 0.35,-0.03 0.35,-0.03 0.35,-0.03 0.34,-0.03 0.35,-0.04 0.35,-0.03 0.35,-0.03 0.35,-0.03 0.35,-0.03 0.35,-0.04 0.35,-0.03 0.35,-0.03 0.35,-0.03 0.35,-0.03 0.35,-0.03 0.35,-0.03 0.35,-0.03 0.35,-0.03 0.34,-0.03 0.35,-0.03 0.35,-0.03 0.35,-0.03 0.35,-0.03 0.35,-0.03 0.35,-0.03 0.35,-0.03 0.35,-0.03 0.35,-0.03 0.35,-0.03 0.35,-0.03 0.35,-0.03 0.35,-0.03 0.35,-0.03 0.34,-0.03 0.35,-0.03 0.35,-0.02 0.35,-0.03 0.35,-0.03 0.35,-0.03 0.35,-0.03 0.35,-0.03 0.35,-0.02 0.35,-0.03 0.35,-0.03 0.35,-0.03 0.35,-0.03 0.35,-0.02 0.35,-0.03 0.35,-0.03 0.34,-0.03 0.35,-0.02 0.35,-0.03 0.35,-0.03 0.35,-0.02 0.35,-0.03 0.35,-0.03 0.35,-0.02 0.35,-0.03 0.35,-0.03 0.35,-0.02 0.35,-0.03 0.35,-0.03 0.35,-0.02 0.35,-0.03 0.34,-0.02 0.35,-0.03 0.35,-0.02 0.35,-0.03 0.35,-0.03 0.35,-0.02 0.35,-0.03 0.35,-0.02 0.35,-0.03 0.35,-0.02 0.35,-0.03 0.35,-0.02 0.35,-0.03 0.35,-0.02 0.35,-0.03 0.34,-0.02 0.35,-0.03 0.35,-0.02 0.35,-0.02 0.35,-0.03 0.35,-0.02 0.35,-0.03 0.35,-0.02 0.35,-0.02 0.35,-0.03 0.35,-0.02 0.35,-0.03 0.35,-0.02 0.35,-0.02 0.35,-0.03 0.34,-0.02 0.35,-0.02 0.35,-0.03 0.35,-0.02 0.35,-0.02 0.35,-0.02 0.35,-0.03 0.35,-0.02 0.35,-0.02" />
          <path
             inkscape:connector-curvature="0"
             id="path4388"
             style="fill:none;stroke:#b22222;stroke-width:3.19000006;stroke-linecap:butt;stroke-linejoin:round;stroke-miterlimit:1;stroke-dasharray:none;stroke-opacity:1"
             d="m 43.99,30.29 0.35,0.1 0.34,0.19 0.35,0.26 0.35,0.31 0.35,0.37 0.35,0.42 0.35,0.46 0.35,0.51 0.35,0.54 0.35,0.58 0.35,0.61 0.35,0.65 0.35,0.69 0.35,0.71 0.35,0.75 0.35,0.77 0.34,0.81 0.35,0.83 0.35,0.86 0.35,0.89 0.35,0.92 0.35,0.94 0.35,0.96 0.35,0.99 0.35,1.01 0.35,1.03 0.35,1.06 0.35,1.08 0.35,1.1 0.35,1.12 0.35,1.14 0.34,1.16 0.35,1.17 0.35,1.2 0.35,1.21 0.35,1.24 0.35,1.24 0.35,1.27 0.35,1.28 0.35,1.29 0.35,1.31 0.35,1.33 0.35,1.34 0.35,1.35 0.35,1.36 0.35,1.38 0.34,1.38 0.35,1.4 0.35,1.41 0.35,1.42 0.35,1.42 0.35,1.44 0.35,1.45 0.35,1.45 0.35,1.46 0.35,1.46 0.35,1.48 0.35,1.47 0.35,1.49 0.35,1.48 0.35,1.49 0.35,1.5 0.34,1.5 0.35,1.5 0.35,1.5 0.35,1.5 0.35,1.5 0.35,1.51 0.35,1.5 0.35,1.5 0.35,1.5 0.35,1.5 0.35,1.5 0.35,1.49 0.35,1.49 0.35,1.49 0.35,1.48 0.34,1.48 0.35,1.47 0.35,1.46 0.35,1.46 0.35,1.45 0.35,1.44 0.35,1.44 0.35,1.43 0.35,1.41 0.35,1.41 0.35,1.4 0.35,1.39 0.35,1.38 0.35,1.36 0.35,1.36 0.34,1.34 0.35,1.33 0.35,1.32 0.35,1.3 0.35,1.29 0.35,1.28 0.35,1.26 0.35,1.25 0.35,1.23 0.35,1.22 0.35,1.2 0.35,1.19 0.35,1.17 0.35,1.15 0.35,1.14 0.34,1.11 0.35,1.11 0.35,1.08 0.35,1.06 0.35,1.05 0.35,1.03 0.35,1.01 0.35,0.99 0.35,0.98 0.35,0.95 0.35,0.93 0.35,0.92 0.35,0.89 0.35,0.88 0.35,0.85 0.35,0.83 0.34,0.82 0.35,0.79 0.35,0.78 0.35,0.75 0.35,0.73 0.35,0.72 0.35,0.69 0.35,0.67 0.35,0.65 0.35,0.63 0.35,0.61 0.35,0.59 0.35,0.56 0.35,0.55 0.35,0.53 0.34,0.5 0.35,0.49 0.35,0.46 0.35,0.45 0.35,0.42 0.35,0.4 0.35,0.38 0.35,0.37 0.35,0.34 0.35,0.32 0.35,0.31 0.35,0.28 0.35,0.26 0.35,0.25 0.35,0.22 0.34,0.21 0.35,0.19 0.35,0.17 0.35,0.15 0.35,0.13 0.35,0.11 0.35,0.09 0.35,0.08 0.35,0.06 0.35,0.04 0.35,0.03 0.35,0 0.35,-0.01 0.35,-0.02 0.35,-0.05 0.34,-0.06 0.35,-0.07 0.35,-0.09 0.35,-0.11 0.35,-0.12 0.35,-0.14 0.35,-0.15 0.35,-0.17 0.35,-0.18 0.35,-0.2 0.35,-0.21 0.35,-0.23 0.35,-0.23 0.35,-0.25 0.35,-0.27 0.35,-0.28 0.34,-0.29 0.35,-0.3 0.35,-0.31 0.35,-0.33 0.35,-0.34 0.35,-0.35 0.35,-0.36 0.35,-0.37 0.35,-0.38 0.35,-0.39 0.35,-0.41 0.35,-0.41 0.35,-0.42 0.35,-0.43 0.35,-0.45 0.34,-0.45 0.35,-0.46 0.35,-0.46 0.35,-0.48 0.35,-0.49 0.35,-0.49 0.35,-0.5 0.35,-0.51 0.35,-0.51 0.35,-0.52 0.35,-0.53 0.35,-0.54 0.35,-0.54 0.35,-0.55 0.35,-0.55 0.34,-0.56 0.35,-0.57 0.35,-0.57 0.35,-0.58 0.35,-0.58 0.35,-0.59 0.35,-0.59 0.35,-0.59 0.35,-0.6 0.35,-0.61 0.35,-0.61 0.35,-0.61 0.35,-0.61 0.35,-0.62 0.35,-0.62 0.34,-0.63 0.35,-0.63 0.35,-0.63 0.35,-0.63 0.35,-0.64 0.35,-0.64 0.35,-0.64 0.35,-0.64 0.35,-0.65 0.35,-0.64 0.35,-0.65 0.35,-0.65 0.35,-0.65 0.35,-0.65 0.35,-0.66 0.35,-0.65 0.34,-0.66 0.35,-0.65 0.35,-0.66 0.35,-0.65 0.35,-0.66 0.35,-0.66 0.35,-0.66 0.35,-0.66 0.35,-0.65 0.35,-0.66 0.35,-0.66 0.35,-0.65 0.35,-0.66 0.35,-0.66 0.35,-0.65 0.34,-0.66 0.35,-0.65 0.35,-0.65 0.35,-0.66 0.35,-0.65 0.35,-0.65 0.35,-0.65 0.35,-0.64 0.35,-0.65 0.35,-0.65 0.35,-0.64 0.35,-0.64 0.35,-0.64 0.35,-0.64 0.35,-0.64 0.34,-0.63 0.35,-0.64 0.35,-0.63 0.35,-0.63 0.35,-0.63 0.35,-0.62 0.35,-0.63 0.35,-0.62 0.35,-0.62 0.35,-0.61 0.35,-0.62 0.35,-0.61 0.35,-0.61 0.35,-0.61 0.35,-0.61 0.34,-0.6 0.35,-0.6 0.35,-0.6 0.35,-0.59 0.35,-0.6 0.35,-0.59 0.35,-0.58 0.35,-0.59 0.35,-0.58 0.35,-0.58 0.35,-0.58 0.35,-0.58 0.35,-0.57 0.35,-0.57 0.35,-0.56 0.35,-0.57 0.34,-0.56 0.35,-0.55 0.35,-0.56 0.35,-0.55 0.35,-0.55 0.35,-0.55 0.35,-0.54 0.35,-0.54 0.35,-0.54 0.35,-0.54 0.35,-0.53 0.35,-0.53 0.35,-0.52 0.35,-0.53 0.35,-0.52 0.34,-0.51 0.35,-0.52 0.35,-0.51 0.35,-0.51 0.35,-0.5 0.35,-0.51 0.35,-0.49 0.35,-0.5 0.35,-0.49 0.35,-0.5 0.35,-0.48 0.35,-0.49 0.35,-0.48 0.35,-0.48 0.35,-0.47 0.34,-0.48 0.35,-0.47 0.35,-0.46 0.35,-0.47 0.35,-0.46 0.35,-0.46 0.35,-0.45 0.35,-0.46 0.35,-0.45 0.35,-0.44 0.35,-0.45 0.35,-0.44 0.35,-0.44 0.35,-0.43 0.35,-0.43 0.34,-0.43 0.35,-0.43 0.35,-0.42 0.35,-0.43 0.35,-0.41 0.35,-0.42 0.35,-0.41 0.35,-0.41 0.35,-0.41 0.35,-0.4 0.35,-0.41 0.35,-0.39 0.35,-0.4 0.35,-0.39 0.35,-0.4 0.35,-0.38 0.34,-0.39 0.35,-0.38 0.35,-0.38 0.35,-0.38 0.35,-0.38 0.35,-0.37 0.35,-0.37 0.35,-0.37 0.35,-0.36 0.35,-0.36 0.35,-0.36 0.35,-0.36 0.35,-0.35 0.35,-0.36 0.35,-0.35 0.34,-0.34 0.35,-0.35 0.35,-0.34 0.35,-0.34 0.35,-0.34 0.35,-0.33 0.35,-0.34 0.35,-0.33 0.35,-0.32 0.35,-0.33 0.35,-0.32 0.35,-0.33 0.35,-0.31 0.35,-0.32 0.35,-0.31 0.34,-0.32 0.35,-0.31 0.35,-0.3 0.35,-0.31 0.35,-0.3 0.35,-0.3 0.35,-0.3 0.35,-0.3 0.35,-0.29 0.35,-0.3 0.35,-0.29 0.35,-0.28 0.35,-0.29 0.35,-0.28 0.35,-0.29 0.34,-0.28 0.35,-0.27 0.35,-0.28 0.35,-0.27 0.35,-0.28 0.35,-0.27 0.35,-0.26 0.35,-0.27 0.35,-0.26 0.35,-0.27 0.35,-0.26 0.35,-0.25 0.35,-0.26 0.35,-0.26 0.35,-0.25 0.34,-0.25 0.35,-0.25 0.35,-0.25 0.35,-0.24 0.35,-0.24 0.35,-0.25 0.35,-0.24 0.35,-0.23 0.35,-0.24 0.35,-0.24 0.35,-0.23 0.35,-0.23 0.35,-0.23 0.35,-0.23 0.35,-0.23 0.35,-0.22 0.34,-0.22 0.35,-0.22 0.35,-0.22 0.35,-0.22 0.35,-0.22 0.35,-0.21 0.35,-0.22 0.35,-0.21 0.35,-0.21 0.35,-0.21 0.35,-0.21 0.35,-0.2 0.35,-0.21 0.35,-0.2 0.35,-0.2 0.34,-0.2 0.35,-0.2 0.35,-0.2 0.35,-0.19 0.35,-0.2 0.35,-0.19 0.35,-0.19 0.35,-0.19 0.35,-0.19 0.35,-0.19 0.35,-0.18 0.35,-0.19 0.35,-0.18 0.35,-0.18 0.35,-0.18 0.34,-0.18 0.35,-0.18 0.35,-0.18 0.35,-0.17 0.35,-0.18 0.35,-0.17 0.35,-0.17 0.35,-0.17 0.35,-0.17 0.35,-0.17 0.35,-0.17 0.35,-0.16 0.35,-0.17 0.35,-0.16 0.35,-0.16 0.34,-0.16 0.35,-0.16 0.35,-0.16 0.35,-0.16 0.35,-0.15 0.35,-0.16 0.35,-0.15 0.35,-0.16 0.35,-0.15 0.35,-0.15 0.35,-0.15 0.35,-0.15 0.35,-0.14 0.35,-0.15 0.35,-0.15 0.35,-0.14 0.34,-0.14 0.35,-0.15 0.35,-0.14 0.35,-0.14 0.35,-0.14 0.35,-0.14 0.35,-0.13 0.35,-0.14 0.35,-0.13 0.35,-0.14 0.35,-0.13 0.35,-0.14 0.35,-0.13 0.35,-0.13 0.35,-0.13 0.34,-0.13 0.35,-0.12 0.35,-0.13 0.35,-0.13 0.35,-0.12 0.35,-0.13 0.35,-0.12 0.35,-0.12 0.35,-0.13 0.35,-0.12 0.35,-0.12 0.35,-0.12 0.35,-0.11 0.35,-0.12 0.35,-0.12 0.34,-0.12 0.35,-0.11 0.35,-0.11 0.35,-0.12 0.35,-0.11 0.35,-0.11 0.35,-0.11 0.35,-0.12 0.35,-0.1 0.35,-0.11 0.35,-0.11 0.35,-0.11 0.35,-0.11 0.35,-0.1 0.35,-0.11 0.34,-0.1 0.35,-0.11 0.35,-0.1 0.35,-0.1 0.35,-0.1 0.35,-0.1 0.35,-0.1 0.35,-0.1 0.35,-0.1 0.35,-0.1 0.35,-0.1 0.35,-0.1 0.35,-0.09 0.35,-0.1 0.35,-0.09 0.35,-0.1 0.34,-0.09 0.35,-0.09 0.35,-0.1 0.35,-0.09 0.35,-0.09 0.35,-0.09 0.35,-0.09 0.35,-0.09 0.35,-0.09 0.35,-0.09 0.35,-0.08 0.35,-0.09 0.35,-0.09 0.35,-0.08 0.35,-0.09 0.34,-0.08 0.35,-0.09 0.35,-0.08 0.35,-0.08 0.35,-0.09 0.35,-0.08 0.35,-0.08 0.35,-0.08 0.35,-0.08 0.35,-0.08 0.35,-0.08 0.35,-0.08 0.35,-0.08 0.35,-0.07 0.35,-0.08 0.34,-0.08 0.35,-0.07 0.35,-0.08 0.35,-0.07 0.35,-0.08 0.35,-0.07 0.35,-0.08 0.35,-0.07 0.35,-0.07 0.35,-0.08 0.35,-0.07 0.35,-0.07 0.35,-0.07 0.35,-0.07 0.35,-0.07 0.34,-0.07 0.35,-0.07 0.35,-0.07 0.35,-0.07 0.35,-0.06 0.35,-0.07 0.35,-0.07 0.35,-0.06 0.35,-0.07 0.35,-0.06 0.35,-0.07 0.35,-0.06 0.35,-0.07 0.35,-0.06 0.35,-0.07 0.35,-0.06 0.34,-0.06 0.35,-0.06 0.35,-0.07 0.35,-0.06 0.35,-0.06 0.35,-0.06 0.35,-0.06 0.35,-0.06 0.35,-0.06 0.35,-0.06 0.35,-0.06 0.35,-0.06 0.35,-0.05 0.35,-0.06 0.35,-0.06 0.34,-0.06 0.35,-0.05 0.35,-0.06 0.35,-0.05 0.35,-0.06 0.35,-0.05 0.35,-0.06 0.35,-0.05 0.35,-0.06 0.35,-0.05 0.35,-0.06 0.35,-0.05 0.35,-0.05 0.35,-0.05 0.35,-0.06 0.34,-0.05 0.35,-0.05 0.35,-0.05 0.35,-0.05 0.35,-0.05 0.35,-0.05 0.35,-0.05 0.35,-0.05 0.35,-0.05 0.35,-0.05 0.35,-0.05 0.35,-0.05 0.35,-0.05 0.35,-0.04 0.35,-0.05 0.34,-0.05 0.35,-0.05 0.35,-0.04 0.35,-0.05 0.35,-0.04 0.35,-0.05 0.35,-0.05 0.35,-0.04 0.35,-0.05 0.35,-0.04 0.35,-0.05 0.35,-0.04 0.35,-0.04 0.35,-0.05 0.35,-0.04 0.35,-0.04 0.34,-0.05 0.35,-0.04 0.35,-0.04 0.35,-0.04 0.35,-0.05 0.35,-0.04 0.35,-0.04 0.35,-0.04 0.35,-0.04 0.35,-0.04 0.35,-0.04 0.35,-0.04 0.35,-0.04 0.35,-0.04 0.35,-0.04 0.34,-0.04 0.35,-0.04 0.35,-0.04 0.35,-0.04 0.35,-0.04 0.35,-0.03 0.35,-0.04 0.35,-0.04 0.35,-0.04 0.35,-0.03 0.35,-0.04 0.35,-0.04 0.35,-0.03 0.35,-0.04 0.35,-0.04 0.34,-0.03 0.35,-0.04 0.35,-0.03 0.35,-0.04 0.35,-0.03 0.35,-0.04 0.35,-0.03 0.35,-0.04 0.35,-0.03 0.35,-0.04 0.35,-0.03 0.35,-0.03 0.35,-0.04 0.35,-0.03 0.35,-0.03 0.34,-0.04 0.35,-0.03 0.35,-0.03 0.35,-0.04 0.35,-0.03 0.35,-0.03 0.35,-0.03 0.35,-0.03 0.35,-0.03 0.35,-0.04 0.35,-0.03 0.35,-0.03 0.35,-0.03 0.35,-0.03 0.35,-0.03 0.35,-0.03 0.34,-0.03 0.35,-0.03 0.35,-0.03 0.35,-0.03 0.35,-0.03 0.35,-0.03 0.35,-0.03 0.35,-0.03 0.35,-0.02 0.35,-0.03 0.35,-0.03 0.35,-0.03 0.35,-0.03 0.35,-0.03 0.35,-0.02 0.34,-0.03 0.35,-0.03 0.35,-0.03 0.35,-0.02 0.35,-0.03 0.35,-0.03 0.35,-0.02 0.35,-0.03 0.35,-0.03 0.35,-0.02 0.35,-0.03 0.35,-0.03 0.35,-0.02 0.35,-0.03 0.35,-0.02 0.34,-0.03 0.35,-0.02 0.35,-0.03 0.35,-0.02 0.35,-0.03 0.35,-0.02 0.35,-0.03 0.35,-0.02 0.35,-0.03 0.35,-0.02 0.35,-0.03 0.35,-0.02 0.35,-0.02 0.35,-0.03 0.35,-0.02 0.34,-0.02 0.35,-0.03 0.35,-0.02 0.35,-0.02 0.35,-0.03 0.35,-0.02 0.35,-0.02 0.35,-0.02 0.35,-0.03 0.35,-0.02 0.35,-0.02 0.35,-0.02 0.35,-0.03 0.35,-0.02 0.35,-0.02 0.34,-0.02 0.35,-0.02 0.35,-0.02 0.35,-0.03 0.35,-0.02 0.35,-0.02 0.35,-0.02 0.35,-0.02 0.35,-0.02 0.35,-0.02 0.35,-0.02 0.35,-0.02 0.35,-0.02 0.35,-0.02 0.35,-0.02 0.35,-0.02 0.34,-0.02 0.35,-0.02 0.35,-0.02 0.35,-0.02 0.35,-0.02 0.35,-0.02 0.35,-0.02 0.35,-0.02 0.35,-0.02 0.35,-0.02 0.35,-0.02 0.35,-0.02 0.35,-0.01 0.35,-0.02 0.35,-0.02 0.34,-0.02 0.35,-0.02 0.35,-0.02 0.35,-0.01 0.35,-0.02 0.35,-0.02 0.35,-0.02 0.35,-0.02 0.35,-0.01 0.35,-0.02 0.35,-0.02 0.35,-0.02 0.35,-0.01 0.35,-0.02 0.35,-0.02 0.34,-0.01 0.35,-0.02 0.35,-0.02 0.35,-0.02 0.35,-0.01 0.35,-0.02 0.35,-0.02 0.35,-0.01 0.35,-0.02 0.35,-0.01 0.35,-0.02 0.35,-0.02 0.35,-0.01 0.35,-0.02 0.35,-0.01 0.34,-0.02 0.35,-0.02 0.35,-0.01 0.35,-0.02 0.35,-0.01 0.35,-0.02 0.35,-0.01 0.35,-0.02 0.35,-0.01 0.35,-0.02 0.35,-0.01 0.35,-0.02 0.35,-0.01 0.35,-0.02 0.35,-0.01 0.35,-0.02 0.34,-0.01 0.35,-0.02 0.35,-0.01 0.35,-0.02 0.35,-0.01 0.35,-0.02 0.35,-0.01 0.35,-0.01 0.35,-0.02 0.35,-0.01 0.35,-0.02 0.35,-0.01 0.35,-0.01 0.35,-0.02 0.35,-0.01 0.34,-0.01 0.35,-0.02 0.35,-0.01 0.35,-0.01 0.35,-0.02 0.35,-0.01 0.35,-0.01 0.35,-0.02 0.35,-0.01 0.35,-0.01 0.35,-0.02 0.35,-0.01 0.35,-0.01 0.35,-0.01 0.35,-0.02 0.34,-0.01 0.35,-0.01 0.35,-0.02 0.35,-0.01 0.35,-0.01 0.35,-0.01 0.35,-0.01 0.35,-0.02 0.35,-0.01 0.35,-0.01 0.35,-0.01 0.35,-0.02 0.35,-0.01 0.35,-0.01 0.35,-0.01 0.34,-0.01 0.35,-0.01 0.35,-0.02 0.35,-0.01 0.35,-0.01 0.35,-0.01 0.35,-0.01 0.35,-0.01 0.35,-0.02 0.35,-0.01 0.35,-0.01 0.35,-0.01 0.35,-0.01 0.35,-0.01 0.35,-0.01 0.35,-0.01 0.34,-0.01 0.35,-0.01 0.35,-0.02 0.35,-0.01 0.35,-0.01 0.35,-0.01 0.35,-0.01 0.35,-0.01 0.35,-0.01 0.35,-0.01 0.35,-0.01 0.35,-0.01 0.35,-0.01 0.35,-0.01 0.35,-0.01 0.34,-0.01 0.35,-0.01 0.35,-0.01 0.35,-0.01 0.35,-0.01 0.35,-0.01 0.35,-0.01 0.35,-0.01 0.35,-0.01 0.35,-0.01 0.35,-0.01 0.35,-0.01 0.35,-0.01 0.35,-0.01 0.35,-0.01 0.34,-0.01 0.35,-0.01 0.35,-0.01 0.35,-0.01 0.35,-0.01 0.35,-0.01 0.35,-0.01 0.35,0 0.35,-0.01 0.35,-0.01 0.35,-0.01 0.35,-0.01 0.35,-0.01 0.35,-0.01 0.35,-0.01 0.34,-0.01 0.35,-0.01 0.35,0 0.35,-0.01 0.35,-0.01 0.35,-0.01 0.35,-0.01 0.35,-0.01 0.35,-0.01" />
          <text
             id="text4390"
             style="font-variant:normal;font-weight:normal;font-size:20px;font-family:Helvetica;-inkscape-font-specification:Helvetica;writing-mode:lr-tb;fill:#000000;fill-opacity:1;fill-rule:nonzero;stroke:none"
             transform="matrix(1,0,0,-1,89.72,69.89)">
            <tspan
               id="tspan4392"
               y="0"
               x="0">A</tspan>
          </text>
          <text
             id="text4394"
             style="font-variant:normal;font-weight:normal;font-size:20px;font-family:Helvetica;-inkscape-font-specification:Helvetica;writing-mode:lr-tb;fill:#000000;fill-opacity:1;fill-rule:nonzero;stroke:none"
             transform="matrix(1,0,0,-1,89.72,151.04)">
            <tspan
               id="tspan4396"
               y="0"
               x="0">B</tspan>
          </text>
          <text
             id="text4398"
             style="font-variant:normal;font-weight:normal;font-size:9px;font-family:Helvetica;-inkscape-font-specification:Helvetica;writing-mode:lr-tb;fill:#104e8b;fill-opacity:1;fill-rule:nonzero;stroke:none"
             transform="matrix(1,0,0,-1,233.79,67.45)">
            <tspan
               id="tspan4400"
               sodipodi:role="line"
               y="0"
               x="0 2.5020001 5.4089999 10.413 15.417 20.421 25.424999 27.423 29.421 31.923 36.926998 41.931 45.063 47.061001 52.064999">tranquil period</tspan>
          </text>
          <text
             id="text4402"
             style="font-variant:normal;font-weight:normal;font-size:9px;font-family:Helvetica;-inkscape-font-specification:Helvetica;writing-mode:lr-tb;fill:#b22222;fill-opacity:1;fill-rule:nonzero;stroke:none"
             transform="matrix(1,0,0,-1,242.14,32.72)">
            <tspan
               id="tspan4404"
               sodipodi:role="line"
               y="0"
               x="0 2.2320001 7.2360001 12.24 17.243999 19.746 24.246 27.378 29.375999 33.875999 35.874001">food crisis</tspan>
          </text>
          <path
             inkscape:connector-curvature="0"
             id="path4406"
             style="fill:none;stroke:#000000;stroke-width:2.13000011;stroke-linecap:butt;stroke-linejoin:round;stroke-miterlimit:10;stroke-dasharray:14.88, 6.38;stroke-dashoffset:0;stroke-opacity:1"
             d="m 131.32,30.29 0,167.91" />
          <text
             id="text4408"
             style="font-variant:normal;font-weight:normal;font-size:9px;font-family:Helvetica;-inkscape-font-specification:Helvetica;writing-mode:lr-tb;fill:#000000;fill-opacity:1;fill-rule:nonzero;stroke:none"
             transform="matrix(0,1,1,0,128.43,36.19)">
            <tspan
               id="tspan4410"
               sodipodi:role="line"
               y="0"
               x="0 6.4980001 11.502 16.506001 21.51 26.514">Hunger</tspan>
          </text>
          <text
             id="text4412"
             style="font-variant:normal;font-weight:normal;font-size:9px;font-family:Helvetica;-inkscape-font-specification:Helvetica;writing-mode:lr-tb;fill:#000000;fill-opacity:1;fill-rule:nonzero;stroke:none"
             transform="matrix(0,1,1,0,140.68,37.7)">
            <tspan
               id="tspan4414"
               sodipodi:role="line"
               y="0"
               x="0 2.5020001 7.506 10.503 15.507 20.007 25.011 30.014999 32.013">threshold</tspan>
          </text>
          <text
             id="text4416"
             style="font-variant:normal;font-weight:normal;font-size:9px;font-family:Helvetica;-inkscape-font-specification:Helvetica;writing-mode:lr-tb;fill:#b22222;fill-opacity:0.50199998;fill-rule:nonzero;stroke:none"
             transform="matrix(1,0,0,-1,223.02,170.98)">
            <tspan
               id="tspan4418"
               sodipodi:role="line"
               y="0"
               x="0 6.0029998 8.5050001 13.761 16.263 21.267 26.271 31.275 36.278999 39.546001 44.046001 46.548 51.551998 56.556 61.056 66.059998 71.064003 75.564003 80.568001 83.07 88.073997 90.575996 93.078003 98.082001 100.08 105.084 110.088 112.59 117.594 120.726 122.724 127.224">B = hungry because of high price</tspan>
          </text>
          <text
             id="text4420"
             style="font-variant:normal;font-weight:normal;font-size:9px;font-family:Helvetica;-inkscape-font-specification:Helvetica;writing-mode:lr-tb;fill:#104e8b;fill-opacity:0.50199998;fill-rule:nonzero;stroke:none"
             transform="matrix(1,0,0,-1,223.02,154.99)">
            <tspan
               id="tspan4422"
               sodipodi:role="line"
               y="0"
               x="0 6.0029998 8.5050001 13.761 16.263 21.267 26.271 31.275 36.278999 39.546001 44.046001 46.548 51.282001 55.556999 60.561001 65.565002 68.067001 74.565002 79.569 84.572998 89.577003 92.079002 94.310997 99.315002 104.319 109.323 111.825 113.823 118.323 120.825 125.325 130.32899 135.33299 140.33701">A = hungry even when food is cheap</tspan>
          </text>
        </g>
      </g>
      <g
         id="g4424" />
      <g
         id="g4426">
        <path
           inkscape:connector-curvature="0"
           id="path4428"
           style="fill:none;stroke:#000000;stroke-width:1.05999994;stroke-linecap:butt;stroke-linejoin:round;stroke-miterlimit:10;stroke-dasharray:none;stroke-opacity:1"
           d="m 26.52,30.29 0,167.91" />
      </g>
      <g
         id="g4430" />
      <g
         id="g4432" />
      <g
         id="g4434" />
      <g
         id="g4436" />
      <g
         id="g4438" />
      <g
         id="g4440" />
      <g
         id="g4442" />
      <g
         id="g4444">
        <path
           inkscape:connector-curvature="0"
           id="path4446"
           style="fill:none;stroke:#000000;stroke-width:1.05999994;stroke-linecap:butt;stroke-linejoin:round;stroke-miterlimit:10;stroke-dasharray:none;stroke-opacity:1"
           d="m 26.52,30.29 384.28,0" />
      </g>
      <g
         id="g4448">
        <path
           inkscape:connector-curvature="0"
           id="path4450"
           style="fill:none;stroke:#000000;stroke-width:1.05999994;stroke-linecap:butt;stroke-linejoin:round;stroke-miterlimit:10;stroke-dasharray:none;stroke-opacity:1"
           d="m 43.99,26.04 0,4.25" />
        <path
           inkscape:connector-curvature="0"
           id="path4452"
           style="fill:none;stroke:#000000;stroke-width:1.05999994;stroke-linecap:butt;stroke-linejoin:round;stroke-miterlimit:10;stroke-dasharray:none;stroke-opacity:1"
           d="m 131.32,26.04 0,4.25" />
        <path
           inkscape:connector-curvature="0"
           id="path4454"
           style="fill:none;stroke:#000000;stroke-width:1.05999994;stroke-linecap:butt;stroke-linejoin:round;stroke-miterlimit:10;stroke-dasharray:none;stroke-opacity:1"
           d="m 218.66,26.04 0,4.25" />
        <path
           inkscape:connector-curvature="0"
           id="path4456"
           style="fill:none;stroke:#000000;stroke-width:1.05999994;stroke-linecap:butt;stroke-linejoin:round;stroke-miterlimit:10;stroke-dasharray:none;stroke-opacity:1"
           d="m 305.99,26.04 0,4.25" />
        <path
           inkscape:connector-curvature="0"
           id="path4458"
           style="fill:none;stroke:#000000;stroke-width:1.05999994;stroke-linecap:butt;stroke-linejoin:round;stroke-miterlimit:10;stroke-dasharray:none;stroke-opacity:1"
           d="m 393.33,26.04 0,4.25" />
      </g>
      <g
         id="g4460" />
      <g
         id="g4462">
        <text
           id="text4464"
           style="font-variant:normal;font-weight:normal;font-size:6px;font-family:Garamond;-inkscape-font-specification:Garamond;writing-mode:lr-tb;fill:#000000;fill-opacity:1;fill-rule:nonzero;stroke:none"
           transform="matrix(1,0,0,-1,42.58,19.43)">
          <tspan
             id="tspan4466"
             y="0"
             x="0">0</tspan>
        </text>
        <text
           id="text4468"
           style="font-variant:normal;font-weight:normal;font-size:6px;font-family:Garamond;-inkscape-font-specification:Garamond;writing-mode:lr-tb;fill:#000000;fill-opacity:1;fill-rule:nonzero;stroke:none"
           transform="matrix(1,0,0,-1,130.07,19.43)">
          <tspan
             id="tspan4470"
             y="0"
             x="0">c</tspan>
        </text>
        <text
           id="text4472"
           style="font-variant:normal;font-weight:normal;font-size:6px;font-family:Garamond;-inkscape-font-specification:Garamond;writing-mode:lr-tb;fill:#000000;fill-opacity:1;fill-rule:nonzero;stroke:none"
           transform="matrix(1,0,0,-1,216,19.43)">
          <tspan
             id="tspan4474"
             sodipodi:role="line"
             y="0"
             x="0 2.8139999">2c</tspan>
        </text>
        <text
           id="text4476"
           style="font-variant:normal;font-weight:normal;font-size:6px;font-family:Garamond;-inkscape-font-specification:Garamond;writing-mode:lr-tb;fill:#000000;fill-opacity:1;fill-rule:nonzero;stroke:none"
           transform="matrix(1,0,0,-1,303.34,19.43)">
          <tspan
             id="tspan4478"
             sodipodi:role="line"
             y="0"
             x="0 2.8139999">3c</tspan>
        </text>
        <text
           id="text4480"
           style="font-variant:normal;font-weight:normal;font-size:6px;font-family:Garamond;-inkscape-font-specification:Garamond;writing-mode:lr-tb;fill:#000000;fill-opacity:1;fill-rule:nonzero;stroke:none"
           transform="matrix(1,0,0,-1,390.67,19.43)">
          <tspan
             id="tspan4482"
             sodipodi:role="line"
             y="0"
             x="0 2.8139999">4c</tspan>
        </text>
      </g>
      <g
         id="g4484" />
      <g
         id="g4486" />
      <g
         id="g4488" />
      <g
         id="g4490" />
      <g
         id="g4492">
        <text
           id="text4494"
           style="font-variant:normal;font-weight:normal;font-size:8px;font-family:Garamond;-inkscape-font-specification:Garamond;writing-mode:lr-tb;fill:#000000;fill-opacity:1;fill-rule:nonzero;stroke:none"
           transform="matrix(1,0,0,-1,189.02,10.8)">
          <tspan
             id="tspan4496"
             sodipodi:role="line"
             y="0"
             x="0 4.1999998 8.2799997 12.36 16.360001 18.360001 21.695999 25.775999 29.856001 32.776001 36.695999 42.863998 46.944 49.279999 51.112 55.192001">Food consumption</tspan>
        </text>
      </g>
      <g
         id="g4498" />
      <g
         id="g4500">
        <text
           id="text4502"
           style="font-variant:normal;font-weight:normal;font-size:8px;font-family:Garamond;-inkscape-font-specification:Garamond;writing-mode:lr-tb;fill:#000000;fill-opacity:1;fill-rule:nonzero;stroke:none"
           transform="matrix(0,1,1,0,15.83,102.24)">
          <tspan
             id="tspan4504"
             sodipodi:role="line"
             y="0"
             x="0 6.1680002 9.5039997 13.584 16.504 18.336 20.672001">Density</tspan>
        </text>
      </g>
      <g
         id="g4506" />
      <g
         id="g4508" />
      <g
         id="g4510" />
      <g
         id="g4512" />
    </g>
  </g>
</svg>
