<?xml version="1.0" encoding="UTF-8" standalone="no"?>
<!-- Created with Inkscape (http://www.inkscape.org/) -->

<svg
   xmlns:dc="http://purl.org/dc/elements/1.1/"
   xmlns:cc="http://creativecommons.org/ns#"
   xmlns:rdf="http://www.w3.org/1999/02/22-rdf-syntax-ns#"
   xmlns:svg="http://www.w3.org/2000/svg"
   xmlns="http://www.w3.org/2000/svg"
   xmlns:sodipodi="http://sodipodi.sourceforge.net/DTD/sodipodi-0.dtd"
   xmlns:inkscape="http://www.inkscape.org/namespaces/inkscape"
   width="149.93056mm"
   height="74.788887mm"
   viewBox="0 0 531.25001 264.99999"
   id="svg8609"
   version="1.1"
   inkscape:version="0.91 r13725"
   sodipodi:docname="fig-Effect-Income.svg">
  <defs
     id="defs8611">
    <clipPath
       id="clipPath8633"
       clipPathUnits="userSpaceOnUse">
      <path
         inkscape:connector-curvature="0"
         id="path8635"
         d="M 0,0 425,0 425,212 0,212 0,0 Z" />
    </clipPath>
    <clipPath
       id="clipPath8657"
       clipPathUnits="userSpaceOnUse">
      <path
         inkscape:connector-curvature="0"
         id="path8659"
         d="m 43.6,38.93 367.2,0 0,159.27 -367.2,0 0,-159.27 z" />
    </clipPath>
  </defs>
  <sodipodi:namedview
     id="base"
     pagecolor="#ffffff"
     bordercolor="#666666"
     borderopacity="1.0"
     inkscape:pageopacity="0.0"
     inkscape:pageshadow="2"
     inkscape:zoom="1.979899"
     inkscape:cx="265.625"
     inkscape:cy="132.5"
     inkscape:document-units="px"
     inkscape:current-layer="layer1"
     showgrid="false"
     fit-margin-top="0"
     fit-margin-left="0"
     fit-margin-right="0"
     fit-margin-bottom="0"
     inkscape:window-width="1920"
     inkscape:window-height="1018"
     inkscape:window-x="892"
     inkscape:window-y="512"
     inkscape:window-maximized="1" />
  <metadata
     id="metadata8614">
    <rdf:RDF>
      <cc:Work
         rdf:about="">
        <dc:format>image/svg+xml</dc:format>
        <dc:type
           rdf:resource="http://purl.org/dc/dcmitype/StillImage" />
        <dc:title></dc:title>
      </cc:Work>
    </rdf:RDF>
  </metadata>
  <g
     inkscape:label="Layer 1"
     inkscape:groupmode="layer"
     id="layer1"
     transform="translate(-109.375,-399.8622)">
    <g
       id="g8637"
       transform="matrix(1.25,0,0,-1.25,109.375,664.8622)" />
    <g
       id="g8639"
       transform="matrix(1.25,0,0,-1.25,109.375,664.8622)" />
    <g
       id="g8641"
       transform="matrix(1.25,0,0,-1.25,109.375,664.8622)" />
    <g
       id="g8643"
       transform="matrix(1.25,0,0,-1.25,109.375,664.8622)"
       style="fill:none;stroke:none">
      <path
         inkscape:connector-curvature="0"
         id="path8645"
         style="fill:none;fill-opacity:1;fill-rule:nonzero;stroke:none;stroke-width:1.05999994;stroke-linecap:round;stroke-linejoin:round;stroke-miterlimit:10;stroke-dasharray:none;stroke-opacity:1"
         d="m 0,0 425.2,0 0,212.6 L 0,212.6 0,0 Z" />
    </g>
    <g
       id="g8647"
       transform="matrix(1.25,0,0,-1.25,109.375,664.8622)" />
    <g
       id="g8649"
       transform="matrix(1.25,0,0,-1.25,109.375,664.8622)" />
    <g
       id="g8651"
       transform="matrix(1.25,0,0,-1.25,109.375,664.8622)" />
    <path
       inkscape:connector-curvature="0"
       id="path8661"
       style="fill:none;fill-opacity:1;fill-rule:nonzero;stroke:none"
       d="m 163.875,616.1997 459,0 0,-199.0875 -459,0 0,199.0875 z" />
    <path
       inkscape:connector-curvature="0"
       id="path8663"
       style="fill:none;stroke:#7f7f7f;stroke-width:1.32499993;stroke-linecap:butt;stroke-linejoin:round;stroke-miterlimit:10;stroke-dasharray:1.325, 3.9875;stroke-dashoffset:0;stroke-opacity:1"
       d="m 393.375,616.1997 0,-199.0875" />
    <text
       id="text8665"
       style="font-variant:normal;font-weight:normal;font-size:7.5px;font-family:Helvetica;-inkscape-font-specification:Helvetica;writing-mode:lr-tb;fill:#7f7f7f;fill-opacity:1;fill-rule:nonzero;stroke:none"
       transform="matrix(0,-1,1,0,0,0)"
       x="-607.14972"
       y="390.96249">
      <tspan
         id="tspan8667"
         sodipodi:role="line"
         y="390.96249"
         x="-607.14972 -601.73468 -597.5647 -595.89972 -593.8147 -592.14972 -591.09222 -587.34222 -585.2572 -583.59222 -579.42218 -575.67218 -571.5022 -565.2547">Haiti's income</tspan>
    </text>
    <text
       id="text8669"
       style="font-variant:normal;font-weight:normal;font-size:7.5px;font-family:Helvetica;-inkscape-font-specification:Helvetica;writing-mode:lr-tb;fill:#7f7f7f;fill-opacity:1;fill-rule:nonzero;stroke:none"
       transform="matrix(0,-1,1,0,0,0)"
       x="-607.14972"
       y="401.16251">
      <tspan
         id="tspan8671"
         sodipodi:role="line"
         y="401.16251"
         x="-607.14972 -602.97968 -598.80969 -594.63971 -592.55469">114.9</tspan>
    </text>
    <path
       inkscape:connector-curvature="0"
       id="path8673"
       style="fill:none;stroke:#7f7f7f;stroke-width:1.32499993;stroke-linecap:butt;stroke-linejoin:round;stroke-miterlimit:10;stroke-dasharray:1.325, 3.9875;stroke-dashoffset:0;stroke-opacity:1"
       d="m 163.875,520.1497 459,0" />
    <text
       id="text8675"
       style="font-variant:normal;font-weight:normal;font-size:7.5px;font-family:Helvetica;-inkscape-font-specification:Helvetica;writing-mode:lr-tb;fill:#7f7f7f;fill-opacity:1;fill-rule:nonzero;stroke:none"
       x="585.26251"
       y="517.73718">
      <tspan
         id="tspan8677"
         sodipodi:role="line"
         y="517.73718"
         x="585.26251 586.69501 591.69751 595.86749 599.61749 601.70251 603.78748 607.53748 610.14752 611.8125 615.5625 617.22748 620.97748">'Best crisis'</tspan>
    </text>
    <text
       id="text8679"
       style="font-variant:normal;font-weight:normal;font-size:7.5px;font-family:Helvetica;-inkscape-font-specification:Helvetica;writing-mode:lr-tb;fill:#7f7f7f;fill-opacity:1;fill-rule:nonzero;stroke:none"
       x="606.61249"
       y="527.93719">
      <tspan
         id="tspan8681"
         sodipodi:role="line"
         y="527.93719"
         x="606.61249 610.78247 614.95251 617.03748 621.20752">48.1'</tspan>
    </text>
    <path
       inkscape:connector-curvature="0"
       id="path8683"
       style="fill:none;stroke:#104e8b;stroke-width:2.66250014;stroke-linecap:butt;stroke-linejoin:round;stroke-miterlimit:1;stroke-dasharray:none;stroke-opacity:1"
       d="m 184.7375,426.1622 4.175,0.3 4.175,0.6625 4.175,0.9375 4.1625,1.175 4.175,1.375 4.175,1.55 4.175,1.7125 4.175,1.8625 4.1625,1.975 4.175,2.0875 4.175,2.1875 4.175,2.2625 4.175,2.3375 4.175,2.3875 4.1625,2.425 4.175,2.475 4.175,2.5 4.175,2.5125 4.175,2.5375 4.1625,2.525 4.175,2.5375 4.175,2.525 4.175,2.5125 4.175,2.5 4.175,2.475 4.1625,2.45 4.175,2.4125 4.175,2.4 4.175,2.3625 4.175,2.325 4.1625,2.2875 4.175,2.25 4.175,2.2125 4.175,2.175 4.175,2.1375 4.1625,2.0875 4.175,2.05 4.175,2.0125 4.175,1.9625 4.175,1.925 4.175,1.8875 4.1625,1.8375 4.175,1.8125 4.175,1.7625 4.175,1.725 4.175,1.675 4.1625,1.65 4.175,1.6125 4.175,1.5625 4.175,1.5375 4.175,1.5 4.175,1.4625 4.1625,1.425 4.175,1.3875 4.175,1.3625 4.175,1.325 4.175,1.3 4.1625,1.2625 4.175,1.2375 4.175,1.2125 4.175,1.175 4.175,1.15 4.1625,1.125 4.175,1.1 4.175,1.0625 4.175,1.05 4.175,1.025 4.175,1 4.1625,0.975 4.175,0.95 4.175,0.925 4.175,0.9125 4.175,0.8875 4.1625,0.8625 4.175,0.85 4.175,0.825 4.175,0.8125 4.175,0.7875 4.175,0.775 4.1625,0.7625 4.175,0.7375 4.175,0.725 4.175,0.7 4.175,0.6875 4.1625,0.6875 4.175,0.6625 4.175,0.6375 4.175,0.6375 4.175,0.625 4.1625,0.6 4.175,0.6 4.175,0.575 4.175,0.575 4.175,0.5625 4.175,0.5375 4.1625,0.5375 4.175,0.525 4.175,0.5125 4.175,0.5 4.175,0.5" />
    <path
       inkscape:connector-curvature="0"
       id="path8685"
       style="fill:none;stroke:#b22222;stroke-width:2.66250014;stroke-linecap:butt;stroke-linejoin:round;stroke-miterlimit:1;stroke-dasharray:none;stroke-opacity:1"
       d="m 184.7375,426.1622 4.175,0.2 4.175,0.4625 4.175,0.65 4.1625,0.8125 4.175,0.9625 4.175,1.0875 4.175,1.2125 4.175,1.325 4.1625,1.4125 4.175,1.5 4.175,1.5875 4.175,1.65 4.175,1.725 4.175,1.775 4.1625,1.825 4.175,1.875 4.175,1.9 4.175,1.9375 4.175,1.975 4.1625,1.9875 4.175,2 4.175,2.025 4.175,2.025 4.175,2.025 4.175,2.0375 4.1625,2.0375 4.175,2.025 4.175,2.025 4.175,2.0125 4.175,2 4.1625,1.9875 4.175,1.975 4.175,1.95 4.175,1.9375 4.175,1.9125 4.1625,1.9 4.175,1.875 4.175,1.85 4.175,1.825 4.175,1.8 4.175,1.775 4.1625,1.75 4.175,1.725 4.175,1.7 4.175,1.675 4.175,1.6375 4.1625,1.625 4.175,1.5875 4.175,1.5625 4.175,1.5375 4.175,1.5125 4.175,1.4875 4.1625,1.4625 4.175,1.4375 4.175,1.4 4.175,1.3875 4.175,1.35 4.1625,1.3375 4.175,1.3 4.175,1.2875 4.175,1.25 4.175,1.2375 4.1625,1.2125 4.175,1.1875 4.175,1.1625 4.175,1.15 4.175,1.125 4.175,1.1 4.1625,1.075 4.175,1.0625 4.175,1.0375 4.175,1.0125 4.175,1 4.1625,0.9875 4.175,0.9625 4.175,0.9375 4.175,0.925 4.175,0.9125 4.175,0.8875 4.1625,0.875 4.175,0.8625 4.175,0.8375 4.175,0.825 4.175,0.8125 4.1625,0.7875 4.175,0.775 4.175,0.775 4.175,0.75 4.175,0.7375 4.1625,0.725 4.175,0.7 4.175,0.7 4.175,0.6875 4.175,0.6625 4.175,0.6625 4.1625,0.65 4.175,0.6375 4.175,0.625 4.175,0.6125 4.175,0.6" />
    <path
       inkscape:connector-curvature="0"
       id="path8687"
       style="fill:#666666;fill-opacity:1;fill-rule:nonzero;stroke:#ffffff;stroke-width:0.9375;stroke-linecap:round;stroke-linejoin:round;stroke-miterlimit:10;stroke-dasharray:none;stroke-opacity:1"
       d="m 392.2,527.7872 2.35,0 0,-2.35 -2.35,0 0,2.35 z" />
    <path
       inkscape:connector-curvature="0"
       id="path8689"
       style="fill:#666666;fill-opacity:1;fill-rule:nonzero;stroke:#ffffff;stroke-width:0.9375;stroke-linecap:round;stroke-linejoin:round;stroke-miterlimit:10;stroke-dasharray:none;stroke-opacity:1"
       d="m 392.2,511.0122 2.35,0 0,-2.35 -2.35,0 0,2.35 z" />
    <path
       inkscape:connector-curvature="0"
       id="path8691"
       style="fill:#666666;fill-opacity:1;fill-rule:nonzero;stroke:#ffffff;stroke-width:0.9375;stroke-linecap:round;stroke-linejoin:round;stroke-miterlimit:10;stroke-dasharray:none;stroke-opacity:1"
       d="m 422.275,521.3247 2.35,0 0,-2.35 -2.35,0 0,2.35 z" />
    <text
       id="text8693"
       style="font-variant:normal;font-weight:normal;font-size:7.5px;font-family:Helvetica;-inkscape-font-specification:Helvetica;writing-mode:lr-tb;fill:#104e8b;fill-opacity:1;fill-rule:nonzero;stroke:none"
       x="345.8125"
       y="534.68719">
      <tspan
         id="tspan8695"
         sodipodi:role="line"
         y="534.68719"
         x="345.8125 347.89749 350.32001 354.48999 358.66 362.82999 367 368.66501 370.32999 372.41501 376.58499 380.755 383.36499 385.03 389.20001">tranquil period</tspan>
    </text>
    <text
       id="text8697"
       style="font-variant:normal;font-weight:normal;font-size:7.5px;font-family:Helvetica;-inkscape-font-specification:Helvetica;writing-mode:lr-tb;fill:#b22222;fill-opacity:1;fill-rule:nonzero;stroke:none"
       x="393.375"
       y="501.74969">
      <tspan
         id="tspan8699"
         sodipodi:role="line"
         y="501.74969"
         x="393.375 395.23499 399.405 403.57501 407.745 409.82999 413.57999 416.19 417.85501 421.60501 423.26999">food crisis</tspan>
    </text>
    <text
       id="text8701"
       style="font-variant:normal;font-weight:normal;font-size:7.5px;font-family:Helvetica;-inkscape-font-specification:Helvetica;writing-mode:lr-tb;fill:#7f7f7f;fill-opacity:1;fill-rule:nonzero;stroke:none"
       x="423.46249"
       y="517.44971">
      <tspan
         id="tspan8703"
         sodipodi:role="line"
         y="517.44971"
         x="423.46249 428.465 432.845 437.01501 441.185 445.35501 447.44">Y=131.5</tspan>
    </text>
    <g
       id="g8705"
       transform="matrix(1.25,0,0,-1.25,109.375,664.8622)" />
    <g
       id="g8707"
       transform="matrix(1.25,0,0,-1.25,109.375,664.8622)">
      <path
         inkscape:connector-curvature="0"
         id="path8709"
         style="fill:none;stroke:#000000;stroke-width:1.05999994;stroke-linecap:butt;stroke-linejoin:round;stroke-miterlimit:10;stroke-dasharray:none;stroke-opacity:1"
         d="m 43.6,38.93 0,159.27" />
    </g>
    <g
       id="g8711"
       transform="matrix(1.25,0,0,-1.25,109.375,664.8622)">
      <text
         id="text8713"
         style="font-variant:normal;font-weight:normal;font-size:6px;font-family:Garamond;-inkscape-font-specification:Garamond;writing-mode:lr-tb;fill:#000000;fill-opacity:1;fill-rule:nonzero;stroke:none"
         transform="matrix(1,0,0,-1,33.7,44.28)">
        <tspan
           id="tspan8715"
           y="0"
           x="0">0</tspan>
      </text>
      <text
         id="text8717"
         style="font-variant:normal;font-weight:normal;font-size:6px;font-family:Garamond;-inkscape-font-specification:Garamond;writing-mode:lr-tb;fill:#000000;fill-opacity:1;fill-rule:nonzero;stroke:none"
         transform="matrix(1,0,0,-1,30.89,80.48)">
        <tspan
           id="tspan8719"
           sodipodi:role="line"
           y="0"
           x="0 2.8139999">25</tspan>
      </text>
      <text
         id="text8721"
         style="font-variant:normal;font-weight:normal;font-size:6px;font-family:Garamond;-inkscape-font-specification:Garamond;writing-mode:lr-tb;fill:#000000;fill-opacity:1;fill-rule:nonzero;stroke:none"
         transform="matrix(1,0,0,-1,30.89,116.68)">
        <tspan
           id="tspan8723"
           sodipodi:role="line"
           y="0"
           x="0 2.8139999">50</tspan>
      </text>
      <text
         id="text8725"
         style="font-variant:normal;font-weight:normal;font-size:6px;font-family:Garamond;-inkscape-font-specification:Garamond;writing-mode:lr-tb;fill:#000000;fill-opacity:1;fill-rule:nonzero;stroke:none"
         transform="matrix(1,0,0,-1,30.89,152.88)">
        <tspan
           id="tspan8727"
           sodipodi:role="line"
           y="0"
           x="0 2.8139999">75</tspan>
      </text>
      <text
         id="text8729"
         style="font-variant:normal;font-weight:normal;font-size:6px;font-family:Garamond;-inkscape-font-specification:Garamond;writing-mode:lr-tb;fill:#000000;fill-opacity:1;fill-rule:nonzero;stroke:none"
         transform="matrix(1,0,0,-1,28.07,189.07)">
        <tspan
           id="tspan8731"
           sodipodi:role="line"
           y="0"
           x="0 2.8139999 5.6279998">100</tspan>
      </text>
    </g>
    <g
       id="g8733"
       transform="matrix(1.25,0,0,-1.25,109.375,664.8622)" />
    <g
       id="g8735"
       transform="matrix(1.25,0,0,-1.25,109.375,664.8622)">
      <path
         inkscape:connector-curvature="0"
         id="path8737"
         style="fill:none;stroke:#000000;stroke-width:1.05999994;stroke-linecap:butt;stroke-linejoin:round;stroke-miterlimit:10;stroke-dasharray:none;stroke-opacity:1"
         d="m 39.35,46.17 4.25,0" />
      <path
         inkscape:connector-curvature="0"
         id="path8739"
         style="fill:none;stroke:#000000;stroke-width:1.05999994;stroke-linecap:butt;stroke-linejoin:round;stroke-miterlimit:10;stroke-dasharray:none;stroke-opacity:1"
         d="m 39.35,82.37 4.25,0" />
      <path
         inkscape:connector-curvature="0"
         id="path8741"
         style="fill:none;stroke:#000000;stroke-width:1.05999994;stroke-linecap:butt;stroke-linejoin:round;stroke-miterlimit:10;stroke-dasharray:none;stroke-opacity:1"
         d="m 39.35,118.57 4.25,0" />
      <path
         inkscape:connector-curvature="0"
         id="path8743"
         style="fill:none;stroke:#000000;stroke-width:1.05999994;stroke-linecap:butt;stroke-linejoin:round;stroke-miterlimit:10;stroke-dasharray:none;stroke-opacity:1"
         d="m 39.35,154.76 4.25,0" />
      <path
         inkscape:connector-curvature="0"
         id="path8745"
         style="fill:none;stroke:#000000;stroke-width:1.05999994;stroke-linecap:butt;stroke-linejoin:round;stroke-miterlimit:10;stroke-dasharray:none;stroke-opacity:1"
         d="m 39.35,190.96 4.25,0" />
    </g>
    <g
       id="g8747"
       transform="matrix(1.25,0,0,-1.25,109.375,664.8622)" />
    <g
       id="g8749"
       transform="matrix(1.25,0,0,-1.25,109.375,664.8622)" />
    <g
       id="g8751"
       transform="matrix(1.25,0,0,-1.25,109.375,664.8622)" />
    <g
       id="g8753"
       transform="matrix(1.25,0,0,-1.25,109.375,664.8622)" />
    <g
       id="g8755"
       transform="matrix(1.25,0,0,-1.25,109.375,664.8622)">
      <path
         inkscape:connector-curvature="0"
         id="path8757"
         style="fill:none;stroke:#000000;stroke-width:1.05999994;stroke-linecap:butt;stroke-linejoin:round;stroke-miterlimit:10;stroke-dasharray:none;stroke-opacity:1"
         d="m 43.6,38.93 367.2,0" />
    </g>
    <g
       id="g8759"
       transform="matrix(1.25,0,0,-1.25,109.375,664.8622)">
      <path
         inkscape:connector-curvature="0"
         id="path8761"
         style="fill:none;stroke:#000000;stroke-width:1.05999994;stroke-linecap:butt;stroke-linejoin:round;stroke-miterlimit:10;stroke-dasharray:none;stroke-opacity:1"
         d="m 60.29,34.68 0,4.25" />
      <path
         inkscape:connector-curvature="0"
         id="path8763"
         style="fill:none;stroke:#000000;stroke-width:1.05999994;stroke-linecap:butt;stroke-linejoin:round;stroke-miterlimit:10;stroke-dasharray:none;stroke-opacity:1"
         d="m 132.91,34.68 0,4.25" />
      <path
         inkscape:connector-curvature="0"
         id="path8765"
         style="fill:none;stroke:#000000;stroke-width:1.05999994;stroke-linecap:butt;stroke-linejoin:round;stroke-miterlimit:10;stroke-dasharray:none;stroke-opacity:1"
         d="m 205.52,34.68 0,4.25" />
      <path
         inkscape:connector-curvature="0"
         id="path8767"
         style="fill:none;stroke:#000000;stroke-width:1.05999994;stroke-linecap:butt;stroke-linejoin:round;stroke-miterlimit:10;stroke-dasharray:none;stroke-opacity:1"
         d="m 278.14,34.68 0,4.25" />
      <path
         inkscape:connector-curvature="0"
         id="path8769"
         style="fill:none;stroke:#000000;stroke-width:1.05999994;stroke-linecap:butt;stroke-linejoin:round;stroke-miterlimit:10;stroke-dasharray:none;stroke-opacity:1"
         d="m 350.75,34.68 0,4.25" />
    </g>
    <g
       id="g8771"
       transform="matrix(1.25,0,0,-1.25,109.375,664.8622)" />
    <g
       id="g8773"
       transform="matrix(1.25,0,0,-1.25,109.375,664.8622)">
      <text
         id="text8775"
         style="font-variant:normal;font-weight:normal;font-size:6px;font-family:Garamond;-inkscape-font-specification:Garamond;writing-mode:lr-tb;fill:#000000;fill-opacity:1;fill-rule:nonzero;stroke:none"
         transform="matrix(1,0,0,-1,58.88,28.07)">
        <tspan
           id="tspan8777"
           y="0"
           x="0">0</tspan>
      </text>
      <text
         id="text8779"
         style="font-variant:normal;font-weight:normal;font-size:6px;font-family:Garamond;-inkscape-font-specification:Garamond;writing-mode:lr-tb;fill:#000000;fill-opacity:1;fill-rule:nonzero;stroke:none"
         transform="matrix(1,0,0,-1,130.09,28.07)">
        <tspan
           id="tspan8781"
           sodipodi:role="line"
           y="0"
           x="0 2.8139999">50</tspan>
      </text>
      <text
         id="text8783"
         style="font-variant:normal;font-weight:normal;font-size:6px;font-family:Garamond;-inkscape-font-specification:Garamond;writing-mode:lr-tb;fill:#000000;fill-opacity:1;fill-rule:nonzero;stroke:none"
         transform="matrix(1,0,0,-1,201.3,28.07)">
        <tspan
           id="tspan8785"
           sodipodi:role="line"
           y="0"
           x="0 2.8139999 5.6279998">100</tspan>
      </text>
      <text
         id="text8787"
         style="font-variant:normal;font-weight:normal;font-size:6px;font-family:Garamond;-inkscape-font-specification:Garamond;writing-mode:lr-tb;fill:#000000;fill-opacity:1;fill-rule:nonzero;stroke:none"
         transform="matrix(1,0,0,-1,273.92,28.07)">
        <tspan
           id="tspan8789"
           sodipodi:role="line"
           y="0"
           x="0 2.8139999 5.6279998">150</tspan>
      </text>
      <text
         id="text8791"
         style="font-variant:normal;font-weight:normal;font-size:6px;font-family:Garamond;-inkscape-font-specification:Garamond;writing-mode:lr-tb;fill:#000000;fill-opacity:1;fill-rule:nonzero;stroke:none"
         transform="matrix(1,0,0,-1,346.53,28.07)">
        <tspan
           id="tspan8793"
           sodipodi:role="line"
           y="0"
           x="0 2.8139999 5.6279998">200</tspan>
      </text>
    </g>
    <g
       id="g8795"
       transform="matrix(1.25,0,0,-1.25,109.375,664.8622)" />
    <g
       id="g8797"
       transform="matrix(1.25,0,0,-1.25,109.375,664.8622)" />
    <g
       id="g8799"
       transform="matrix(1.25,0,0,-1.25,109.375,664.8622)" />
    <g
       id="g8801"
       transform="matrix(1.25,0,0,-1.25,109.375,664.8622)" />
    <g
       id="g8803"
       transform="matrix(1.25,0,0,-1.25,109.375,664.8622)">
      <text
         id="text8805"
         style="font-variant:normal;font-weight:normal;font-size:8px;font-family:Garamond;-inkscape-font-specification:Garamond;writing-mode:lr-tb;fill:#000000;fill-opacity:1;fill-rule:nonzero;stroke:none"
         transform="matrix(1,0,0,-1,199.2,19.44)">
        <tspan
           id="tspan8807"
           sodipodi:role="line"
           y="0"
           x="0 2.832 6.9120002 10.248 14.328 20.496 23.832001 25.832001 29.912001 33.248001 35.911999 37.911999 41.248001 44.495998 48.576 50.408001 52.743999">Income per capita</tspan>
      </text>
      <text
         id="text8809"
         style="font-variant:normal;font-weight:normal;font-size:8px;font-family:Garamond;-inkscape-font-specification:Garamond;writing-mode:lr-tb;fill:#000000;fill-opacity:1;fill-rule:nonzero;stroke:none"
         transform="matrix(1,0,0,-1,190.66,10.8)">
        <tspan
           id="tspan8811"
           sodipodi:role="line"
           y="0"
           x="0 2.336 8 11.832 13.832 17.832001 21.912001 23.743999 25.576 28.823999 31.488001 34.408001 36.408001 40.487999 43.824001 46.487999 48.487999 52.408001 56.327999 59.576 62.400002 64.736 68.071999 70.736">(US dollars per quarter)</tspan>
      </text>
    </g>
    <g
       id="g8813"
       transform="matrix(1.25,0,0,-1.25,109.375,664.8622)" />
    <g
       id="g8815"
       transform="matrix(1.25,0,0,-1.25,109.375,664.8622)">
      <text
         id="text8817"
         style="font-variant:normal;font-weight:normal;font-size:8px;font-family:Garamond;-inkscape-font-specification:Garamond;writing-mode:lr-tb;fill:#000000;fill-opacity:1;fill-rule:nonzero;stroke:none"
         transform="matrix(0,1,1,0,15.83,99.88)">
        <tspan
           id="tspan8819"
           sodipodi:role="line"
           y="0"
           x="0 6.0799999 10 14.08 17.784 21.120001 23.784 25.784 28.448 31.695999 34.032001">Hunger rate</tspan>
      </text>
      <text
         id="text8821"
         style="font-variant:normal;font-weight:normal;font-size:8px;font-family:Garamond;-inkscape-font-specification:Garamond;writing-mode:lr-tb;fill:#000000;fill-opacity:1;fill-rule:nonzero;stroke:none"
         transform="matrix(0,1,1,0,24.47,82.53)">
        <tspan
           id="tspan8823"
           sodipodi:role="line"
           y="0"
           x="0 2.336 6.4159999 9.7519999 12.416 15.752 19.087999 23.167999 25.504 27.504 31.584 34.167999 36.167999 40.248001 44.327999 48.408001 52.327999 54.16 57.408001 59.743999 61.576 65.655998 69.736">(percent of population)</tspan>
      </text>
    </g>
    <g
       id="g8825"
       transform="matrix(1.25,0,0,-1.25,109.375,664.8622)" />
    <g
       id="g8827"
       transform="matrix(1.25,0,0,-1.25,109.375,664.8622)" />
    <g
       id="g8829"
       transform="matrix(1.25,0,0,-1.25,109.375,664.8622)" />
    <g
       id="g8831"
       transform="matrix(1.25,0,0,-1.25,109.375,664.8622)" />
  </g>
</svg>
