<?xml version="1.0" encoding="UTF-8" standalone="no"?>
<!-- Created with Inkscape (http://www.inkscape.org/) -->

<svg
   xmlns:dc="http://purl.org/dc/elements/1.1/"
   xmlns:cc="http://creativecommons.org/ns#"
   xmlns:rdf="http://www.w3.org/1999/02/22-rdf-syntax-ns#"
   xmlns:svg="http://www.w3.org/2000/svg"
   xmlns="http://www.w3.org/2000/svg"
   xmlns:sodipodi="http://sodipodi.sourceforge.net/DTD/sodipodi-0.dtd"
   xmlns:inkscape="http://www.inkscape.org/namespaces/inkscape"
   width="149.93056mm"
   height="74.788887mm"
   viewBox="0 0 531.25001 264.99999"
   id="svg9372"
   version="1.1"
   inkscape:version="0.91 r13725"
   sodipodi:docname="fig-Effect-Inequality.svg">
  <defs
     id="defs9374">
    <clipPath
       id="clipPath9396"
       clipPathUnits="userSpaceOnUse">
      <path
         inkscape:connector-curvature="0"
         id="path9398"
         d="M 0,0 425,0 425,212 0,212 0,0 Z" />
    </clipPath>
    <clipPath
       id="clipPath9420"
       clipPathUnits="userSpaceOnUse">
      <path
         inkscape:connector-curvature="0"
         id="path9422"
         d="m 43.6,38.93 367.2,0 0,159.27 -367.2,0 0,-159.27 z" />
    </clipPath>
  </defs>
  <sodipodi:namedview
     id="base"
     pagecolor="#ffffff"
     bordercolor="#666666"
     borderopacity="1.0"
     inkscape:pageopacity="0.0"
     inkscape:pageshadow="2"
     inkscape:zoom="1.979899"
     inkscape:cx="265.625"
     inkscape:cy="132.5"
     inkscape:document-units="px"
     inkscape:current-layer="layer1"
     showgrid="false"
     fit-margin-top="0"
     fit-margin-left="0"
     fit-margin-right="0"
     fit-margin-bottom="0"
     inkscape:window-width="1920"
     inkscape:window-height="1018"
     inkscape:window-x="892"
     inkscape:window-y="512"
     inkscape:window-maximized="1" />
  <metadata
     id="metadata9377">
    <rdf:RDF>
      <cc:Work
         rdf:about="">
        <dc:format>image/svg+xml</dc:format>
        <dc:type
           rdf:resource="http://purl.org/dc/dcmitype/StillImage" />
        <dc:title></dc:title>
      </cc:Work>
    </rdf:RDF>
  </metadata>
  <g
     inkscape:label="Layer 1"
     inkscape:groupmode="layer"
     id="layer1"
     transform="translate(-109.375,-399.8622)">
    <g
       id="g9400"
       transform="matrix(1.25,0,0,-1.25,109.375,664.8622)" />
    <g
       id="g9402"
       transform="matrix(1.25,0,0,-1.25,109.375,664.8622)" />
    <g
       id="g9404"
       transform="matrix(1.25,0,0,-1.25,109.375,664.8622)" />
    <g
       id="g9406"
       transform="matrix(1.25,0,0,-1.25,109.375,664.8622)"
       style="fill:none;stroke:none">
      <path
         inkscape:connector-curvature="0"
         id="path9408"
         style="fill:none;fill-opacity:1;fill-rule:nonzero;stroke:none;stroke-width:1.05999994;stroke-linecap:round;stroke-linejoin:round;stroke-miterlimit:10;stroke-dasharray:none;stroke-opacity:1"
         d="m 0,0 425.2,0 0,212.6 L 0,212.6 0,0 Z" />
    </g>
    <g
       id="g9410"
       transform="matrix(1.25,0,0,-1.25,109.375,664.8622)" />
    <g
       id="g9412"
       transform="matrix(1.25,0,0,-1.25,109.375,664.8622)" />
    <g
       id="g9414"
       transform="matrix(1.25,0,0,-1.25,109.375,664.8622)" />
    <path
       inkscape:connector-curvature="0"
       id="path9424"
       style="fill:none;fill-opacity:1;fill-rule:nonzero;stroke:none"
       d="m 163.875,616.1997 459,0 0,-199.0875 -459,0 0,199.0875 z" />
    <path
       inkscape:connector-curvature="0"
       id="path9426"
       style="fill:none;stroke:#7f7f7f;stroke-width:1.32499993;stroke-linecap:butt;stroke-linejoin:round;stroke-miterlimit:10;stroke-dasharray:1.325, 3.9875;stroke-dashoffset:0;stroke-opacity:1"
       d="m 430.925,616.1997 0,-199.0875" />
    <text
       id="text9428"
       style="font-variant:normal;font-weight:normal;font-size:7.5px;font-family:Helvetica;-inkscape-font-specification:Helvetica;writing-mode:lr-tb;fill:#7f7f7f;fill-opacity:1;fill-rule:nonzero;stroke:none"
       transform="matrix(0,-1,1,0,0,0)"
       x="-607.14972"
       y="428.51251">
      <tspan
         id="tspan9430"
         sodipodi:role="line"
         y="428.51251"
         x="-607.14972 -601.73468 -597.5647 -595.89972 -593.8147 -592.14972 -591.09222 -587.34222 -585.2572 -579.42218 -577.7572 -573.58722">Haiti's Gini</tspan>
    </text>
    <text
       id="text9432"
       style="font-variant:normal;font-weight:normal;font-size:7.5px;font-family:Helvetica;-inkscape-font-specification:Helvetica;writing-mode:lr-tb;fill:#7f7f7f;fill-opacity:1;fill-rule:nonzero;stroke:none"
       transform="matrix(0,-1,1,0,0,0)"
       x="-607.14972"
       y="438.72501">
      <tspan
         id="tspan9434"
         sodipodi:role="line"
         y="438.72501"
         x="-607.14972 -602.97968 -600.89471 -596.72467">0.59</tspan>
    </text>
    <path
       inkscape:connector-curvature="0"
       id="path9436"
       style="fill:none;stroke:#7f7f7f;stroke-width:1.32499993;stroke-linecap:butt;stroke-linejoin:round;stroke-miterlimit:10;stroke-dasharray:1.325, 3.9875;stroke-dashoffset:0;stroke-opacity:1"
       d="m 163.875,520.1497 459,0" />
    <text
       id="text9438"
       style="font-variant:normal;font-weight:normal;font-size:7.5px;font-family:Helvetica;-inkscape-font-specification:Helvetica;writing-mode:lr-tb;fill:#7f7f7f;fill-opacity:1;fill-rule:nonzero;stroke:none"
       x="585.26251"
       y="517.73718">
      <tspan
         id="tspan9440"
         sodipodi:role="line"
         y="517.73718"
         x="585.26251 586.69501 591.69751 595.86749 599.61749 601.70251 603.78748 607.53748 610.14752 611.8125 615.5625 617.22748 620.97748">'Best crisis'</tspan>
    </text>
    <text
       id="text9442"
       style="font-variant:normal;font-weight:normal;font-size:7.5px;font-family:Helvetica;-inkscape-font-specification:Helvetica;writing-mode:lr-tb;fill:#7f7f7f;fill-opacity:1;fill-rule:nonzero;stroke:none"
       x="606.61249"
       y="527.93719">
      <tspan
         id="tspan9444"
         sodipodi:role="line"
         y="527.93719"
         x="606.61249 610.78247 614.95251 617.03748 621.20752">48.1'</tspan>
    </text>
    <path
       inkscape:connector-curvature="0"
       id="path9446"
       style="fill:none;stroke:#104e8b;stroke-width:2.66250014;stroke-linecap:butt;stroke-linejoin:round;stroke-miterlimit:1;stroke-dasharray:none;stroke-opacity:1"
       d="m 188.9125,607.1497 4.175,0 4.175,0 4.1625,0 4.175,0 4.175,0 4.175,0 4.175,-0.0125 4.1625,-0.025 4.175,-0.05 4.175,-0.0875 4.175,-0.1375 4.175,-0.2125 4.175,-0.3 4.1625,-0.3875 4.175,-0.4875 4.175,-0.6 4.175,-0.7125 4.175,-0.8375 4.1625,-0.9375 4.175,-1.05 4.175,-1.1625 4.175,-1.2625 4.175,-1.35 4.175,-1.45 4.1625,-1.5375 4.175,-1.6125 4.175,-1.675 4.175,-1.75 4.175,-1.8 4.1625,-1.8625 4.175,-1.9 4.175,-1.95 4.175,-1.9875 4.175,-2.0125 4.1625,-2.05 4.175,-2.0625 4.175,-2.0875 4.175,-2.1125 4.175,-2.125 4.175,-2.125 4.1625,-2.15 4.175,-2.15 4.175,-2.15 4.175,-2.1625 4.175,-2.1625 4.1625,-2.175 4.175,-2.1625 4.175,-2.1625 4.175,-2.1625 4.175,-2.1625 4.175,-2.1625 4.1625,-2.1625 4.175,-2.1625 4.175,-2.15 4.175,-2.15 4.175,-2.15 4.1625,-2.15 4.175,-2.1375 4.175,-2.15 4.175,-2.1375 4.175,-2.1375 4.1625,-2.1375 4.175,-2.1375 4.175,-2.1375 4.175,-2.1375 4.175,-2.1375 4.175,-2.15 4.1625,-2.15 4.175,-2.15 4.175,-2.15 4.175,-2.1625 4.175,-2.175 4.1625,-2.175 4.175,-2.1875 4.175,-2.2 4.175,-2.2125 4.175,-2.225 4.175,-2.2375 4.1625,-2.25 4.175,-2.2875 4.175,-2.3 4.175,-2.325 4.175,-2.35 4.1625,-2.375 4.175,-2.4125 4.175,-2.45 4.175,-2.4875 4.175,-2.5375 4.1625,-2.5875 4.175,-2.6375 4.175,-2.7 4.175,-2.775 4.175,-2.8625 4.175,-2.9375 4.1625,-3.0625 4.175,-3.175 4.175,-3.3375 4.175,-3.525 4.175,-3.7875" />
    <path
       inkscape:connector-curvature="0"
       id="path9448"
       style="fill:none;stroke:#b22222;stroke-width:2.66250014;stroke-linecap:butt;stroke-linejoin:round;stroke-miterlimit:1;stroke-dasharray:none;stroke-opacity:1"
       d="m 188.9125,607.1497 4.175,0 4.175,0 4.1625,0 4.175,0 4.175,-0.0125 4.175,-0.05 4.175,-0.1125 4.1625,-0.2 4.175,-0.35 4.175,-0.5 4.175,-0.6875 4.175,-0.875 4.175,-1.0625 4.1625,-1.25 4.175,-1.425 4.175,-1.575 4.175,-1.7125 4.175,-1.85 4.1625,-1.9625 4.175,-2.05 4.175,-2.125 4.175,-2.1875 4.175,-2.25 4.175,-2.275 4.1625,-2.3125 4.175,-2.3375 4.175,-2.3375 4.175,-2.3625 4.175,-2.35 4.1625,-2.35 4.175,-2.3375 4.175,-2.3375 4.175,-2.3125 4.175,-2.3 4.1625,-2.2875 4.175,-2.2625 4.175,-2.25 4.175,-2.225 4.175,-2.2 4.175,-2.175 4.1625,-2.1625 4.175,-2.1375 4.175,-2.125 4.175,-2.1 4.175,-2.075 4.1625,-2.05 4.175,-2.05 4.175,-2.0125 4.175,-2 4.175,-1.9875 4.175,-1.975 4.1625,-1.95 4.175,-1.9375 4.175,-1.925 4.175,-1.9125 4.175,-1.9 4.1625,-1.8875 4.175,-1.8875 4.175,-1.8625 4.175,-1.8625 4.175,-1.85 4.1625,-1.85 4.175,-1.8375 4.175,-1.825 4.175,-1.8375 4.175,-1.825 4.175,-1.825 4.1625,-1.8125 4.175,-1.825 4.175,-1.825 4.175,-1.825 4.175,-1.825 4.1625,-1.825 4.175,-1.8375 4.175,-1.8375 4.175,-1.85 4.175,-1.8625 4.175,-1.875 4.1625,-1.875 4.175,-1.9 4.175,-1.9125 4.175,-1.925 4.175,-1.95 4.1625,-1.975 4.175,-2 4.175,-2.025 4.175,-2.05 4.175,-2.0875 4.1625,-2.125 4.175,-2.175 4.175,-2.2125 4.175,-2.275 4.175,-2.3375 4.175,-2.4 4.1625,-2.4875 4.175,-2.5875 4.175,-2.7 4.175,-2.8375 4.175,-3.05" />
    <path
       inkscape:connector-curvature="0"
       id="path9450"
       style="fill:#666666;fill-opacity:1;fill-rule:nonzero;stroke:#ffffff;stroke-width:0.9375;stroke-linecap:round;stroke-linejoin:round;stroke-miterlimit:10;stroke-dasharray:none;stroke-opacity:1"
       d="m 429.75,527.7872 2.35,0 0,-2.35 -2.35,0 0,2.35 z" />
    <path
       inkscape:connector-curvature="0"
       id="path9452"
       style="fill:#666666;fill-opacity:1;fill-rule:nonzero;stroke:#ffffff;stroke-width:0.9375;stroke-linecap:round;stroke-linejoin:round;stroke-miterlimit:10;stroke-dasharray:none;stroke-opacity:1"
       d="m 429.75,511.0122 2.35,0 0,-2.35 -2.35,0 0,2.35 z" />
    <path
       inkscape:connector-curvature="0"
       id="path9454"
       style="fill:#666666;fill-opacity:1;fill-rule:nonzero;stroke:#ffffff;stroke-width:0.9375;stroke-linecap:round;stroke-linejoin:round;stroke-miterlimit:10;stroke-dasharray:none;stroke-opacity:1"
       d="m 407.1375,521.3247 2.35,0 0,-2.35 -2.35,0 0,2.35 z" />
    <text
       id="text9456"
       style="font-variant:normal;font-weight:normal;font-size:7.5px;font-family:Helvetica;-inkscape-font-specification:Helvetica;writing-mode:lr-tb;fill:#104e8b;fill-opacity:1;fill-rule:nonzero;stroke:none"
       x="430.92499"
       y="534.68719">
      <tspan
         id="tspan9458"
         sodipodi:role="line"
         y="534.68719"
         x="430.92499 433.01001 435.4325 439.60251 443.77249 447.9425 452.11249 453.7775 455.4425 457.5275 461.69751 465.86749 468.47751 470.14249 474.3125">tranquil period</tspan>
    </text>
    <text
       id="text9460"
       style="font-variant:normal;font-weight:normal;font-size:7.5px;font-family:Helvetica;-inkscape-font-specification:Helvetica;writing-mode:lr-tb;fill:#b22222;fill-opacity:1;fill-rule:nonzero;stroke:none"
       x="397.28751"
       y="501.74969">
      <tspan
         id="tspan9462"
         sodipodi:role="line"
         y="501.74969"
         x="397.28751 399.14749 403.3175 407.48749 411.6575 413.74249 417.49249 420.10251 421.76749 425.51749 427.1825">food crisis</tspan>
    </text>
    <text
       id="text9464"
       style="font-variant:normal;font-weight:normal;font-size:7.5px;font-family:Helvetica;-inkscape-font-specification:Helvetica;writing-mode:lr-tb;fill:#7f7f7f;fill-opacity:1;fill-rule:nonzero;stroke:none"
       x="383.5"
       y="517.44971">
      <tspan
         id="tspan9466"
         sodipodi:role="line"
         y="517.44971"
         x="383.5 389.33499 393.715 397.88501 399.97 404.13998">G=0.54</tspan>
    </text>
    <g
       id="g9468"
       transform="matrix(1.25,0,0,-1.25,109.375,664.8622)" />
    <g
       id="g9470"
       transform="matrix(1.25,0,0,-1.25,109.375,664.8622)">
      <path
         inkscape:connector-curvature="0"
         id="path9472"
         style="fill:none;stroke:#000000;stroke-width:1.05999994;stroke-linecap:butt;stroke-linejoin:round;stroke-miterlimit:10;stroke-dasharray:none;stroke-opacity:1"
         d="m 43.6,38.93 0,159.27" />
    </g>
    <g
       id="g9474"
       transform="matrix(1.25,0,0,-1.25,109.375,664.8622)">
      <text
         id="text9476"
         style="font-variant:normal;font-weight:normal;font-size:6px;font-family:Garamond;-inkscape-font-specification:Garamond;writing-mode:lr-tb;fill:#000000;fill-opacity:1;fill-rule:nonzero;stroke:none"
         transform="matrix(1,0,0,-1,33.7,44.28)">
        <tspan
           id="tspan9478"
           y="0"
           x="0">0</tspan>
      </text>
      <text
         id="text9480"
         style="font-variant:normal;font-weight:normal;font-size:6px;font-family:Garamond;-inkscape-font-specification:Garamond;writing-mode:lr-tb;fill:#000000;fill-opacity:1;fill-rule:nonzero;stroke:none"
         transform="matrix(1,0,0,-1,30.89,80.48)">
        <tspan
           id="tspan9482"
           sodipodi:role="line"
           y="0"
           x="0 2.8139999">25</tspan>
      </text>
      <text
         id="text9484"
         style="font-variant:normal;font-weight:normal;font-size:6px;font-family:Garamond;-inkscape-font-specification:Garamond;writing-mode:lr-tb;fill:#000000;fill-opacity:1;fill-rule:nonzero;stroke:none"
         transform="matrix(1,0,0,-1,30.89,116.68)">
        <tspan
           id="tspan9486"
           sodipodi:role="line"
           y="0"
           x="0 2.8139999">50</tspan>
      </text>
      <text
         id="text9488"
         style="font-variant:normal;font-weight:normal;font-size:6px;font-family:Garamond;-inkscape-font-specification:Garamond;writing-mode:lr-tb;fill:#000000;fill-opacity:1;fill-rule:nonzero;stroke:none"
         transform="matrix(1,0,0,-1,30.89,152.88)">
        <tspan
           id="tspan9490"
           sodipodi:role="line"
           y="0"
           x="0 2.8139999">75</tspan>
      </text>
      <text
         id="text9492"
         style="font-variant:normal;font-weight:normal;font-size:6px;font-family:Garamond;-inkscape-font-specification:Garamond;writing-mode:lr-tb;fill:#000000;fill-opacity:1;fill-rule:nonzero;stroke:none"
         transform="matrix(1,0,0,-1,28.07,189.07)">
        <tspan
           id="tspan9494"
           sodipodi:role="line"
           y="0"
           x="0 2.8139999 5.6279998">100</tspan>
      </text>
    </g>
    <g
       id="g9496"
       transform="matrix(1.25,0,0,-1.25,109.375,664.8622)" />
    <g
       id="g9498"
       transform="matrix(1.25,0,0,-1.25,109.375,664.8622)">
      <path
         inkscape:connector-curvature="0"
         id="path9500"
         style="fill:none;stroke:#000000;stroke-width:1.05999994;stroke-linecap:butt;stroke-linejoin:round;stroke-miterlimit:10;stroke-dasharray:none;stroke-opacity:1"
         d="m 39.35,46.17 4.25,0" />
      <path
         inkscape:connector-curvature="0"
         id="path9502"
         style="fill:none;stroke:#000000;stroke-width:1.05999994;stroke-linecap:butt;stroke-linejoin:round;stroke-miterlimit:10;stroke-dasharray:none;stroke-opacity:1"
         d="m 39.35,82.37 4.25,0" />
      <path
         inkscape:connector-curvature="0"
         id="path9504"
         style="fill:none;stroke:#000000;stroke-width:1.05999994;stroke-linecap:butt;stroke-linejoin:round;stroke-miterlimit:10;stroke-dasharray:none;stroke-opacity:1"
         d="m 39.35,118.57 4.25,0" />
      <path
         inkscape:connector-curvature="0"
         id="path9506"
         style="fill:none;stroke:#000000;stroke-width:1.05999994;stroke-linecap:butt;stroke-linejoin:round;stroke-miterlimit:10;stroke-dasharray:none;stroke-opacity:1"
         d="m 39.35,154.76 4.25,0" />
      <path
         inkscape:connector-curvature="0"
         id="path9508"
         style="fill:none;stroke:#000000;stroke-width:1.05999994;stroke-linecap:butt;stroke-linejoin:round;stroke-miterlimit:10;stroke-dasharray:none;stroke-opacity:1"
         d="m 39.35,190.96 4.25,0" />
    </g>
    <g
       id="g9510"
       transform="matrix(1.25,0,0,-1.25,109.375,664.8622)" />
    <g
       id="g9512"
       transform="matrix(1.25,0,0,-1.25,109.375,664.8622)" />
    <g
       id="g9514"
       transform="matrix(1.25,0,0,-1.25,109.375,664.8622)" />
    <g
       id="g9516"
       transform="matrix(1.25,0,0,-1.25,109.375,664.8622)" />
    <g
       id="g9518"
       transform="matrix(1.25,0,0,-1.25,109.375,664.8622)">
      <path
         inkscape:connector-curvature="0"
         id="path9520"
         style="fill:none;stroke:#000000;stroke-width:1.05999994;stroke-linecap:butt;stroke-linejoin:round;stroke-miterlimit:10;stroke-dasharray:none;stroke-opacity:1"
         d="m 43.6,38.93 367.2,0" />
    </g>
    <g
       id="g9522"
       transform="matrix(1.25,0,0,-1.25,109.375,664.8622)">
      <path
         inkscape:connector-curvature="0"
         id="path9524"
         style="fill:none;stroke:#000000;stroke-width:1.05999994;stroke-linecap:butt;stroke-linejoin:round;stroke-miterlimit:10;stroke-dasharray:none;stroke-opacity:1"
         d="m 60.29,34.68 0,4.25" />
      <path
         inkscape:connector-curvature="0"
         id="path9526"
         style="fill:none;stroke:#000000;stroke-width:1.05999994;stroke-linecap:butt;stroke-linejoin:round;stroke-miterlimit:10;stroke-dasharray:none;stroke-opacity:1"
         d="m 143.75,34.68 0,4.25" />
      <path
         inkscape:connector-curvature="0"
         id="path9528"
         style="fill:none;stroke:#000000;stroke-width:1.05999994;stroke-linecap:butt;stroke-linejoin:round;stroke-miterlimit:10;stroke-dasharray:none;stroke-opacity:1"
         d="m 227.2,34.68 0,4.25" />
      <path
         inkscape:connector-curvature="0"
         id="path9530"
         style="fill:none;stroke:#000000;stroke-width:1.05999994;stroke-linecap:butt;stroke-linejoin:round;stroke-miterlimit:10;stroke-dasharray:none;stroke-opacity:1"
         d="m 310.65,34.68 0,4.25" />
      <path
         inkscape:connector-curvature="0"
         id="path9532"
         style="fill:none;stroke:#000000;stroke-width:1.05999994;stroke-linecap:butt;stroke-linejoin:round;stroke-miterlimit:10;stroke-dasharray:none;stroke-opacity:1"
         d="m 394.11,34.68 0,4.25" />
    </g>
    <g
       id="g9534"
       transform="matrix(1.25,0,0,-1.25,109.375,664.8622)" />
    <g
       id="g9536"
       transform="matrix(1.25,0,0,-1.25,109.375,664.8622)">
      <text
         id="text9538"
         style="font-variant:normal;font-weight:normal;font-size:6px;font-family:Garamond;-inkscape-font-specification:Garamond;writing-mode:lr-tb;fill:#000000;fill-opacity:1;fill-rule:nonzero;stroke:none"
         transform="matrix(1,0,0,-1,55.41,28.07)">
        <tspan
           id="tspan9540"
           sodipodi:role="line"
           y="0"
           x="0 2.8139999 4.1279998 6.9419999">0.00</tspan>
      </text>
      <text
         id="text9542"
         style="font-variant:normal;font-weight:normal;font-size:6px;font-family:Garamond;-inkscape-font-specification:Garamond;writing-mode:lr-tb;fill:#000000;fill-opacity:1;fill-rule:nonzero;stroke:none"
         transform="matrix(1,0,0,-1,138.87,28.07)">
        <tspan
           id="tspan9544"
           sodipodi:role="line"
           y="0"
           x="0 2.8139999 4.1279998 6.9419999">0.25</tspan>
      </text>
      <text
         id="text9546"
         style="font-variant:normal;font-weight:normal;font-size:6px;font-family:Garamond;-inkscape-font-specification:Garamond;writing-mode:lr-tb;fill:#000000;fill-opacity:1;fill-rule:nonzero;stroke:none"
         transform="matrix(1,0,0,-1,222.32,28.07)">
        <tspan
           id="tspan9548"
           sodipodi:role="line"
           y="0"
           x="0 2.8139999 4.1279998 6.9419999">0.50</tspan>
      </text>
      <text
         id="text9550"
         style="font-variant:normal;font-weight:normal;font-size:6px;font-family:Garamond;-inkscape-font-specification:Garamond;writing-mode:lr-tb;fill:#000000;fill-opacity:1;fill-rule:nonzero;stroke:none"
         transform="matrix(1,0,0,-1,305.77,28.07)">
        <tspan
           id="tspan9552"
           sodipodi:role="line"
           y="0"
           x="0 2.8139999 4.1279998 6.9419999">0.75</tspan>
      </text>
      <text
         id="text9554"
         style="font-variant:normal;font-weight:normal;font-size:6px;font-family:Garamond;-inkscape-font-specification:Garamond;writing-mode:lr-tb;fill:#000000;fill-opacity:1;fill-rule:nonzero;stroke:none"
         transform="matrix(1,0,0,-1,389.23,28.07)">
        <tspan
           id="tspan9556"
           sodipodi:role="line"
           y="0"
           x="0 2.8139999 4.1279998 6.9419999">1.00</tspan>
      </text>
    </g>
    <g
       id="g9558"
       transform="matrix(1.25,0,0,-1.25,109.375,664.8622)" />
    <g
       id="g9560"
       transform="matrix(1.25,0,0,-1.25,109.375,664.8622)" />
    <g
       id="g9562"
       transform="matrix(1.25,0,0,-1.25,109.375,664.8622)" />
    <g
       id="g9564"
       transform="matrix(1.25,0,0,-1.25,109.375,664.8622)" />
    <g
       id="g9566"
       transform="matrix(1.25,0,0,-1.25,109.375,664.8622)">
      <text
         id="text9568"
         style="font-variant:normal;font-weight:normal;font-size:8px;font-family:Garamond;-inkscape-font-specification:Garamond;writing-mode:lr-tb;fill:#000000;fill-opacity:1;fill-rule:nonzero;stroke:none"
         transform="matrix(1,0,0,-1,199.45,19.44)">
        <tspan
           id="tspan9570"
           sodipodi:role="line"
           y="0"
           x="0 2.832 6.9120002 10.248 14.328 20.496 23.832001 25.832001 27.664 31.743999 35.080002 39 42.919998 46.167999 48 49.832001 52.167999">Income inequality</tspan>
      </text>
      <text
         id="text9572"
         style="font-variant:normal;font-weight:normal;font-size:8px;font-family:Garamond;-inkscape-font-specification:Garamond;writing-mode:lr-tb;fill:#000000;fill-opacity:1;fill-rule:nonzero;stroke:none"
         transform="matrix(1,0,0,-1,201.49,10.8)">
        <tspan
           id="tspan9574"
           sodipodi:role="line"
           y="0"
           x="0 2.336 8.5039997 10.336 14.416 16.247999 18.247999 21.584 25.664 29 31.584 34.167999 37.504002 39.335999 42.672001 46.751999 49.088001">(Gini coeffcient)</tspan>
      </text>
    </g>
    <g
       id="g9576"
       transform="matrix(1.25,0,0,-1.25,109.375,664.8622)" />
    <g
       id="g9578"
       transform="matrix(1.25,0,0,-1.25,109.375,664.8622)">
      <text
         id="text9580"
         style="font-variant:normal;font-weight:normal;font-size:8px;font-family:Garamond;-inkscape-font-specification:Garamond;writing-mode:lr-tb;fill:#000000;fill-opacity:1;fill-rule:nonzero;stroke:none"
         transform="matrix(0,1,1,0,15.83,99.88)">
        <tspan
           id="tspan9582"
           sodipodi:role="line"
           y="0"
           x="0 6.0799999 10 14.08 17.784 21.120001 23.784 25.784 28.448 31.695999 34.032001">Hunger rate</tspan>
      </text>
      <text
         id="text9584"
         style="font-variant:normal;font-weight:normal;font-size:8px;font-family:Garamond;-inkscape-font-specification:Garamond;writing-mode:lr-tb;fill:#000000;fill-opacity:1;fill-rule:nonzero;stroke:none"
         transform="matrix(0,1,1,0,24.47,82.53)">
        <tspan
           id="tspan9586"
           sodipodi:role="line"
           y="0"
           x="0 2.336 6.4159999 9.7519999 12.416 15.752 19.087999 23.167999 25.504 27.504 31.584 34.167999 36.167999 40.248001 44.327999 48.408001 52.327999 54.16 57.408001 59.743999 61.576 65.655998 69.736">(percent of population)</tspan>
      </text>
    </g>
    <g
       id="g9588"
       transform="matrix(1.25,0,0,-1.25,109.375,664.8622)" />
    <g
       id="g9590"
       transform="matrix(1.25,0,0,-1.25,109.375,664.8622)" />
    <g
       id="g9592"
       transform="matrix(1.25,0,0,-1.25,109.375,664.8622)" />
    <g
       id="g9594"
       transform="matrix(1.25,0,0,-1.25,109.375,664.8622)" />
  </g>
</svg>
