<?xml version="1.0" encoding="UTF-8" standalone="no"?>
<!-- Created with Inkscape (http://www.inkscape.org/) -->

<svg
   xmlns:dc="http://purl.org/dc/elements/1.1/"
   xmlns:cc="http://creativecommons.org/ns#"
   xmlns:rdf="http://www.w3.org/1999/02/22-rdf-syntax-ns#"
   xmlns:svg="http://www.w3.org/2000/svg"
   xmlns="http://www.w3.org/2000/svg"
   xmlns:sodipodi="http://sodipodi.sourceforge.net/DTD/sodipodi-0.dtd"
   xmlns:inkscape="http://www.inkscape.org/namespaces/inkscape"
   width="110.08924mm"
   height="71.358528mm"
   viewBox="0 0 390.07999 252.84518"
   id="svg6082"
   version="1.1"
   inkscape:version="0.91 r13725"
   sodipodi:docname="Storage-policy.svg">
  <defs
     id="defs6084">
    <clipPath
       id="clipPath6106"
       clipPathUnits="userSpaceOnUse">
      <path
         inkscape:connector-curvature="0"
         id="path6108"
         d="M 0,0 390,0 390,192 0,192 0,0 Z" />
    </clipPath>
    <clipPath
       id="clipPath6116"
       clipPathUnits="userSpaceOnUse">
      <path
         inkscape:connector-curvature="0"
         id="path6118"
         d="M 0,0 425,0 425,212 0,212 0,0 Z" />
    </clipPath>
    <clipPath
       id="clipPath6140"
       clipPathUnits="userSpaceOnUse">
      <path
         inkscape:connector-curvature="0"
         id="path6142"
         d="m 46.68,48.28 258.82,0 0,149.91 -258.82,0 0,-149.91 z" />
    </clipPath>
  </defs>
  <sodipodi:namedview
     id="base"
     pagecolor="#ffffff"
     bordercolor="#666666"
     borderopacity="1.0"
     inkscape:pageopacity="0.0"
     inkscape:pageshadow="2"
     inkscape:zoom="2.1321989"
     inkscape:cx="175.224"
     inkscape:cy="128.86358"
     inkscape:document-units="px"
     inkscape:current-layer="layer1"
     showgrid="false"
     fit-margin-top="0"
     fit-margin-left="0"
     fit-margin-right="0"
     fit-margin-bottom="0"
     inkscape:window-width="1920"
     inkscape:window-height="1018"
     inkscape:window-x="892"
     inkscape:window-y="512"
     inkscape:window-maximized="1" />
  <metadata
     id="metadata6087">
    <rdf:RDF>
      <cc:Work
         rdf:about="">
        <dc:format>image/svg+xml</dc:format>
        <dc:type
           rdf:resource="http://purl.org/dc/dcmitype/StillImage" />
        <dc:title></dc:title>
      </cc:Work>
    </rdf:RDF>
  </metadata>
  <g
     inkscape:label="Layer 1"
     inkscape:groupmode="layer"
     id="layer1"
     transform="translate(-122.3911,-408.3806)">
    <g
       id="g6120"
       transform="matrix(1.25,0,0,-1.25,122.5,661.1122)" />
    <g
       id="g6122"
       transform="matrix(1.25,0,0,-1.25,122.5,661.1122)" />
    <g
       id="g6124"
       transform="matrix(1.25,0,0,-1.25,122.5,661.1122)" />
    <g
       id="g6126"
       transform="matrix(0.91740353,0,0,-1.1893,122.3911,661.22578)"
       style="fill:none;stroke:none">
      <path
         d="m 0,0 425.2,0 0,212.6 L 0,212.6 0,0 Z"
         style="fill:none;fill-opacity:1;fill-rule:nonzero;stroke:none;stroke-width:1.05999994;stroke-linecap:round;stroke-linejoin:round;stroke-miterlimit:10;stroke-dasharray:none;stroke-opacity:1"
         id="path6128"
         inkscape:connector-curvature="0" />
    </g>
    <g
       id="g6130"
       transform="matrix(1.25,0,0,-1.25,122.5,661.1122)" />
    <g
       id="g6132"
       transform="matrix(1.25,0,0,-1.25,122.5,661.1122)" />
    <g
       id="g6134"
       transform="matrix(1.25,0,0,-1.25,122.5,661.1122)" />
    <path
       d="m 180.85,562.4997 323.525,0"
       style="fill:none;stroke:#f2f2f2;stroke-width:0.66249996;stroke-linecap:butt;stroke-linejoin:round;stroke-miterlimit:10;stroke-dasharray:none;stroke-opacity:1"
       id="path6146"
       inkscape:connector-curvature="0" />
    <path
       d="m 180.85,498.7372 323.525,0"
       style="fill:none;stroke:#f2f2f2;stroke-width:0.662;stroke-linecap:butt;stroke-linejoin:round;stroke-miterlimit:10;stroke-dasharray:none;stroke-opacity:1"
       id="path6148"
       inkscape:connector-curvature="0" />
    <path
       d="m 180.85,434.9622 323.525,0"
       style="fill:none;stroke:#f2f2f2;stroke-width:0.66249996;stroke-linecap:butt;stroke-linejoin:round;stroke-miterlimit:10;stroke-dasharray:none;stroke-opacity:1"
       id="path6150"
       inkscape:connector-curvature="0" />
    <path
       d="m 212.6625,600.7622 0,-187.4"
       style="fill:none;stroke:#f2f2f2;stroke-width:0.66249996;stroke-linecap:butt;stroke-linejoin:round;stroke-miterlimit:10;stroke-dasharray:none;stroke-opacity:1"
       id="path6152"
       inkscape:connector-curvature="0" />
    <path
       d="m 275.025,600.7622 0,-187.4"
       style="fill:none;stroke:#f2f2f2;stroke-width:0.66249996;stroke-linecap:butt;stroke-linejoin:round;stroke-miterlimit:10;stroke-dasharray:none;stroke-opacity:1"
       id="path6154"
       inkscape:connector-curvature="0" />
    <path
       d="m 337.3875,600.7622 0,-187.4"
       style="fill:none;stroke:#f2f2f2;stroke-width:0.66249996;stroke-linecap:butt;stroke-linejoin:round;stroke-miterlimit:10;stroke-dasharray:none;stroke-opacity:1"
       id="path6156"
       inkscape:connector-curvature="0" />
    <path
       d="m 399.7625,600.7622 0,-187.4"
       style="fill:none;stroke:#f2f2f2;stroke-width:0.66249996;stroke-linecap:butt;stroke-linejoin:round;stroke-miterlimit:10;stroke-dasharray:none;stroke-opacity:1"
       id="path6158"
       inkscape:connector-curvature="0" />
    <path
       d="m 462.125,600.7622 0,-187.4"
       style="fill:none;stroke:#f2f2f2;stroke-width:0.66249996;stroke-linecap:butt;stroke-linejoin:round;stroke-miterlimit:10;stroke-dasharray:none;stroke-opacity:1"
       id="path6160"
       inkscape:connector-curvature="0" />
    <path
       d="m 180.85,594.3747 323.525,0"
       style="fill:none;stroke:#ffffff;stroke-width:1.32499993;stroke-linecap:butt;stroke-linejoin:round;stroke-miterlimit:10;stroke-dasharray:none;stroke-opacity:1"
       id="path6162"
       inkscape:connector-curvature="0" />
    <path
       d="m 180.85,530.6122 323.525,0"
       style="fill:none;stroke:#ffffff;stroke-width:1.32499993;stroke-linecap:butt;stroke-linejoin:round;stroke-miterlimit:10;stroke-dasharray:none;stroke-opacity:1"
       id="path6164"
       inkscape:connector-curvature="0" />
    <path
       d="m 180.85,466.8497 323.525,0"
       style="fill:none;stroke:#ffffff;stroke-width:1.32499993;stroke-linecap:butt;stroke-linejoin:round;stroke-miterlimit:10;stroke-dasharray:none;stroke-opacity:1"
       id="path6166"
       inkscape:connector-curvature="0" />
    <path
       d="m 181.475,600.7622 0,-187.4"
       style="fill:none;stroke:#ffffff;stroke-width:1.32499993;stroke-linecap:butt;stroke-linejoin:round;stroke-miterlimit:10;stroke-dasharray:none;stroke-opacity:1"
       id="path6168"
       inkscape:connector-curvature="0" />
    <path
       d="m 243.85,600.7622 0,-187.4"
       style="fill:none;stroke:#ffffff;stroke-width:1.32499993;stroke-linecap:butt;stroke-linejoin:round;stroke-miterlimit:10;stroke-dasharray:none;stroke-opacity:1"
       id="path6170"
       inkscape:connector-curvature="0" />
    <path
       d="m 306.2125,600.7622 0,-187.4"
       style="fill:none;stroke:#ffffff;stroke-width:1.32499993;stroke-linecap:butt;stroke-linejoin:round;stroke-miterlimit:10;stroke-dasharray:none;stroke-opacity:1"
       id="path6172"
       inkscape:connector-curvature="0" />
    <path
       d="m 368.575,600.7622 0,-187.4"
       style="fill:none;stroke:#ffffff;stroke-width:1.32499993;stroke-linecap:butt;stroke-linejoin:round;stroke-miterlimit:10;stroke-dasharray:none;stroke-opacity:1"
       id="path6174"
       inkscape:connector-curvature="0" />
    <path
       d="m 430.9375,600.7622 0,-187.4"
       style="fill:none;stroke:#ffffff;stroke-width:1.32499993;stroke-linecap:butt;stroke-linejoin:round;stroke-miterlimit:10;stroke-dasharray:none;stroke-opacity:1"
       id="path6176"
       inkscape:connector-curvature="0" />
    <path
       d="m 493.3125,600.7622 0,-187.4"
       style="fill:none;stroke:#ffffff;stroke-width:1.32499993;stroke-linecap:butt;stroke-linejoin:round;stroke-miterlimit:10;stroke-dasharray:none;stroke-opacity:1"
       id="path6178"
       inkscape:connector-curvature="0" />
    <path
       d="m 180.85,594.3747 323.525,0"
       style="fill:none;stroke:#666666;stroke-width:1.0625;stroke-linecap:butt;stroke-linejoin:round;stroke-miterlimit:10;stroke-dasharray:none;stroke-opacity:1"
       id="path6180"
       inkscape:connector-curvature="0" />
    <path
       d="m 181.475,600.7622 0,-187.4"
       style="fill:none;stroke:#666666;stroke-width:1.0625;stroke-linecap:butt;stroke-linejoin:round;stroke-miterlimit:10;stroke-dasharray:none;stroke-opacity:1"
       id="path6182"
       inkscape:connector-curvature="0" />
    <path
       d="m 180.85,594.6997 323.525,-165.4"
       style="fill:none;stroke:#666666;stroke-width:1.0625;stroke-linecap:butt;stroke-linejoin:round;stroke-miterlimit:10;stroke-dasharray:1.0625, 3.1875;stroke-dashoffset:0;stroke-opacity:1"
       id="path6184"
       inkscape:connector-curvature="0" />
    <text
       style="font-variant:normal;font-weight:normal;font-size:7.5px;font-family:Helvetica;-inkscape-font-specification:Helvetica;writing-mode:lr-tb;fill:#666666;fill-opacity:1;fill-rule:nonzero;stroke:none"
       id="text6186"
       x="192.825"
       y="586.29968">
      <tspan
         x="192.825 196.995 201.16499"
         y="586.29968"
         sodipodi:role="line"
         id="tspan6188">45°</tspan>
    </text>
    <path
       d="m 181.475,553.2372 2.275,-0.7875 2.2625,-0.7875 2.275,-0.7875 2.2625,-0.7875 2.2625,-0.7875 2.275,-0.7875 2.2625,-0.7875 2.275,-0.8 2.2625,-0.7875 2.275,-0.8 2.2625,-0.8 2.2625,-0.8125 2.275,-0.8 2.2625,-0.8125 2.275,-0.8125 2.2625,-0.8125 2.275,-0.8125 2.2625,-0.825 2.2625,-0.825 2.275,-0.825 2.2625,-0.8375 2.275,-0.825 2.2625,-0.8375 2.275,-0.85 2.2625,-0.8375 2.2625,-0.85 2.275,-0.85 2.2625,-0.8625 2.275,-0.85 2.2625,-0.8625 2.275,-0.8625 2.2625,-0.875 2.2625,-0.8625 2.275,-0.875 2.2625,-0.875 2.275,-0.875 2.2625,-0.8875 2.275,-0.875 2.2625,-0.8875 2.2625,-0.875 2.275,-0.8875 2.2625,-0.8875 2.275,-0.8875 2.2625,-0.8875 2.275,-0.8875 2.2625,-0.8875 2.2625,-0.8875 2.275,-0.8875 2.2625,-0.8875 2.275,-0.8875 2.2625,-0.8875 2.275,-0.8875 2.2625,-0.8875 2.2625,-0.875 2.275,-0.8875 2.2625,-0.8875 2.275,-0.8875 2.2625,-0.875 2.275,-0.8875 2.2625,-0.875 2.2625,-0.8875 2.275,-0.875 2.2625,-0.875 2.275,-0.8875 2.2625,-0.875 2.275,-0.875 2.2625,-0.8875 2.2625,-0.875 2.275,-0.875 2.2625,-0.8875 2.275,-0.875 2.2625,-0.875 2.275,-0.8875 2.2625,-0.875 2.2625,-0.875 2.275,-0.8875 2.2625,-0.8875 2.275,-0.875 2.2625,-0.8875 2.275,-0.8875 2.2625,-0.875 2.2625,-0.8875 2.275,-0.8875 2.2625,-0.8875 2.275,-0.8875 2.2625,-0.9 2.275,-0.8875 2.2625,-0.8875 2.2625,-0.8875 2.275,-0.9 2.2625,-0.8875 2.275,-0.8875 2.2625,-0.9 2.275,-0.8875 2.2625,-0.8875 2.2625,-0.9 2.275,-0.8875 2.2625,-0.8875 2.275,-0.8875 2.2625,-0.8875 2.2625,-0.8875 2.275,-0.8875 2.2625,-0.8875 2.275,-0.875 2.2625,-0.8875 2.275,-0.8875 2.2625,-0.875 2.2625,-0.875 2.275,-0.8875 2.2625,-0.875 2.275,-0.875 2.2625,-0.875 2.275,-0.875 2.2625,-0.8875 2.2625,-0.875 2.275,-0.875 2.2625,-0.8875 2.275,-0.875 2.2625,-0.8875 2.275,-0.8875 2.2625,-0.8875 2.2625,-0.9 2.275,-0.8875 2.2625,-0.9 2.275,-0.9 2.2625,-0.9125 2.275,-0.9125 2.2625,-0.9125 2.2625,-0.9125 2.275,-0.925 2.2625,-0.9125 2.275,-0.9125 2.2625,-0.9125 2.275,-0.9125 2.2625,-0.8875 2.2625,-0.875 2.275,-0.8625 2.2625,-0.8375 2.275,-0.8125 2.2625,-0.7875 2.275,-0.7625 2.2625,-0.725 2.2625,-0.7"
       style="fill:none;stroke:#104e8b;stroke-width:5.3125;stroke-linecap:butt;stroke-linejoin:round;stroke-miterlimit:1;stroke-dasharray:none;stroke-opacity:1"
       id="path6190"
       inkscape:connector-curvature="0" />
    <path
       d="m 181.475,594.3747 2.275,0 2.2625,0 2.275,0 2.2625,0 2.2625,0 2.275,0 2.2625,0 2.275,0 2.2625,0 2.275,0 2.2625,0 2.2625,0 2.275,0 2.2625,0 2.275,0 2.2625,0 2.275,0 2.2625,0 2.2625,0 2.275,0 2.2625,0 2.275,0 2.2625,0 2.275,0 2.2625,0 2.2625,0 2.275,0 2.2625,0 2.275,0 2.2625,0 2.275,0 2.2625,0 2.2625,0 2.275,0 2.2625,0 2.275,0 2.2625,0 2.275,0 2.2625,0 2.2625,0 2.275,0 2.2625,0 2.275,0 2.2625,0 2.275,0 2.2625,0 2.2625,0 2.275,0 2.2625,0 2.275,0 2.2625,0 2.275,0 2.2625,-0.175 2.2625,-0.9625 2.275,-0.825 2.2625,-0.7375 2.275,-0.7 2.2625,-0.6625 2.275,-0.6375 2.2625,-0.6125 2.2625,-0.6 2.275,-0.6 2.2625,-0.5875 2.275,-0.575 2.2625,-0.575 2.275,-0.5625 2.2625,-0.575 2.2625,-0.5625 2.275,-0.575 2.2625,-0.5625 2.275,-0.575 2.2625,-0.5625 2.275,-0.575 2.2625,-0.575 2.2625,-0.575 2.275,-0.5875 2.2625,-0.5875 2.275,-0.5875 2.2625,-0.5875 2.275,-0.6 2.2625,-0.6 2.2625,-0.6 2.275,-0.6 2.2625,-0.6125 2.275,-0.6125 2.2625,-0.6125 2.275,-0.6125 2.2625,-0.6125 2.2625,-0.625 2.275,-0.6125 2.2625,-0.625 2.275,-0.6125 2.2625,-0.625 2.275,-0.625 2.2625,-0.6125 2.2625,-0.625 2.275,-0.6125 2.2625,-0.625 2.275,-0.6125 2.2625,-0.6125 2.2625,-0.6125 2.275,-0.6125 2.2625,-0.6125 2.275,-0.6 2.2625,-0.6125 2.275,-0.6 2.2625,-0.6 2.2625,-0.6 2.275,-0.6 2.2625,-0.6 2.275,-0.6 2.2625,-0.5875 2.275,-0.6 2.2625,-0.5875 2.2625,-0.5875 2.275,-0.5875 2.2625,-0.6 2.275,-0.5875 2.2625,-0.5875 2.275,-0.5875 2.2625,-0.5875 2.2625,-0.5875 2.275,-0.5875 2.2625,-0.5875 2.275,-0.5875 2.2625,-0.5875 2.275,-0.6 2.2625,-0.5875 2.2625,-0.6 2.275,-0.5875 2.2625,-0.6 2.275,-0.6 2.2625,-0.6125 2.275,-0.6 2.2625,-0.6125 2.2625,-0.6125 2.275,-0.6125 2.2625,-0.625 2.275,-0.625 2.2625,-0.625 2.275,-0.6375 2.2625,-0.6375 2.2625,-0.6375"
       style="fill:none;stroke:#b22222;stroke-width:5.3125;stroke-linecap:butt;stroke-linejoin:round;stroke-miterlimit:1;stroke-dasharray:none;stroke-opacity:1"
       id="path6192"
       inkscape:connector-curvature="0" />
    <text
       style="font-variant:normal;font-weight:normal;font-size:11.25px;font-family:Helvetica;-inkscape-font-specification:Helvetica;writing-mode:lr-tb;fill:#104e8b;fill-opacity:0.70200004;fill-rule:nonzero;stroke:none"
       id="text6194"
       x="292.75"
       y="470.23721">
      <tspan
         x="292.75 295.8775 299.51126 305.76624 312.02124 318.27625 324.53125 327.02875 329.52625 332.65375 338.90875 345.16376 349.07874 351.57626 357.83124"
         y="470.23721"
         sodipodi:role="line"
         id="tspan6196">tranquil period</tspan>
    </text>
    <text
       style="font-variant:normal;font-weight:normal;font-size:11.25px;font-family:Helvetica;-inkscape-font-specification:Helvetica;writing-mode:lr-tb;fill:#b22222;fill-opacity:0.70200004;fill-rule:nonzero;stroke:none"
       id="text6198"
       x="324.0625"
       y="567.63721">
      <tspan
         x="324.0625 326.85251 333.10751 339.36249 345.61749 348.745 354.37 358.285 360.7825 366.4075 368.905"
         y="567.63721"
         sodipodi:role="line"
         id="tspan6200">food crisis</tspan>
    </text>
    <g
       id="g6202"
       transform="matrix(1.25,0,0,-1.25,122.5,661.1122)" />
    <g
       id="g6204"
       transform="matrix(1.25,0,0,-1.25,122.5,661.1122)" />
    <g
       id="g6206"
       transform="matrix(1.25,0,0,-1.25,122.5,661.1122)">
      <text
         transform="matrix(1,0,0,-1,34.91,50.24)"
         style="font-variant:normal;font-weight:normal;font-size:10px;font-family:Garamond;-inkscape-font-specification:Garamond;writing-mode:lr-tb;fill:#7f7f7f;fill-opacity:1;fill-rule:nonzero;stroke:none"
         id="text6208">
        <tspan
           x="0"
           y="0"
           id="tspan6210">0</tspan>
      </text>
      <text
         transform="matrix(1,0,0,-1,34.91,101.25)"
         style="font-variant:normal;font-weight:normal;font-size:10px;font-family:Garamond;-inkscape-font-specification:Garamond;writing-mode:lr-tb;fill:#7f7f7f;fill-opacity:1;fill-rule:nonzero;stroke:none"
         id="text6212">
        <tspan
           x="0"
           y="0"
           id="tspan6214">2</tspan>
      </text>
      <text
         transform="matrix(1,0,0,-1,34.91,152.27)"
         style="font-variant:normal;font-weight:normal;font-size:10px;font-family:Garamond;-inkscape-font-specification:Garamond;writing-mode:lr-tb;fill:#7f7f7f;fill-opacity:1;fill-rule:nonzero;stroke:none"
         id="text6216">
        <tspan
           x="0"
           y="0"
           id="tspan6218">4</tspan>
      </text>
    </g>
    <g
       id="g6220"
       transform="matrix(1.25,0,0,-1.25,122.5,661.1122)" />
    <g
       id="g6222"
       transform="matrix(1.25,0,0,-1.25,122.5,661.1122)">
      <path
         d="m 42.43,53.39 4.25,0"
         style="fill:none;stroke:#7f7f7f;stroke-width:1.05999994;stroke-linecap:butt;stroke-linejoin:round;stroke-miterlimit:10;stroke-dasharray:none;stroke-opacity:1"
         id="path6224"
         inkscape:connector-curvature="0" />
      <path
         d="m 42.43,104.4 4.25,0"
         style="fill:none;stroke:#7f7f7f;stroke-width:1.05999994;stroke-linecap:butt;stroke-linejoin:round;stroke-miterlimit:10;stroke-dasharray:none;stroke-opacity:1"
         id="path6226"
         inkscape:connector-curvature="0" />
      <path
         d="m 42.43,155.41 4.25,0"
         style="fill:none;stroke:#7f7f7f;stroke-width:1.05999994;stroke-linecap:butt;stroke-linejoin:round;stroke-miterlimit:10;stroke-dasharray:none;stroke-opacity:1"
         id="path6228"
         inkscape:connector-curvature="0" />
    </g>
    <g
       id="g6230"
       transform="matrix(1.25,0,0,-1.25,122.5,661.1122)" />
    <g
       id="g6232"
       transform="matrix(1.25,0,0,-1.25,122.5,661.1122)" />
    <g
       id="g6234"
       transform="matrix(1.25,0,0,-1.25,122.5,661.1122)" />
    <g
       id="g6236"
       transform="matrix(1.25,0,0,-1.25,122.5,661.1122)" />
    <g
       id="g6238"
       transform="matrix(1.25,0,0,-1.25,122.5,661.1122)" />
    <g
       id="g6240"
       transform="matrix(1.25,0,0,-1.25,122.5,661.1122)">
      <path
         d="m 47.18,44.03 0,4.25"
         style="fill:none;stroke:#7f7f7f;stroke-width:1.05999994;stroke-linecap:butt;stroke-linejoin:round;stroke-miterlimit:10;stroke-dasharray:none;stroke-opacity:1"
         id="path6242"
         inkscape:connector-curvature="0" />
      <path
         d="m 97.08,44.03 0,4.25"
         style="fill:none;stroke:#7f7f7f;stroke-width:1.05999994;stroke-linecap:butt;stroke-linejoin:round;stroke-miterlimit:10;stroke-dasharray:none;stroke-opacity:1"
         id="path6244"
         inkscape:connector-curvature="0" />
      <path
         d="m 146.97,44.03 0,4.25"
         style="fill:none;stroke:#7f7f7f;stroke-width:1.05999994;stroke-linecap:butt;stroke-linejoin:round;stroke-miterlimit:10;stroke-dasharray:none;stroke-opacity:1"
         id="path6246"
         inkscape:connector-curvature="0" />
      <path
         d="m 196.86,44.03 0,4.25"
         style="fill:none;stroke:#7f7f7f;stroke-width:1.05999994;stroke-linecap:butt;stroke-linejoin:round;stroke-miterlimit:10;stroke-dasharray:none;stroke-opacity:1"
         id="path6248"
         inkscape:connector-curvature="0" />
      <path
         d="m 246.75,44.03 0,4.25"
         style="fill:none;stroke:#7f7f7f;stroke-width:1.05999994;stroke-linecap:butt;stroke-linejoin:round;stroke-miterlimit:10;stroke-dasharray:none;stroke-opacity:1"
         id="path6250"
         inkscape:connector-curvature="0" />
      <path
         d="m 296.65,44.03 0,4.25"
         style="fill:none;stroke:#7f7f7f;stroke-width:1.05999994;stroke-linecap:butt;stroke-linejoin:round;stroke-miterlimit:10;stroke-dasharray:none;stroke-opacity:1"
         id="path6252"
         inkscape:connector-curvature="0" />
    </g>
    <g
       id="g6254"
       transform="matrix(1.25,0,0,-1.25,122.5,661.1122)" />
    <g
       id="g6256"
       transform="matrix(1.25,0,0,-1.25,122.5,661.1122)">
      <text
         transform="matrix(1,0,0,-1,44.84,34.91)"
         style="font-variant:normal;font-weight:normal;font-size:10px;font-family:Garamond;-inkscape-font-specification:Garamond;writing-mode:lr-tb;fill:#7f7f7f;fill-opacity:1;fill-rule:nonzero;stroke:none"
         id="text6258">
        <tspan
           x="0"
           y="0"
           id="tspan6260">0</tspan>
      </text>
      <text
         transform="matrix(1,0,0,-1,94.73,34.91)"
         style="font-variant:normal;font-weight:normal;font-size:10px;font-family:Garamond;-inkscape-font-specification:Garamond;writing-mode:lr-tb;fill:#7f7f7f;fill-opacity:1;fill-rule:nonzero;stroke:none"
         id="text6262">
        <tspan
           x="0"
           y="0"
           id="tspan6264">1</tspan>
      </text>
      <text
         transform="matrix(1,0,0,-1,144.62,34.91)"
         style="font-variant:normal;font-weight:normal;font-size:10px;font-family:Garamond;-inkscape-font-specification:Garamond;writing-mode:lr-tb;fill:#7f7f7f;fill-opacity:1;fill-rule:nonzero;stroke:none"
         id="text6266">
        <tspan
           x="0"
           y="0"
           id="tspan6268">2</tspan>
      </text>
      <text
         transform="matrix(1,0,0,-1,194.52,34.91)"
         style="font-variant:normal;font-weight:normal;font-size:10px;font-family:Garamond;-inkscape-font-specification:Garamond;writing-mode:lr-tb;fill:#7f7f7f;fill-opacity:1;fill-rule:nonzero;stroke:none"
         id="text6270">
        <tspan
           x="0"
           y="0"
           id="tspan6272">3</tspan>
      </text>
      <text
         transform="matrix(1,0,0,-1,244.41,34.91)"
         style="font-variant:normal;font-weight:normal;font-size:10px;font-family:Garamond;-inkscape-font-specification:Garamond;writing-mode:lr-tb;fill:#7f7f7f;fill-opacity:1;fill-rule:nonzero;stroke:none"
         id="text6274">
        <tspan
           x="0"
           y="0"
           id="tspan6276">4</tspan>
      </text>
      <text
         transform="matrix(1,0,0,-1,294.3,34.91)"
         style="font-variant:normal;font-weight:normal;font-size:10px;font-family:Garamond;-inkscape-font-specification:Garamond;writing-mode:lr-tb;fill:#7f7f7f;fill-opacity:1;fill-rule:nonzero;stroke:none"
         id="text6278">
        <tspan
           x="0"
           y="0"
           id="tspan6280">5</tspan>
      </text>
    </g>
    <g
       id="g6282"
       transform="matrix(1.25,0,0,-1.25,122.5,661.1122)" />
    <g
       id="g6284"
       transform="matrix(1.25,0,0,-1.25,122.5,661.1122)" />
    <g
       id="g6286"
       transform="matrix(1.25,0,0,-1.25,122.5,661.1122)" />
    <g
       id="g6288"
       transform="matrix(1.25,0,0,-1.25,122.5,661.1122)" />
    <g
       id="g6290"
       transform="matrix(1.25,0,0,-1.25,122.5,661.1122)">
      <text
         transform="matrix(1,0,0,-1,142.87,23.76)"
         style="font-variant:normal;font-weight:normal;font-size:12px;font-family:Garamond;-inkscape-font-specification:Garamond;writing-mode:lr-tb;fill:#000000;fill-opacity:1;fill-rule:nonzero;stroke:none"
         id="text6292">
        <tspan
           x="0 4.2480001 10.368 13.116 16.620001 19.368 24.24 26.988001 29.988001 37.188 42.192001 46.571999 51.576 56.040001 61.439999"
           y="0"
           sodipodi:role="line"
           id="tspan6294">Initial Reserve</tspan>
      </text>
      <text
         transform="matrix(1,0,0,-1,119.27,10.8)"
         style="font-variant:normal;font-weight:normal;font-size:12px;font-family:Garamond;-inkscape-font-specification:Garamond;writing-mode:lr-tb;fill:#000000;fill-opacity:1;fill-rule:nonzero;stroke:none"
         id="text6296">
        <tspan
           x="0 3.5039999 11.352 16.356001 21.360001 26.988001 31.368 34.368 40.487999 44.363998 47.363998 53.040001 57.035999 61.908001 64.655998 70.776001 73.776001 76.524002 85.776001 91.896004 98.015999 102.252 105.756 110.136"
           y="0"
           sodipodi:role="line"
           id="tspan6298">(weeks of grain imports)</tspan>
      </text>
    </g>
    <g
       id="g6300"
       transform="matrix(1.25,0,0,-1.25,122.5,661.1122)" />
    <g
       id="g6302"
       transform="matrix(1.25,0,0,-1.25,122.5,661.1122)">
      <text
         transform="matrix(0,1,1,0,18.35,81.3)"
         style="font-variant:normal;font-weight:normal;font-size:12px;font-family:Garamond;-inkscape-font-specification:Garamond;writing-mode:lr-tb;fill:#000000;fill-opacity:1;fill-rule:nonzero;stroke:none"
         id="text6304">
        <tspan
           x="0 9.2519999 14.256 19.752001 23.256001 26.256001 32.375999 37.380001 41.375999 44.124001 50.243999 56.243999 59.243999 63.624001 67.127998 73.248001 78.251999"
           y="0"
           sodipodi:role="line"
           id="tspan6306">Next period stock</tspan>
      </text>
      <text
         transform="matrix(0,1,1,0,31.31,66.42)"
         style="font-variant:normal;font-weight:normal;font-size:12px;font-family:Garamond;-inkscape-font-specification:Garamond;writing-mode:lr-tb;fill:#000000;fill-opacity:1;fill-rule:nonzero;stroke:none"
         id="text6308">
        <tspan
           x="0 3.5039999 11.352 16.356001 21.360001 26.988001 31.368 34.368 40.487999 44.363998 47.363998 53.040001 57.035999 61.908001 64.655998 70.776001 73.776001 76.524002 85.776001 91.896004 98.015999 102.252 105.756 110.136"
           y="0"
           sodipodi:role="line"
           id="tspan6310">(weeks of grain imports)</tspan>
      </text>
    </g>
    <g
       id="g6312"
       transform="matrix(1.25,0,0,-1.25,122.5,661.1122)" />
    <g
       id="g6314"
       transform="matrix(1.25,0,0,-1.25,122.5,661.1122)" />
    <g
       id="g6316"
       transform="matrix(1.25,0,0,-1.25,122.5,661.1122)" />
    <g
       id="g6318"
       transform="matrix(1.25,0,0,-1.25,122.5,661.1122)" />
    <g
       id="g6320"
       transform="matrix(1.25,0,0,-1.25,122.5,661.1122)" />
    <g
       id="g6326"
       transform="matrix(1.25,0,0,-1.25,122.5,661.1122)" />
    <g
       id="g6334"
       transform="matrix(1.25,0,0,-1.25,122.5,661.1122)" />
    <g
       id="g6340"
       transform="matrix(1.25,0,0,-1.25,122.5,661.1122)" />
    <g
       id="g6346"
       transform="matrix(1.25,0,0,-1.25,122.5,661.1122)" />
    <g
       id="g6352"
       transform="matrix(1.25,0,0,-1.25,122.5,661.1122)" />
    <g
       id="g6358"
       transform="matrix(1.25,0,0,-1.25,122.5,661.1122)" />
    <g
       id="g6366"
       transform="matrix(1.25,0,0,-1.25,122.5,661.1122)" />
    <g
       id="g6374"
       transform="matrix(1.25,0,0,-1.25,122.5,661.1122)" />
    <g
       id="g6376"
       transform="matrix(1.25,0,0,-1.25,122.5,661.1122)" />
    <g
       id="g6378"
       transform="matrix(1.25,0,0,-1.25,122.5,661.1122)" />
    <g
       id="g6380"
       transform="matrix(1.25,0,0,-1.25,122.5,661.1122)" />
    <g
       id="g6382"
       transform="matrix(1.25,0,0,-1.25,122.5,661.1122)" />
    <g
       id="g6384"
       transform="matrix(1.25,0,0,-1.25,122.5,661.1122)" />
    <g
       id="g6386"
       transform="matrix(1.25,0,0,-1.25,122.5,661.1122)" />
    <g
       id="g6388"
       transform="matrix(1.25,0,0,-1.25,122.5,661.1122)" />
    <g
       id="g6390"
       transform="matrix(1.25,0,0,-1.25,122.5,661.1122)" />
    <g
       id="g6392"
       transform="matrix(1.25,0,0,-1.25,122.5,661.1122)" />
    <g
       id="g6394"
       transform="matrix(1.25,0,0,-1.25,122.5,661.1122)" />
    <g
       id="g6396"
       transform="matrix(1.25,0,0,-1.25,122.5,661.1122)" />
  </g>
</svg>
