<?xml version="1.0" encoding="UTF-8" standalone="no"?>
<!-- Created with Inkscape (http://www.inkscape.org/) -->

<svg
   xmlns:dc="http://purl.org/dc/elements/1.1/"
   xmlns:cc="http://creativecommons.org/ns#"
   xmlns:rdf="http://www.w3.org/1999/02/22-rdf-syntax-ns#"
   xmlns:svg="http://www.w3.org/2000/svg"
   xmlns="http://www.w3.org/2000/svg"
   xmlns:sodipodi="http://sodipodi.sourceforge.net/DTD/sodipodi-0.dtd"
   xmlns:inkscape="http://www.inkscape.org/namespaces/inkscape"
   width="165.10001mm"
   height="82.491112mm"
   viewBox="0 0 585.00002 292.29134"
   id="svg2"
   version="1.1"
   inkscape:version="0.91 r13725"
   sodipodi:docname="survival.svg">
  <defs
     id="defs4">
    <clipPath
       id="clipPath4152"
       clipPathUnits="userSpaceOnUse">
      <path
         inkscape:connector-curvature="0"
         id="path4154"
         d="m 0,0 623.99999,0 0,386 L 0,386 0,0 Z" />
    </clipPath>
  </defs>
  <sodipodi:namedview
     id="base"
     pagecolor="#ffffff"
     bordercolor="#666666"
     borderopacity="1.0"
     inkscape:pageopacity="0.0"
     inkscape:pageshadow="2"
     inkscape:zoom="1.6604449"
     inkscape:cx="292.50001"
     inkscape:cy="139.38288"
     inkscape:document-units="px"
     inkscape:current-layer="layer1"
     showgrid="false"
     fit-margin-top="0"
     fit-margin-left="0"
     fit-margin-right="0"
     fit-margin-bottom="0"
     inkscape:window-width="1920"
     inkscape:window-height="1018"
     inkscape:window-x="892"
     inkscape:window-y="512"
     inkscape:window-maximized="1" />
  <metadata
     id="metadata7">
    <rdf:RDF>
      <cc:Work
         rdf:about="">
        <dc:format>image/svg+xml</dc:format>
        <dc:type
           rdf:resource="http://purl.org/dc/dcmitype/StillImage" />
        <dc:title></dc:title>
      </cc:Work>
    </rdf:RDF>
  </metadata>
  <g
     inkscape:label="Layer 1"
     inkscape:groupmode="layer"
     id="layer1"
     transform="translate(338.92858,-420.84581)">
    <path
       d="m -338.92858,420.84581 585.00002,0 0,292.29133 -585.00002,0 0,-292.29133 z"
       style="fill:#ffffff;fill-opacity:1;fill-rule:nonzero;stroke:none;opacity:0"
       id="path4160"
       inkscape:connector-curvature="0" />
    <g
       id="g4166"
       transform="matrix(0.3,0,0,0.24253196,-338.92858,420.84581)">
      <g
         transform="matrix(3.1250001,0,0,3.1221924,1009.3758,1141.6817)"
         id="g4168">
        <text
           id="text4170"
           style="font-variant:normal;font-weight:normal;font-size:15px;font-family:'Times New Roman';-inkscape-font-specification:Times-Roman;writing-mode:lr-tb;fill:#262626;fill-opacity:1;fill-rule:nonzero;stroke:none"
           transform="translate(-13.5,14)">
          <tspan
             id="tspan4172"
             sodipodi:role="line"
             y="0"
             x="0 4.1700001 8.3400002 20.01">time</tspan>
        </text>
      </g>
    </g>
    <g
       transform="matrix(0.93750003,0,0,0.75723144,-338.92858,420.84581)"
       id="g4174">
      <path
         inkscape:connector-curvature="0"
         id="path4176"
         style="fill:none;stroke:#262626;stroke-width:1;stroke-linecap:square;stroke-linejoin:miter;stroke-miterlimit:10;stroke-dasharray:none;stroke-opacity:1"
         d="m 81,344 484,0" />
    </g>
    <g
       transform="matrix(0.93750003,0,0,0.75723144,-338.92858,420.84581)"
       id="g4178">
      <path
         inkscape:connector-curvature="0"
         id="path4180"
         style="fill:none;stroke:#262626;stroke-width:1;stroke-linecap:square;stroke-linejoin:miter;stroke-miterlimit:10;stroke-dasharray:none;stroke-opacity:1"
         d="m 81,344 0,-4.84" />
    </g>
    <g
       transform="matrix(0.93750003,0,0,0.75723144,-338.92858,420.84581)"
       id="g4182">
      <path
         inkscape:connector-curvature="0"
         id="path4184"
         style="fill:none;stroke:#262626;stroke-width:1;stroke-linecap:square;stroke-linejoin:miter;stroke-miterlimit:10;stroke-dasharray:none;stroke-opacity:1"
         d="m 150.14285,344 0,-4.84" />
    </g>
    <g
       transform="matrix(0.93750003,0,0,0.75723144,-338.92858,420.84581)"
       id="g4186">
      <path
         inkscape:connector-curvature="0"
         id="path4188"
         style="fill:none;stroke:#262626;stroke-width:1;stroke-linecap:square;stroke-linejoin:miter;stroke-miterlimit:10;stroke-dasharray:none;stroke-opacity:1"
         d="m 219.28572,344 0,-4.84" />
    </g>
    <g
       transform="matrix(0.93750003,0,0,0.75723144,-338.92858,420.84581)"
       id="g4190">
      <path
         inkscape:connector-curvature="0"
         id="path4192"
         style="fill:none;stroke:#262626;stroke-width:1;stroke-linecap:square;stroke-linejoin:miter;stroke-miterlimit:10;stroke-dasharray:none;stroke-opacity:1"
         d="m 288.42856,344 0,-4.84" />
    </g>
    <g
       transform="matrix(0.93750003,0,0,0.75723144,-338.92858,420.84581)"
       id="g4194">
      <path
         inkscape:connector-curvature="0"
         id="path4196"
         style="fill:none;stroke:#262626;stroke-width:1;stroke-linecap:square;stroke-linejoin:miter;stroke-miterlimit:10;stroke-dasharray:none;stroke-opacity:1"
         d="m 357.57144,344 0,-4.84" />
    </g>
    <g
       transform="matrix(0.93750003,0,0,0.75723144,-338.92858,420.84581)"
       id="g4198">
      <path
         inkscape:connector-curvature="0"
         id="path4200"
         style="fill:none;stroke:#262626;stroke-width:1;stroke-linecap:square;stroke-linejoin:miter;stroke-miterlimit:10;stroke-dasharray:none;stroke-opacity:1"
         d="m 426.71429,344 0,-4.84" />
    </g>
    <g
       transform="matrix(0.93750003,0,0,0.75723144,-338.92858,420.84581)"
       id="g4202">
      <path
         inkscape:connector-curvature="0"
         id="path4204"
         style="fill:none;stroke:#262626;stroke-width:1;stroke-linecap:square;stroke-linejoin:miter;stroke-miterlimit:10;stroke-dasharray:none;stroke-opacity:1"
         d="m 495.85715,344 0,-4.84" />
    </g>
    <g
       transform="matrix(0.93750003,0,0,0.75723144,-338.92858,420.84581)"
       id="g4206">
      <path
         inkscape:connector-curvature="0"
         id="path4208"
         style="fill:none;stroke:#262626;stroke-width:1;stroke-linecap:square;stroke-linejoin:miter;stroke-miterlimit:10;stroke-dasharray:none;stroke-opacity:1"
         d="m 565,344 0,-4.84" />
    </g>
    <g
       id="g4210"
       transform="matrix(0.3,0,0,0.24253196,-338.92858,420.84581)">
      <g
         transform="matrix(3.1250001,0,0,3.1221924,253.12501,1090.6859)"
         id="g4212">
        <text
           id="text4214"
           style="font-variant:normal;font-weight:normal;font-size:13px;font-family:'Times New Roman';-inkscape-font-specification:Times-Roman;writing-mode:lr-tb;fill:#262626;fill-opacity:1;fill-rule:nonzero;stroke:none"
           transform="translate(-3.5,12)">
          <tspan
             id="tspan4216"
             y="0"
             x="0">0</tspan>
        </text>
      </g>
    </g>
    <g
       id="g4218"
       transform="matrix(0.3,0,0,0.24253196,-338.92858,420.84581)">
      <g
         transform="matrix(3.1250001,0,0,3.1221924,469.19643,1090.6859)"
         id="g4220">
        <text
           id="text4222"
           style="font-variant:normal;font-weight:normal;font-size:13px;font-family:'Times New Roman';-inkscape-font-specification:Times-Roman;writing-mode:lr-tb;fill:#262626;fill-opacity:1;fill-rule:nonzero;stroke:none"
           transform="translate(-3.5,12)">
          <tspan
             id="tspan4224"
             y="0"
             x="0">1</tspan>
        </text>
      </g>
    </g>
    <g
       id="g4226"
       transform="matrix(0.3,0,0,0.24253196,-338.92858,420.84581)">
      <g
         transform="matrix(3.1250001,0,0,3.1221924,685.26789,1090.6859)"
         id="g4228">
        <text
           id="text4230"
           style="font-variant:normal;font-weight:normal;font-size:13px;font-family:'Times New Roman';-inkscape-font-specification:Times-Roman;writing-mode:lr-tb;fill:#262626;fill-opacity:1;fill-rule:nonzero;stroke:none"
           transform="translate(-3.5,12)">
          <tspan
             id="tspan4232"
             y="0"
             x="0">2</tspan>
        </text>
      </g>
    </g>
    <g
       id="g4234"
       transform="matrix(0.3,0,0,0.24253196,-338.92858,420.84581)">
      <g
         transform="matrix(3.1250001,0,0,3.1221924,901.33926,1090.6859)"
         id="g4236">
        <text
           id="text4238"
           style="font-variant:normal;font-weight:normal;font-size:13px;font-family:'Times New Roman';-inkscape-font-specification:Times-Roman;writing-mode:lr-tb;fill:#262626;fill-opacity:1;fill-rule:nonzero;stroke:none"
           transform="translate(-3.5,12)">
          <tspan
             id="tspan4240"
             y="0"
             x="0">3</tspan>
        </text>
      </g>
    </g>
    <g
       id="g4242"
       transform="matrix(0.3,0,0,0.24253196,-338.92858,420.84581)">
      <g
         transform="matrix(3.1250001,0,0,3.1221924,1117.4108,1090.6859)"
         id="g4244">
        <text
           id="text4246"
           style="font-variant:normal;font-weight:normal;font-size:13px;font-family:'Times New Roman';-inkscape-font-specification:Times-Roman;writing-mode:lr-tb;fill:#262626;fill-opacity:1;fill-rule:nonzero;stroke:none"
           transform="translate(-3.5,12)">
          <tspan
             id="tspan4248"
             y="0"
             x="0">4</tspan>
        </text>
      </g>
    </g>
    <g
       id="g4250"
       transform="matrix(0.3,0,0,0.24253196,-338.92858,420.84581)">
      <g
         transform="matrix(3.1250001,0,0,3.1221924,1333.4822,1090.6859)"
         id="g4252">
        <text
           id="text4254"
           style="font-variant:normal;font-weight:normal;font-size:13px;font-family:'Times New Roman';-inkscape-font-specification:Times-Roman;writing-mode:lr-tb;fill:#262626;fill-opacity:1;fill-rule:nonzero;stroke:none"
           transform="translate(-3.5,12)">
          <tspan
             id="tspan4256"
             y="0"
             x="0">5</tspan>
        </text>
      </g>
    </g>
    <g
       id="g4258"
       transform="matrix(0.3,0,0,0.24253196,-338.92858,420.84581)">
      <g
         transform="matrix(3.1250001,0,0,3.1221924,1549.5536,1090.6859)"
         id="g4260">
        <text
           id="text4262"
           style="font-variant:normal;font-weight:normal;font-size:13px;font-family:'Times New Roman';-inkscape-font-specification:Times-Roman;writing-mode:lr-tb;fill:#262626;fill-opacity:1;fill-rule:nonzero;stroke:none"
           transform="translate(-3.5,12)">
          <tspan
             id="tspan4264"
             y="0"
             x="0">6</tspan>
        </text>
      </g>
    </g>
    <g
       id="g4266"
       transform="matrix(0.3,0,0,0.24253196,-338.92858,420.84581)">
      <g
         transform="matrix(3.1250001,0,0,3.1221924,1765.625,1090.6859)"
         id="g4268">
        <text
           id="text4270"
           style="font-variant:normal;font-weight:normal;font-size:13px;font-family:'Times New Roman';-inkscape-font-specification:Times-Roman;writing-mode:lr-tb;fill:#262626;fill-opacity:1;fill-rule:nonzero;stroke:none"
           transform="translate(-3.5,12)">
          <tspan
             id="tspan4272"
             y="0"
             x="0">7</tspan>
        </text>
      </g>
    </g>
    <g
       id="g4274"
       transform="matrix(0.3,0,0,0.24253196,-338.92858,420.84581)">
      <g
         transform="matrix(-1.4e-7,-3.1221924,3.1250001,-1.4e-7,170.83334,582.28841)"
         id="g4276">
        <text
           id="text4278"
           style="font-variant:normal;font-weight:normal;font-size:15px;font-family:'Times New Roman';-inkscape-font-specification:Times-Roman;writing-mode:lr-tb;fill:#262626;fill-opacity:1;fill-rule:nonzero;stroke:none"
           transform="translate(-24.5,-3)">
          <tspan
             id="tspan4280"
             sodipodi:role="line"
             y="0"
             x="0 5.835 13.335 18.33 25.83 30 37.5 44.16">survival</tspan>
        </text>
      </g>
    </g>
    <g
       transform="matrix(0.93750003,0,0,0.75723144,-338.92858,420.84581)"
       id="g4282">
      <path
         inkscape:connector-curvature="0"
         id="path4284"
         style="fill:none;stroke:#262626;stroke-width:1;stroke-linecap:square;stroke-linejoin:miter;stroke-miterlimit:10;stroke-dasharray:none;stroke-opacity:1"
         d="M 81,344 81,29" />
    </g>
    <g
       transform="matrix(0.93750003,0,0,0.75723144,-338.92858,420.84581)"
       id="g4286">
      <path
         inkscape:connector-curvature="0"
         id="path4288"
         style="fill:none;stroke:#262626;stroke-width:1;stroke-linecap:square;stroke-linejoin:miter;stroke-miterlimit:10;stroke-dasharray:none;stroke-opacity:1"
         d="m 81,344 4.839996,0" />
    </g>
    <g
       transform="matrix(0.93750003,0,0,0.75723144,-338.92858,420.84581)"
       id="g4290">
      <path
         inkscape:connector-curvature="0"
         id="path4292"
         style="fill:none;stroke:#262626;stroke-width:1;stroke-linecap:square;stroke-linejoin:miter;stroke-miterlimit:10;stroke-dasharray:none;stroke-opacity:1"
         d="m 81,312.5 4.839996,0" />
    </g>
    <g
       transform="matrix(0.93750003,0,0,0.75723144,-338.92858,420.84581)"
       id="g4294">
      <path
         inkscape:connector-curvature="0"
         id="path4296"
         style="fill:none;stroke:#262626;stroke-width:1;stroke-linecap:square;stroke-linejoin:miter;stroke-miterlimit:10;stroke-dasharray:none;stroke-opacity:1"
         d="m 81,281 4.839996,0" />
    </g>
    <g
       transform="matrix(0.93750003,0,0,0.75723144,-338.92858,420.84581)"
       id="g4298">
      <path
         inkscape:connector-curvature="0"
         id="path4300"
         style="fill:none;stroke:#262626;stroke-width:1;stroke-linecap:square;stroke-linejoin:miter;stroke-miterlimit:10;stroke-dasharray:none;stroke-opacity:1"
         d="m 81,249.5 4.839996,0" />
    </g>
    <g
       transform="matrix(0.93750003,0,0,0.75723144,-338.92858,420.84581)"
       id="g4302">
      <path
         inkscape:connector-curvature="0"
         id="path4304"
         style="fill:none;stroke:#262626;stroke-width:1;stroke-linecap:square;stroke-linejoin:miter;stroke-miterlimit:10;stroke-dasharray:none;stroke-opacity:1"
         d="m 81,218 4.839996,0" />
    </g>
    <g
       transform="matrix(0.93750003,0,0,0.75723144,-338.92858,420.84581)"
       id="g4306">
      <path
         inkscape:connector-curvature="0"
         id="path4308"
         style="fill:none;stroke:#262626;stroke-width:1;stroke-linecap:square;stroke-linejoin:miter;stroke-miterlimit:10;stroke-dasharray:none;stroke-opacity:1"
         d="m 81,186.5 4.839996,0" />
    </g>
    <g
       transform="matrix(0.93750003,0,0,0.75723144,-338.92858,420.84581)"
       id="g4310">
      <path
         inkscape:connector-curvature="0"
         id="path4312"
         style="fill:none;stroke:#262626;stroke-width:1;stroke-linecap:square;stroke-linejoin:miter;stroke-miterlimit:10;stroke-dasharray:none;stroke-opacity:1"
         d="m 81,155 4.839996,0" />
    </g>
    <g
       transform="matrix(0.93750003,0,0,0.75723144,-338.92858,420.84581)"
       id="g4314">
      <path
         inkscape:connector-curvature="0"
         id="path4316"
         style="fill:none;stroke:#262626;stroke-width:1;stroke-linecap:square;stroke-linejoin:miter;stroke-miterlimit:10;stroke-dasharray:none;stroke-opacity:1"
         d="m 81,123.5 4.839996,0" />
    </g>
    <g
       transform="matrix(0.93750003,0,0,0.75723144,-338.92858,420.84581)"
       id="g4318">
      <path
         inkscape:connector-curvature="0"
         id="path4320"
         style="fill:none;stroke:#262626;stroke-width:1;stroke-linecap:square;stroke-linejoin:miter;stroke-miterlimit:10;stroke-dasharray:none;stroke-opacity:1"
         d="m 81,92 4.839996,0" />
    </g>
    <g
       transform="matrix(0.93750003,0,0,0.75723144,-338.92858,420.84581)"
       id="g4322">
      <path
         inkscape:connector-curvature="0"
         id="path4324"
         style="fill:none;stroke:#262626;stroke-width:1;stroke-linecap:square;stroke-linejoin:miter;stroke-miterlimit:10;stroke-dasharray:none;stroke-opacity:1"
         d="m 81,60.500008 4.839996,0" />
    </g>
    <g
       transform="matrix(0.93750003,0,0,0.75723144,-338.92858,420.84581)"
       id="g4326">
      <path
         inkscape:connector-curvature="0"
         id="path4328"
         style="fill:none;stroke:#262626;stroke-width:1;stroke-linecap:square;stroke-linejoin:miter;stroke-miterlimit:10;stroke-dasharray:none;stroke-opacity:1"
         d="m 81,29 4.839996,0" />
    </g>
    <g
       id="g4330"
       transform="matrix(0.3,0,0,0.24253196,-338.92858,420.84581)">
      <g
         transform="matrix(3.1250001,0,0,3.1221924,236.45833,1074.0342)"
         id="g4332">
        <text
           id="text4334"
           style="font-variant:normal;font-weight:normal;font-size:13px;font-family:'Times New Roman';-inkscape-font-specification:Times-Roman;writing-mode:lr-tb;fill:#262626;fill-opacity:1;fill-rule:nonzero;stroke:none"
           transform="translate(-7,4.5)">
          <tspan
             id="tspan4336"
             y="0"
             x="0">0</tspan>
        </text>
      </g>
    </g>
    <g
       id="g4338"
       transform="matrix(0.3,0,0,0.24253196,-338.92858,420.84581)">
      <g
         transform="matrix(3.1250001,0,0,3.1221924,236.45833,975.68513)"
         id="g4340">
        <text
           id="text4342"
           style="font-variant:normal;font-weight:normal;font-size:13px;font-family:'Times New Roman';-inkscape-font-specification:Times-Roman;writing-mode:lr-tb;fill:#262626;fill-opacity:1;fill-rule:nonzero;stroke:none"
           transform="translate(-17,4.5)">
          <tspan
             id="tspan4344"
             sodipodi:role="line"
             y="0"
             x="0 6.5 9.75">0.1</tspan>
        </text>
      </g>
    </g>
    <g
       id="g4346"
       transform="matrix(0.3,0,0,0.24253196,-338.92858,420.84581)">
      <g
         transform="matrix(3.1250001,0,0,3.1221924,236.45833,877.33607)"
         id="g4348">
        <text
           id="text4350"
           style="font-variant:normal;font-weight:normal;font-size:13px;font-family:'Times New Roman';-inkscape-font-specification:Times-Roman;writing-mode:lr-tb;fill:#262626;fill-opacity:1;fill-rule:nonzero;stroke:none"
           transform="translate(-17,4.5)">
          <tspan
             id="tspan4352"
             sodipodi:role="line"
             y="0"
             x="0 6.5 9.75">0.2</tspan>
        </text>
      </g>
    </g>
    <g
       id="g4354"
       transform="matrix(0.3,0,0,0.24253196,-338.92858,420.84581)">
      <g
         transform="matrix(3.1250001,0,0,3.1221924,236.45833,778.98701)"
         id="g4356">
        <text
           id="text4358"
           style="font-variant:normal;font-weight:normal;font-size:13px;font-family:'Times New Roman';-inkscape-font-specification:Times-Roman;writing-mode:lr-tb;fill:#262626;fill-opacity:1;fill-rule:nonzero;stroke:none"
           transform="translate(-17,4.5)">
          <tspan
             id="tspan4360"
             sodipodi:role="line"
             y="0"
             x="0 6.5 9.75">0.3</tspan>
        </text>
      </g>
    </g>
    <g
       id="g4362"
       transform="matrix(0.3,0,0,0.24253196,-338.92858,420.84581)">
      <g
         transform="matrix(3.1250001,0,0,3.1221924,236.45833,680.63795)"
         id="g4364">
        <text
           id="text4366"
           style="font-variant:normal;font-weight:normal;font-size:13px;font-family:'Times New Roman';-inkscape-font-specification:Times-Roman;writing-mode:lr-tb;fill:#262626;fill-opacity:1;fill-rule:nonzero;stroke:none"
           transform="translate(-17,4.5)">
          <tspan
             id="tspan4368"
             sodipodi:role="line"
             y="0"
             x="0 6.5 9.75">0.4</tspan>
        </text>
      </g>
    </g>
    <g
       id="g4370"
       transform="matrix(0.3,0,0,0.24253196,-338.92858,420.84581)">
      <g
         transform="matrix(3.1250001,0,0,3.1221924,236.45833,582.28889)"
         id="g4372">
        <text
           id="text4374"
           style="font-variant:normal;font-weight:normal;font-size:13px;font-family:'Times New Roman';-inkscape-font-specification:Times-Roman;writing-mode:lr-tb;fill:#262626;fill-opacity:1;fill-rule:nonzero;stroke:none"
           transform="translate(-17,4.5)">
          <tspan
             id="tspan4376"
             sodipodi:role="line"
             y="0"
             x="0 6.5 9.75">0.5</tspan>
        </text>
      </g>
    </g>
    <g
       id="g4378"
       transform="matrix(0.3,0,0,0.24253196,-338.92858,420.84581)">
      <g
         transform="matrix(3.1250001,0,0,3.1221924,236.45833,483.93982)"
         id="g4380">
        <text
           id="text4382"
           style="font-variant:normal;font-weight:normal;font-size:13px;font-family:'Times New Roman';-inkscape-font-specification:Times-Roman;writing-mode:lr-tb;fill:#262626;fill-opacity:1;fill-rule:nonzero;stroke:none"
           transform="translate(-17,4.5)">
          <tspan
             id="tspan4384"
             sodipodi:role="line"
             y="0"
             x="0 6.5 9.75">0.6</tspan>
        </text>
      </g>
    </g>
    <g
       id="g4386"
       transform="matrix(0.3,0,0,0.24253196,-338.92858,420.84581)">
      <g
         transform="matrix(3.1250001,0,0,3.1221924,236.45833,385.59076)"
         id="g4388">
        <text
           id="text4390"
           style="font-variant:normal;font-weight:normal;font-size:13px;font-family:'Times New Roman';-inkscape-font-specification:Times-Roman;writing-mode:lr-tb;fill:#262626;fill-opacity:1;fill-rule:nonzero;stroke:none"
           transform="translate(-17,4.5)">
          <tspan
             id="tspan4392"
             sodipodi:role="line"
             y="0"
             x="0 6.5 9.75">0.7</tspan>
        </text>
      </g>
    </g>
    <g
       id="g4394"
       transform="matrix(0.3,0,0,0.24253196,-338.92858,420.84581)">
      <g
         transform="matrix(3.1250001,0,0,3.1221924,236.45833,287.2417)"
         id="g4396">
        <text
           id="text4398"
           style="font-variant:normal;font-weight:normal;font-size:13px;font-family:'Times New Roman';-inkscape-font-specification:Times-Roman;writing-mode:lr-tb;fill:#262626;fill-opacity:1;fill-rule:nonzero;stroke:none"
           transform="translate(-17,4.5)">
          <tspan
             id="tspan4400"
             sodipodi:role="line"
             y="0"
             x="0 6.5 9.75">0.8</tspan>
        </text>
      </g>
    </g>
    <g
       id="g4402"
       transform="matrix(0.3,0,0,0.24253196,-338.92858,420.84581)">
      <g
         transform="matrix(3.1250001,0,0,3.1221924,236.45833,188.89266)"
         id="g4404">
        <text
           id="text4406"
           style="font-variant:normal;font-weight:normal;font-size:13px;font-family:'Times New Roman';-inkscape-font-specification:Times-Roman;writing-mode:lr-tb;fill:#262626;fill-opacity:1;fill-rule:nonzero;stroke:none"
           transform="translate(-17,4.5)">
          <tspan
             id="tspan4408"
             sodipodi:role="line"
             y="0"
             x="0 6.5 9.75">0.9</tspan>
        </text>
      </g>
    </g>
    <g
       id="g4410"
       transform="matrix(0.3,0,0,0.24253196,-338.92858,420.84581)">
      <g
         transform="matrix(3.1250001,0,0,3.1221924,236.45833,90.54358)"
         id="g4412">
        <text
           id="text4414"
           style="font-variant:normal;font-weight:normal;font-size:13px;font-family:'Times New Roman';-inkscape-font-specification:Times-Roman;writing-mode:lr-tb;fill:#262626;fill-opacity:1;fill-rule:nonzero;stroke:none"
           transform="translate(-7,4.5)">
          <tspan
             id="tspan4416"
             y="0"
             x="0">1</tspan>
        </text>
      </g>
    </g>
    <path
       d="m -198.16965,442.80551 64.82144,0 64.821414,123.0327 64.8214517,61.5879 64.8214243,27.88392 64.82143,13.57224 64.82143,6.63106 0.0454,0.002"
       style="fill:none;stroke:#0072bd;stroke-width:1.61843908;stroke-linecap:square;stroke-linejoin:miter;stroke-miterlimit:10;stroke-dasharray:none;stroke-opacity:1"
       id="path4420"
       inkscape:connector-curvature="0" />
    <path
       d="m -198.16965,442.80551 64.82144,0 64.821414,113.37232 64.8214517,59.13105 64.8214243,34.51499 64.82143,16.19607 64.82143,8.56315 0.0454,0.003"
       style="fill:none;stroke:#d95319;stroke-width:1.61843908;stroke-linecap:square;stroke-linejoin:miter;stroke-miterlimit:10;stroke-dasharray:none;stroke-opacity:1"
       id="path4424"
       inkscape:connector-curvature="0" />
    <g
       id="g4426"
       transform="matrix(0.3,0,0,0.3,-520.80755,581.64608)">
      <g
         transform="matrix(3.1250001,0,0,3.1221924,1475,161.31328)"
         id="g4428">
        <text
           id="text4430"
           style="font-variant:normal;font-weight:normal;font-size:12px;font-family:'Times New Roman';-inkscape-font-specification:Times-Roman;writing-mode:lr-tb;fill:#000000;fill-opacity:1;fill-rule:nonzero;stroke:none"
           transform="translate(0,4)">
          <tspan
             id="tspan4432"
             sodipodi:role="line"
             y="0"
             x="0 3.9960001 9.9960003 14.664 20.664 24.66 29.988001 35.987999 41.316002 46.644001 49.644001 55.644001 60.972 70.307999">Insurance game</tspan>
        </text>
      </g>
    </g>
    <g
       id="g4438"
       transform="matrix(0.3,0,0,0.3,-405.77813,567.79437)">
      <g
         transform="matrix(3.1250001,0,0,3.1221924,1475,207.10544)"
         id="g4440">
        <text
           id="text4442"
           style="font-variant:normal;font-weight:normal;font-size:12px;font-family:'Times New Roman';-inkscape-font-specification:Times-Roman;writing-mode:lr-tb;fill:#000000;fill-opacity:1;fill-rule:nonzero;stroke:none"
           transform="translate(0,4)">
          <tspan
             id="tspan4444"
             sodipodi:role="line"
             y="0"
             x="0 8.0039997 12 17.327999 23.327999 26.664 30 33 39 44.327999 53.664001">Credit game</tspan>
        </text>
      </g>
    </g>
  </g>
</svg>
