<?xml version="1.0" encoding="UTF-8" standalone="no"?>
<!-- Created with Inkscape (http://www.inkscape.org/) -->

<svg
   xmlns:dc="http://purl.org/dc/elements/1.1/"
   xmlns:cc="http://creativecommons.org/ns#"
   xmlns:rdf="http://www.w3.org/1999/02/22-rdf-syntax-ns#"
   xmlns:svg="http://www.w3.org/2000/svg"
   xmlns="http://www.w3.org/2000/svg"
   xmlns:sodipodi="http://sodipodi.sourceforge.net/DTD/sodipodi-0.dtd"
   xmlns:inkscape="http://www.inkscape.org/namespaces/inkscape"
   width="142.16945mm"
   height="67.380554mm"
   viewBox="0 0 503.75002 238.74999"
   id="svg2"
   version="1.1"
   inkscape:version="0.91 r13725"
   sodipodi:docname="Tax-policy.svg">
  <defs
     id="defs4">
    <clipPath
       id="clipPath4152"
       clipPathUnits="userSpaceOnUse">
      <path
         inkscape:connector-curvature="0"
         id="path4154"
         d="M 0,0 403,0 403,191 0,191 0,0 Z" />
    </clipPath>
    <clipPath
       id="clipPath4162"
       clipPathUnits="userSpaceOnUse">
      <path
         inkscape:connector-curvature="0"
         id="path4164"
         d="M 0,0 425,0 425,212 0,212 0,0 Z" />
    </clipPath>
    <clipPath
       id="clipPath4186"
       clipPathUnits="userSpaceOnUse">
      <path
         inkscape:connector-curvature="0"
         id="path4188"
         d="m 44.79,38.93 366.01,0 0,159.27 -366.01,0 0,-159.27 z" />
    </clipPath>
  </defs>
  <sodipodi:namedview
     id="base"
     pagecolor="#ffffff"
     bordercolor="#666666"
     borderopacity="1.0"
     inkscape:pageopacity="0.0"
     inkscape:pageshadow="2"
     inkscape:zoom="1.8304064"
     inkscape:cx="297.22012"
     inkscape:cy="119.37499"
     inkscape:document-units="px"
     inkscape:current-layer="layer1"
     showgrid="false"
     fit-margin-top="0"
     fit-margin-left="0"
     fit-margin-right="0"
     fit-margin-bottom="0"
     inkscape:window-width="1920"
     inkscape:window-height="1018"
     inkscape:window-x="892"
     inkscape:window-y="512"
     inkscape:window-maximized="1">
    <inkscape:grid
       type="xygrid"
       id="grid5083" />
  </sodipodi:namedview>
  <metadata
     id="metadata7">
    <rdf:RDF>
      <cc:Work
         rdf:about="">
        <dc:format>image/svg+xml</dc:format>
        <dc:type
           rdf:resource="http://purl.org/dc/dcmitype/StillImage" />
        <dc:title></dc:title>
      </cc:Work>
    </rdf:RDF>
  </metadata>
  <g
     inkscape:label="Layer 1"
     inkscape:groupmode="layer"
     id="layer1"
     transform="translate(535.44643,-412.9872)">
    <g
       id="g4166"
       transform="matrix(1.25,0,0,-1.25,-545.44643,661.7372)" />
    <g
       id="g4168"
       transform="matrix(1.25,0,0,-1.25,-545.44643,661.7372)" />
    <g
       id="g4170"
       transform="matrix(1.25,0,0,-1.25,-545.44643,661.7372)" />
    <g
       id="g4176"
       transform="matrix(1.25,0,0,-1.25,-545.44643,661.7372)" />
    <g
       id="g4178"
       transform="matrix(1.25,0,0,-1.25,-545.44643,661.7372)" />
    <g
       id="g4180"
       transform="matrix(1.25,0,0,-1.25,-545.44643,661.7372)" />
    <path
       d="m -489.45893,470.3122 457.5125,0"
       style="fill:none;stroke:#666666;stroke-width:1.0625;stroke-linecap:butt;stroke-linejoin:round;stroke-miterlimit:10;stroke-dasharray:none;stroke-opacity:1"
       id="path4192"
       inkscape:connector-curvature="0" />
    <path
       d="m -488.58393,613.0747 0,-199.0875"
       style="fill:none;stroke:#666666;stroke-width:1.0625;stroke-linecap:butt;stroke-linejoin:round;stroke-miterlimit:10;stroke-dasharray:none;stroke-opacity:1"
       id="path4194"
       inkscape:connector-curvature="0" />
    <path
       d="m -488.58393,423.0372 3.2125,0.425 3.2125,0.425 3.2,0.4125 3.2125,0.425 3.2,0.4125 3.2125,0.4125 3.2,0.4125 3.2125,0.4 3.2,0.4125 3.2125,0.4 3.2125,0.3875 3.2,0.4 3.2125,0.3875 3.2,0.3875 3.2125,0.3875 3.2,0.375 3.2125,0.375 3.2125,0.375 3.2,0.3625 3.2125,0.3625 3.2,0.3625 3.2125,0.35 3.2,0.35 3.2125,0.35 3.2125,0.3375 3.2,0.3375 3.2125,0.3375 3.2,0.325 3.2125,0.325 3.2,0.3125 3.2125,0.3125 3.2,0.3125 3.2125,0.3125 3.2125,0.3125 3.2,0.3 3.2125,0.3 3.2,0.2875 3.2125,0.3 3.2,0.2875 3.2125,0.3 3.2125,0.2875 3.2,0.2875 3.2125,0.2875 3.2,0.2875 3.2125,0.275 3.2,0.2875 3.2125,0.2875 3.2125,0.2875 3.2,0.275 3.2125,0.2875 3.2,0.2875 3.2125,0.2875 3.2,0.2875 3.2125,0.275 3.2,0.2875 3.2125,0.2875 3.2125,0.2875 3.2,0.2875 3.2125,0.2875 3.2,0.3 3.2125,0.2875 3.2,0.2875 3.2125,0.2875 3.2125,0.3 3.2,0.2875 3.2125,0.2875 3.2,0.2875 3.2125,0.3 3.2,0.2875 3.2125,0.2875 3.2125,0.2875 3.2,0.2875 3.2125,0.2875 3.2,0.2875 3.2125,0.2875 3.2,0.2875 3.2125,0.2875 3.2,0.2875 3.2125,0.275 3.2125,0.2875 3.2,0.275 3.2125,0.2875 3.2,0.275 3.2125,0.275 3.2,0.275 3.2125,0.275 3.2125,0.275 3.2,0.275 3.2125,0.2625 3.2,0.275 3.2125,0.275 3.2,0.2625 3.2125,0.275 3.2,0.275 3.2125,0.2625 3.2125,0.275 3.2,0.275 3.2125,0.275 3.2,0.2625 3.2125,0.275 3.2,0.275 3.2125,0.275 3.2125,0.275 3.2,0.275 3.2125,0.2875 3.2,0.275 3.2125,0.2875 3.2,0.275 3.2125,0.2875 3.2125,0.275 3.2,0.2875 3.2125,0.275 3.2,0.2875 3.2125,0.2875 3.2,0.275 3.2125,0.2875 3.2,0.275 3.2125,0.275 3.2125,0.275 3.2,0.275 3.2125,0.2625 3.2,0.2625 3.2125,0.2625 3.2,0.25 3.2125,0.25 3.2125,0.25 3.2,0.25 3.2125,0.2375 3.2,0.2375 3.2125,0.225 3.2,0.2375 3.2125,0.2375 3.2125,0.2375 3.2,0.25 3.2125,0.2625 3.2,0.275 3.2125,0.3 3.2,0.325 3.2125,0.3375 3.2,0.3875 3.2125,0.4 3.2125,0.45 3.2,0.475"
       style="fill:none;stroke:#104e8b;stroke-width:5.3125;stroke-linecap:butt;stroke-linejoin:round;stroke-miterlimit:1;stroke-dasharray:none;stroke-opacity:1"
       id="path4196"
       inkscape:connector-curvature="0" />
    <path
       d="m -488.58393,470.3122 3.2125,1.7625 3.2125,1.7625 3.2,1.75 3.2125,1.75 3.2,1.725 3.2125,1.725 3.2,1.725 3.2125,1.7 3.2,1.7 3.2125,1.6875 3.2125,1.6875 3.2,1.675 3.2125,1.6625 3.2,1.6625 3.2125,1.65 3.2,1.6375 3.2125,1.6375 3.2125,1.625 3.2,1.6125 3.2125,1.6125 3.2,1.6 3.2125,1.5875 3.2,1.5875 3.2125,1.575 3.2125,1.575 3.2,1.5625 3.2125,1.55 3.2,1.55 3.2125,1.5375 3.2,1.5375 3.2125,1.525 3.2,1.5125 3.2125,1.5125 3.2125,1.5 3.2,1.4875 3.2125,1.4875 3.2,1.4875 3.2125,1.4625 3.2,1.475 3.2125,1.45 3.2125,1.45 3.2,1.45 3.2125,1.4375 3.2,1.425 3.2125,1.425 3.2,1.4125 3.2125,1.4125 3.2125,1.4 3.2,1.4 3.2125,1.3875 3.2,1.375 3.2125,1.375 3.2,1.15 3.2125,0.2125 3.2,0.3625 3.2125,0.4625 3.2125,0.525 3.2,0.5625 3.2125,0.6 3.2,0.6125 3.2125,0.625 3.2,0.6375 3.2125,0.65 3.2125,0.6625 3.2,0.65 3.2125,0.6625 3.2,0.6625 3.2125,0.6625 3.2,0.65 3.2125,0.6625 3.2125,0.65 3.2,0.65 3.2125,0.65 3.2,0.6375 3.2125,0.6375 3.2,0.6375 3.2125,0.625 3.2,0.6125 3.2125,0.625 3.2125,0.6 3.2,0.6125 3.2125,0.6 3.2,0.6 3.2125,0.5875 3.2,0.5875 3.2125,0.575 3.2125,0.5875 3.2,0.575 3.2125,0.575 3.2,0.5625 3.2125,0.575 3.2,0.5625 3.2125,0.5625 3.2,0.5625 3.2125,0.5625 3.2125,0.5625 3.2,0.5625 3.2125,0.5625 3.2,0.5625 3.2125,0.575 3.2,0.5625 3.2125,0.5625 3.2125,0.5625 3.2,0.5625 3.2125,0.5625 3.2,0.575 3.2125,0.5625 3.2,0.575 3.2125,0.5625 3.2125,0.575 3.2,0.5625 3.2125,0.575 3.2,0.5625 3.2125,0.575 3.2,0.5625 3.2125,0.575 3.2,0.5625 3.2125,0.575 3.2125,0.5625 3.2,0.575 3.2125,0.5625 3.2,0.5625 3.2125,0.5625 3.2,0.5625 3.2125,0.55 3.2125,0.5625 3.2,0.55 3.2125,0.55 3.2,0.55 3.2125,0.5375 3.2,0.55 3.2125,0.5375 3.2125,0.525 3.2,0.5375 3.2125,0.525 3.2,0.525 3.2125,0.5125 3.2,0.5125 3.2125,0.5 3.2,0.5 3.2125,0.5 3.2125,0.4875 3.2,0.4875"
       style="fill:none;stroke:#b22222;stroke-width:5.3125;stroke-linecap:butt;stroke-linejoin:round;stroke-miterlimit:1;stroke-dasharray:none;stroke-opacity:1"
       id="path4198"
       inkscape:connector-curvature="0" />
    <text
       style="font-variant:normal;font-weight:normal;font-size:11.25px;font-family:Helvetica;-inkscape-font-specification:Helvetica;writing-mode:lr-tb;fill:#104e8b;fill-opacity:0.70200004;fill-rule:nonzero;stroke:none"
       id="text4200"
       x="-179.89642"
       y="445.27469">
      <tspan
         x="-179.89642 -176.76894 -173.13518 -166.88017 -160.62518 -154.37018 -148.11517 -145.61768 -143.12018 -139.99268 -133.73769 -127.48268 -123.56768 -121.07018 -114.81518"
         y="445.27469"
         sodipodi:role="line"
         id="tspan4202">tranquil period</tspan>
    </text>
    <text
       style="font-variant:normal;font-weight:normal;font-size:11.25px;font-family:Helvetica;-inkscape-font-specification:Helvetica;writing-mode:lr-tb;fill:#b22222;fill-opacity:0.70200004;fill-rule:nonzero;stroke:none"
       id="text4204"
       x="-179.89642"
       y="570.41217">
      <tspan
         x="-179.89642 -177.10643 -170.85143 -164.59644 -158.34143 -155.21393 -149.58893 -145.67393 -143.17644 -137.55144 -135.05392"
         y="570.41217"
         sodipodi:role="line"
         id="tspan4206">food crisis</tspan>
    </text>
    <g
       id="g4208"
       transform="matrix(1.25,0,0,-1.25,-545.44643,661.7372)" />
    <g
       id="g4210"
       transform="matrix(1.25,0,0,-1.25,-545.44643,661.7372)">
      <path
         d="m 44.79,38.93 0,159.27"
         style="fill:none;stroke:#000000;stroke-width:1.05999994;stroke-linecap:butt;stroke-linejoin:round;stroke-miterlimit:10;stroke-dasharray:none;stroke-opacity:1"
         id="path4212"
         inkscape:connector-curvature="0" />
    </g>
    <g
       id="g4214"
       transform="matrix(1.25,0,0,-1.25,-545.44643,661.7372)">
      <text
         transform="matrix(1,0,0,-1,28.07,46.47)"
         style="font-variant:normal;font-weight:normal;font-size:6px;font-family:Garamond;-inkscape-font-specification:Garamond;writing-mode:lr-tb;fill:#000000;fill-opacity:1;fill-rule:nonzero;stroke:none"
         id="text4216">
        <tspan
           x="0 4.0019999 6.816"
           y="0"
           sodipodi:role="line"
           id="tspan4218">−30</tspan>
      </text>
      <text
         transform="matrix(1,0,0,-1,28.07,81.4)"
         style="font-variant:normal;font-weight:normal;font-size:6px;font-family:Garamond;-inkscape-font-specification:Garamond;writing-mode:lr-tb;fill:#000000;fill-opacity:1;fill-rule:nonzero;stroke:none"
         id="text4220">
        <tspan
           x="0 4.0019999 6.816"
           y="0"
           sodipodi:role="line"
           id="tspan4222">−20</tspan>
      </text>
      <text
         transform="matrix(1,0,0,-1,28.07,116.33)"
         style="font-variant:normal;font-weight:normal;font-size:6px;font-family:Garamond;-inkscape-font-specification:Garamond;writing-mode:lr-tb;fill:#000000;fill-opacity:1;fill-rule:nonzero;stroke:none"
         id="text4224">
        <tspan
           x="0 4.0019999 6.816"
           y="0"
           sodipodi:role="line"
           id="tspan4226">−10</tspan>
      </text>
      <text
         transform="matrix(1,0,0,-1,34.89,151.26)"
         style="font-variant:normal;font-weight:normal;font-size:6px;font-family:Garamond;-inkscape-font-specification:Garamond;writing-mode:lr-tb;fill:#000000;fill-opacity:1;fill-rule:nonzero;stroke:none"
         id="text4228">
        <tspan
           x="0"
           y="0"
           id="tspan4230">0</tspan>
      </text>
      <text
         transform="matrix(1,0,0,-1,32.07,186.18)"
         style="font-variant:normal;font-weight:normal;font-size:6px;font-family:Garamond;-inkscape-font-specification:Garamond;writing-mode:lr-tb;fill:#000000;fill-opacity:1;fill-rule:nonzero;stroke:none"
         id="text4232">
        <tspan
           x="0 2.8139999"
           y="0"
           sodipodi:role="line"
           id="tspan4234">10</tspan>
      </text>
    </g>
    <g
       id="g4236"
       transform="matrix(1.25,0,0,-1.25,-545.44643,661.7372)" />
    <g
       id="g4238"
       transform="matrix(1.25,0,0,-1.25,-545.44643,661.7372)">
      <path
         d="m 40.54,48.36 4.25,0"
         style="fill:none;stroke:#000000;stroke-width:1.05999994;stroke-linecap:butt;stroke-linejoin:round;stroke-miterlimit:10;stroke-dasharray:none;stroke-opacity:1"
         id="path4240"
         inkscape:connector-curvature="0" />
      <path
         d="m 40.54,83.29 4.25,0"
         style="fill:none;stroke:#000000;stroke-width:1.05999994;stroke-linecap:butt;stroke-linejoin:round;stroke-miterlimit:10;stroke-dasharray:none;stroke-opacity:1"
         id="path4242"
         inkscape:connector-curvature="0" />
      <path
         d="m 40.54,118.21 4.25,0"
         style="fill:none;stroke:#000000;stroke-width:1.05999994;stroke-linecap:butt;stroke-linejoin:round;stroke-miterlimit:10;stroke-dasharray:none;stroke-opacity:1"
         id="path4244"
         inkscape:connector-curvature="0" />
      <path
         d="m 40.54,153.14 4.25,0"
         style="fill:none;stroke:#000000;stroke-width:1.05999994;stroke-linecap:butt;stroke-linejoin:round;stroke-miterlimit:10;stroke-dasharray:none;stroke-opacity:1"
         id="path4246"
         inkscape:connector-curvature="0" />
      <path
         d="m 40.54,188.07 4.25,0"
         style="fill:none;stroke:#000000;stroke-width:1.05999994;stroke-linecap:butt;stroke-linejoin:round;stroke-miterlimit:10;stroke-dasharray:none;stroke-opacity:1"
         id="path4248"
         inkscape:connector-curvature="0" />
    </g>
    <g
       id="g4250"
       transform="matrix(1.25,0,0,-1.25,-545.44643,661.7372)" />
    <g
       id="g4252"
       transform="matrix(1.25,0,0,-1.25,-545.44643,661.7372)" />
    <g
       id="g4254"
       transform="matrix(1.25,0,0,-1.25,-545.44643,661.7372)" />
    <g
       id="g4256"
       transform="matrix(1.25,0,0,-1.25,-545.44643,661.7372)" />
    <g
       id="g4258"
       transform="matrix(1.25,0,0,-1.25,-545.44643,661.7372)">
      <path
         d="m 44.79,38.93 366.01,0"
         style="fill:none;stroke:#000000;stroke-width:1.05999994;stroke-linecap:butt;stroke-linejoin:round;stroke-miterlimit:10;stroke-dasharray:none;stroke-opacity:1"
         id="path4260"
         inkscape:connector-curvature="0" />
    </g>
    <g
       id="g4262"
       transform="matrix(1.25,0,0,-1.25,-545.44643,661.7372)">
      <path
         d="m 45.49,34.68 0,4.25"
         style="fill:none;stroke:#000000;stroke-width:1.05999994;stroke-linecap:butt;stroke-linejoin:round;stroke-miterlimit:10;stroke-dasharray:none;stroke-opacity:1"
         id="path4264"
         inkscape:connector-curvature="0" />
      <path
         d="m 116.05,34.68 0,4.25"
         style="fill:none;stroke:#000000;stroke-width:1.05999994;stroke-linecap:butt;stroke-linejoin:round;stroke-miterlimit:10;stroke-dasharray:none;stroke-opacity:1"
         id="path4266"
         inkscape:connector-curvature="0" />
      <path
         d="m 186.6,34.68 0,4.25"
         style="fill:none;stroke:#000000;stroke-width:1.05999994;stroke-linecap:butt;stroke-linejoin:round;stroke-miterlimit:10;stroke-dasharray:none;stroke-opacity:1"
         id="path4268"
         inkscape:connector-curvature="0" />
      <path
         d="m 257.16,34.68 0,4.25"
         style="fill:none;stroke:#000000;stroke-width:1.05999994;stroke-linecap:butt;stroke-linejoin:round;stroke-miterlimit:10;stroke-dasharray:none;stroke-opacity:1"
         id="path4270"
         inkscape:connector-curvature="0" />
      <path
         d="m 327.72,34.68 0,4.25"
         style="fill:none;stroke:#000000;stroke-width:1.05999994;stroke-linecap:butt;stroke-linejoin:round;stroke-miterlimit:10;stroke-dasharray:none;stroke-opacity:1"
         id="path4272"
         inkscape:connector-curvature="0" />
      <path
         d="m 398.27,34.68 0,4.25"
         style="fill:none;stroke:#000000;stroke-width:1.05999994;stroke-linecap:butt;stroke-linejoin:round;stroke-miterlimit:10;stroke-dasharray:none;stroke-opacity:1"
         id="path4274"
         inkscape:connector-curvature="0" />
    </g>
    <g
       id="g4276"
       transform="matrix(1.25,0,0,-1.25,-545.44643,661.7372)" />
    <g
       id="g4278"
       transform="matrix(1.25,0,0,-1.25,-545.44643,661.7372)">
      <text
         transform="matrix(1,0,0,-1,44.09,28.07)"
         style="font-variant:normal;font-weight:normal;font-size:6px;font-family:Garamond;-inkscape-font-specification:Garamond;writing-mode:lr-tb;fill:#000000;fill-opacity:1;fill-rule:nonzero;stroke:none"
         id="text4280">
        <tspan
           x="0"
           y="0"
           id="tspan4282">0</tspan>
      </text>
      <text
         transform="matrix(1,0,0,-1,114.64,28.07)"
         style="font-variant:normal;font-weight:normal;font-size:6px;font-family:Garamond;-inkscape-font-specification:Garamond;writing-mode:lr-tb;fill:#000000;fill-opacity:1;fill-rule:nonzero;stroke:none"
         id="text4284">
        <tspan
           x="0"
           y="0"
           id="tspan4286">1</tspan>
      </text>
      <text
         transform="matrix(1,0,0,-1,185.2,28.07)"
         style="font-variant:normal;font-weight:normal;font-size:6px;font-family:Garamond;-inkscape-font-specification:Garamond;writing-mode:lr-tb;fill:#000000;fill-opacity:1;fill-rule:nonzero;stroke:none"
         id="text4288">
        <tspan
           x="0"
           y="0"
           id="tspan4290">2</tspan>
      </text>
      <text
         transform="matrix(1,0,0,-1,255.75,28.07)"
         style="font-variant:normal;font-weight:normal;font-size:6px;font-family:Garamond;-inkscape-font-specification:Garamond;writing-mode:lr-tb;fill:#000000;fill-opacity:1;fill-rule:nonzero;stroke:none"
         id="text4292">
        <tspan
           x="0"
           y="0"
           id="tspan4294">3</tspan>
      </text>
      <text
         transform="matrix(1,0,0,-1,326.31,28.07)"
         style="font-variant:normal;font-weight:normal;font-size:6px;font-family:Garamond;-inkscape-font-specification:Garamond;writing-mode:lr-tb;fill:#000000;fill-opacity:1;fill-rule:nonzero;stroke:none"
         id="text4296">
        <tspan
           x="0"
           y="0"
           id="tspan4298">4</tspan>
      </text>
      <text
         transform="matrix(1,0,0,-1,396.86,28.07)"
         style="font-variant:normal;font-weight:normal;font-size:6px;font-family:Garamond;-inkscape-font-specification:Garamond;writing-mode:lr-tb;fill:#000000;fill-opacity:1;fill-rule:nonzero;stroke:none"
         id="text4300">
        <tspan
           x="0"
           y="0"
           id="tspan4302">5</tspan>
      </text>
    </g>
    <g
       id="g4304"
       transform="matrix(1.25,0,0,-1.25,-545.44643,661.7372)" />
    <g
       id="g4306"
       transform="matrix(1.25,0,0,-1.25,-545.44643,661.7372)" />
    <g
       id="g4308"
       transform="matrix(1.25,0,0,-1.25,-545.44643,661.7372)" />
    <g
       id="g4310"
       transform="matrix(1.25,0,0,-1.25,-545.44643,661.7372)" />
    <g
       id="g4312"
       transform="matrix(1.25,0,0,-1.25,-545.44643,661.7372)">
      <text
         transform="matrix(1,0,0,-1,205.64,19.44)"
         style="font-variant:normal;font-weight:normal;font-size:8px;font-family:Garamond;-inkscape-font-specification:Garamond;writing-mode:lr-tb;fill:#000000;fill-opacity:1;fill-rule:nonzero;stroke:none"
         id="text4314">
        <tspan
           x="0 2.832 6.9120002 8.7440004 11.08 12.912 16.16 17.992001 19.992001 24.792 28.128 31.048 34.383999 37.360001 40.959999"
           y="0"
           sodipodi:role="line"
           id="tspan4316">Initial Reserve</tspan>
      </text>
      <text
         transform="matrix(1,0,0,-1,189.91,10.8)"
         style="font-variant:normal;font-weight:normal;font-size:8px;font-family:Garamond;-inkscape-font-specification:Garamond;writing-mode:lr-tb;fill:#000000;fill-opacity:1;fill-rule:nonzero;stroke:none"
         id="text4318">
        <tspan
           x="0 2.336 7.5679998 10.904 14.24 17.992001 20.912001 22.912001 26.992001 29.576 31.576 35.360001 38.023998 41.271999 43.104 47.183998 49.183998 51.015999 57.183998 61.264 65.344002 68.167999 70.503998 73.424004"
           y="0"
           sodipodi:role="line"
           id="tspan4320">(weeks of grain imports)</tspan>
      </text>
    </g>
    <g
       id="g4322"
       transform="matrix(1.25,0,0,-1.25,-545.44643,661.7372)" />
    <g
       id="g4324"
       transform="matrix(1.25,0,0,-1.25,-545.44643,661.7372)">
      <text
         transform="matrix(0,1,1,0,15.83,103.03)"
         style="font-variant:normal;font-weight:normal;font-size:8px;font-family:Garamond;-inkscape-font-specification:Garamond;writing-mode:lr-tb;fill:#000000;fill-opacity:1;fill-rule:nonzero;stroke:none"
         id="text4326">
        <tspan
           x="0 4.5679998 7.816 10.48 12.312 14.896 17.48 19.48 22.143999 25.392 27.728001"
           y="0"
           sodipodi:role="line"
           id="tspan4328">Tariff rate</tspan>
      </text>
      <text
         transform="matrix(0,1,1,0,24.47,104.65)"
         style="font-variant:normal;font-weight:normal;font-size:8px;font-family:Garamond;-inkscape-font-specification:Garamond;writing-mode:lr-tb;fill:#000000;fill-opacity:1;fill-rule:nonzero;stroke:none"
         id="text4330">
        <tspan
           x="0 2.336 6.4159999 9.7519999 12.416 15.752 19.087999 23.167999 25.504"
           y="0"
           sodipodi:role="line"
           id="tspan4332">(percent)</tspan>
      </text>
    </g>
    <g
       id="g4334"
       transform="matrix(1.25,0,0,-1.25,-545.44643,661.7372)" />
    <g
       id="g4336"
       transform="matrix(1.25,0,0,-1.25,-545.44643,661.7372)" />
    <g
       id="g4338"
       transform="matrix(1.25,0,0,-1.25,-545.44643,661.7372)" />
    <g
       id="g4340"
       transform="matrix(1.25,0,0,-1.25,-545.44643,661.7372)" />
  </g>
</svg>
